<ttFont>
<head>
    <!-- Most of this table will be recalculated by the compiler -->
    <tableVersion value="1.0"/>
    <fontRevision value="2.00100708008"/>
    <checkSumAdjustment value="0x86eb4e6e"/>
    <magicNumber value="0x5f0f3cf5"/>
    <flags value="00000000 00011001"/>
    <unitsPerEm value="1000"/>
    <created value="Wed Jun 30 06:18:11 2004"/>
    <modified value="Wed Mar  8 14:45:11 2006"/>
    <xMin value="-166"/>
    <yMin value="-214"/>
    <xMax value="1050"/>
    <yMax value="967"/>
    <macStyle value="00000000 00000000"/>
    <lowestRecPPEM value="9"/>
    <fontDirectionHint value="2"/>
    <indexToLocFormat value="1"/>
    <glyphDataFormat value="0"/>
  </head>
    <TTGlyph name=".notdef" xMin="0" yMin="0" xMax="512" yMax="718">
      <contour>
        <pt x="222" y="117" on="1"/>
        <pt x="222" y="184" on="1"/>
        <pt x="278" y="184" on="1"/>
        <pt x="278" y="117" on="1"/>
      </contour>
      <contour>
        <pt x="225" y="234" on="1"/>
        <pt x="223" y="251" on="1"/>
        <pt x="223" y="306" on="0"/>
        <pt x="249" y="358" on="0"/>
        <pt x="282" y="391" on="1"/>
        <pt x="314" y="422" on="0"/>
        <pt x="332" y="455" on="0"/>
        <pt x="332" y="474" on="1"/>
        <pt x="332" y="510" on="0"/>
        <pt x="287" y="559" on="0"/>
        <pt x="256" y="559" on="1"/>
        <pt x="225" y="559" on="0"/>
        <pt x="180" y="515" on="0"/>
        <pt x="174" y="464" on="1"/>
        <pt x="124" y="472" on="1"/>
        <pt x="131" y="543" on="0"/>
        <pt x="205" y="609" on="0"/>
        <pt x="259" y="609" on="1"/>
        <pt x="312" y="609" on="0"/>
        <pt x="383" y="537" on="0"/>
        <pt x="383" y="478" on="1"/>
        <pt x="383" y="446" on="0"/>
        <pt x="358" y="393" on="0"/>
        <pt x="320" y="358" on="1"/>
        <pt x="283" y="325" on="0"/>
        <pt x="271" y="287" on="0"/>
        <pt x="271" y="234" on="1"/>
      </contour>
      <contour>
        <pt x="462" y="50" on="1"/>
        <pt x="462" y="667" on="1"/>
        <pt x="50" y="667" on="1"/>
        <pt x="50" y="50" on="1"/>
      </contour>
      <contour>
        <pt x="512" y="718" on="1"/>
        <pt x="512" y="0" on="1"/>
        <pt x="0" y="0" on="1"/>
        <pt x="0" y="718" on="1"/>
      </contour>
    </TTGlyph>
    <TTGlyph name="A" xMin="-7" yMin="0" xMax="637" yMax="714">
      <contour>
        <pt x="173" y="280" on="1"/>
        <pt x="454" y="280" on="1"/>
        <pt x="316" y="646" on="1"/>
      </contour>
      <contour>
        <pt x="281" y="714" on="1"/>
        <pt x="357" y="714" on="1"/>
        <pt x="637" y="0" on="1"/>
        <pt x="564" y="0" on="1"/>
        <pt x="477" y="222" on="1"/>
        <pt x="152" y="222" on="1"/>
        <pt x="66" y="0" on="1"/>
        <pt x="-7" y="0" on="1"/>
      </contour>
    </TTGlyph>
    <TTGlyph name="AE" xMin="-7" yMin="0" xMax="884" yMax="714">
      <contour>
        <pt x="445" y="284" on="1"/>
        <pt x="445" y="656" on="1"/>
        <pt x="405" y="656" on="1"/>
        <pt x="216" y="284" on="1"/>
      </contour>
      <contour>
        <pt x="513" y="58" on="1"/>
        <pt x="884" y="58" on="1"/>
        <pt x="884" y="0" on="1"/>
        <pt x="445" y="0" on="1"/>
        <pt x="445" y="226" on="1"/>
        <pt x="186" y="226" on="1"/>
        <pt x="70" y="0" on="1"/>
        <pt x="-7" y="0" on="1"/>
        <pt x="367" y="714" on="1"/>
        <pt x="880" y="714" on="1"/>
        <pt x="880" y="656" on="1"/>
        <pt x="513" y="656" on="1"/>
        <pt x="513" y="398" on="1"/>
        <pt x="857" y="398" on="1"/>
        <pt x="857" y="340" on="1"/>
        <pt x="513" y="340" on="1"/>
      </contour>
    </TTGlyph>
    <TTGlyph name="Aacute" xMin="-7" yMin="0" xMax="637" yMax="921">
      <component glyphName="A" x="0" y="0" flags="0x204"/>
      <component glyphName="acute" x="248" y="190" flags="0x4"/>
    </TTGlyph>
    <TTGlyph name="Abreve" xMin="-7" yMin="0" xMax="637" yMax="914">
      <component glyphName="A" x="0" y="0" flags="0x204"/>
      <component glyphName="breve" x="226" y="190" flags="0x4"/>
    </TTGlyph>
    <TTGlyph name="Acircumflex" xMin="-7" yMin="0" xMax="637" yMax="920">
      <component glyphName="A" x="0" y="0" flags="0x204"/>
      <component glyphName="circumflex" x="221" y="190" flags="0x4"/>
    </TTGlyph>
    <TTGlyph name="Adieresis" xMin="-7" yMin="0" xMax="637" yMax="901">
      <component glyphName="A" x="0" y="0" flags="0x204"/>
      <component glyphName="dieresis" x="224" y="190" flags="0x4"/>
    </TTGlyph>
    <TTGlyph name="Agrave" xMin="-7" yMin="0" xMax="637" yMax="919">
      <component glyphName="A" x="0" y="0" flags="0x204"/>
      <component glyphName="grave" x="206" y="190" flags="0x4"/>
    </TTGlyph>
    <TTGlyph name="Amacron" xMin="-7" yMin="0" xMax="637" yMax="873">
      <component glyphName="A" x="0" y="0" flags="0x204"/>
      <component glyphName="macron" x="223" y="190" flags="0x4"/>
    </TTGlyph>
    <TTGlyph name="Aogonek" xMin="-7" yMin="-203" xMax="648" yMax="714">
      <contour>
        <pt x="602" y="0" on="1"/>
        <pt x="575" y="-22" on="0"/>
        <pt x="540" y="-57" on="0"/>
        <pt x="524" y="-85" on="0"/>
        <pt x="520" y="-104" on="0"/>
        <pt x="520" y="-117" on="1"/>
        <pt x="520" y="-141" on="0"/>
        <pt x="547" y="-164" on="0"/>
        <pt x="564" y="-164" on="1"/>
        <pt x="583" y="-164" on="0"/>
        <pt x="611" y="-139" on="0"/>
        <pt x="619" y="-123" on="1"/>
        <pt x="648" y="-136" on="1"/>
        <pt x="631" y="-174" on="0"/>
        <pt x="582" y="-203" on="0"/>
        <pt x="550" y="-203" on="1"/>
        <pt x="506" y="-203" on="0"/>
        <pt x="459" y="-157" on="0"/>
        <pt x="459" y="-121" on="1"/>
        <pt x="459" y="-113" on="0"/>
        <pt x="465" y="-90" on="0"/>
        <pt x="483" y="-63" on="0"/>
        <pt x="526" y="-23" on="0"/>
        <pt x="564" y="0" on="1"/>
        <pt x="477" y="222" on="1"/>
        <pt x="152" y="222" on="1"/>
        <pt x="66" y="0" on="1"/>
        <pt x="-7" y="0" on="1"/>
        <pt x="281" y="714" on="1"/>
        <pt x="357" y="714" on="1"/>
        <pt x="637" y="0" on="1"/>
      </contour>
      <contour>
        <pt x="173" y="280" on="1"/>
        <pt x="454" y="280" on="1"/>
        <pt x="316" y="646" on="1"/>
      </contour>
    </TTGlyph>
    <TTGlyph name="Aring" xMin="-7" yMin="0" xMax="637" yMax="967">
      <component glyphName="A" x="0" y="0" flags="0x204"/>
      <component glyphName="ring" x="225" y="180" flags="0x4"/>
    </TTGlyph>
    <TTGlyph name="Atilde" xMin="-7" yMin="0" xMax="637" yMax="900">
      <component glyphName="A" x="0" y="0" flags="0x204"/>
      <component glyphName="tilde" x="225" y="190" flags="0x4"/>
    </TTGlyph>
    <TTGlyph name="B" xMin="72" yMin="0" xMax="630" yMax="714">
      <contour>
        <pt x="140" y="401" on="1"/>
        <pt x="374" y="401" on="1"/>
        <pt x="415" y="401" on="0"/>
        <pt x="475" y="420" on="0"/>
        <pt x="515" y="453" on="0"/>
        <pt x="535" y="497" on="0"/>
        <pt x="535" y="522" on="1"/>
        <pt x="535" y="656" on="0"/>
        <pt x="374" y="656" on="1"/>
        <pt x="140" y="656" on="1"/>
      </contour>
      <contour>
        <pt x="72" y="714" on="1"/>
        <pt x="374" y="714" on="1"/>
        <pt x="419" y="714" on="0"/>
        <pt x="502" y="697" on="0"/>
        <pt x="565" y="656" on="0"/>
        <pt x="603" y="589" on="0"/>
        <pt x="603" y="539" on="1"/>
        <pt x="603" y="511" on="0"/>
        <pt x="585" y="458" on="0"/>
        <pt x="552" y="415" on="0"/>
        <pt x="507" y="385" on="0"/>
        <pt x="479" y="379" on="1"/>
        <pt x="479" y="377" on="1"/>
        <pt x="548" y="368" on="0"/>
        <pt x="630" y="273" on="0"/>
        <pt x="630" y="203" on="1"/>
        <pt x="630" y="177" on="0"/>
        <pt x="615" y="108" on="0"/>
        <pt x="563" y="44" on="0"/>
        <pt x="461" y="0" on="0"/>
        <pt x="374" y="0" on="1"/>
        <pt x="72" y="0" on="1"/>
      </contour>
      <contour>
        <pt x="140" y="58" on="1"/>
        <pt x="374" y="58" on="1"/>
        <pt x="412" y="58" on="0"/>
        <pt x="480" y="71" on="0"/>
        <pt x="532" y="105" on="0"/>
        <pt x="562" y="162" on="0"/>
        <pt x="562" y="205" on="1"/>
        <pt x="562" y="274" on="0"/>
        <pt x="464" y="343" on="0"/>
        <pt x="374" y="343" on="1"/>
        <pt x="140" y="343" on="1"/>
      </contour>
    </TTGlyph>
    <TTGlyph name="C" xMin="38" yMin="-15" xMax="672" yMax="729">
      <contour>
        <pt x="594" y="498" on="1"/>
        <pt x="585" y="539" on="0"/>
        <pt x="544" y="604" on="0"/>
        <pt x="485" y="648" on="0"/>
        <pt x="414" y="671" on="0"/>
        <pt x="375" y="671" on="1"/>
        <pt x="304" y="671" on="0"/>
        <pt x="202" y="617" on="0"/>
        <pt x="137" y="528" on="0"/>
        <pt x="106" y="415" on="0"/>
        <pt x="106" y="357" on="1"/>
        <pt x="106" y="298" on="0"/>
        <pt x="137" y="186" on="0"/>
        <pt x="202" y="97" on="0"/>
        <pt x="304" y="43" on="0"/>
        <pt x="375" y="43" on="1"/>
        <pt x="424" y="43" on="0"/>
        <pt x="505" y="79" on="0"/>
        <pt x="563" y="141" on="0"/>
        <pt x="599" y="224" on="0"/>
        <pt x="604" y="272" on="1"/>
        <pt x="672" y="272" on="1"/>
        <pt x="665" y="206" on="0"/>
        <pt x="617" y="100" on="0"/>
        <pt x="541" y="25" on="0"/>
        <pt x="438" y="-15" on="0"/>
        <pt x="375" y="-15" on="1"/>
        <pt x="291" y="-15" on="0"/>
        <pt x="164" y="46" on="0"/>
        <pt x="80" y="149" on="0"/>
        <pt x="38" y="284" on="0"/>
        <pt x="38" y="357" on="1"/>
        <pt x="38" y="430" on="0"/>
        <pt x="80" y="565" on="0"/>
        <pt x="164" y="668" on="0"/>
        <pt x="291" y="729" on="0"/>
        <pt x="375" y="729" on="1"/>
        <pt x="426" y="729" on="0"/>
        <pt x="523" y="699" on="0"/>
        <pt x="602" y="640" on="0"/>
        <pt x="655" y="554" on="0"/>
        <pt x="662" y="498" on="1"/>
      </contour>
    </TTGlyph>
    <TTGlyph name="Cacute" xMin="38" yMin="-15" xMax="672" yMax="921">
      <component glyphName="C" x="0" y="0" flags="0x204"/>
      <component glyphName="acute" x="310" y="190" flags="0x4"/>
    </TTGlyph>
    <TTGlyph name="Ccaron" xMin="38" yMin="-15" xMax="672" yMax="921">
      <component glyphName="C" x="0" y="0" flags="0x204"/>
      <component glyphName="caron" x="280" y="190" flags="0x4"/>
    </TTGlyph>
    <TTGlyph name="Ccedilla" xMin="38" yMin="-203" xMax="672" yMax="729">
      <contour>
        <pt x="594" y="498" on="1"/>
        <pt x="585" y="539" on="0"/>
        <pt x="544" y="604" on="0"/>
        <pt x="485" y="648" on="0"/>
        <pt x="414" y="671" on="0"/>
        <pt x="375" y="671" on="1"/>
        <pt x="304" y="671" on="0"/>
        <pt x="202" y="617" on="0"/>
        <pt x="137" y="528" on="0"/>
        <pt x="106" y="415" on="0"/>
        <pt x="106" y="357" on="1"/>
        <pt x="106" y="298" on="0"/>
        <pt x="137" y="186" on="0"/>
        <pt x="202" y="97" on="0"/>
        <pt x="304" y="43" on="0"/>
        <pt x="375" y="43" on="1"/>
        <pt x="424" y="43" on="0"/>
        <pt x="505" y="79" on="0"/>
        <pt x="563" y="141" on="0"/>
        <pt x="599" y="224" on="0"/>
        <pt x="604" y="272" on="1"/>
        <pt x="672" y="272" on="1"/>
        <pt x="665" y="206" on="0"/>
        <pt x="617" y="100" on="0"/>
        <pt x="541" y="25" on="0"/>
        <pt x="438" y="-15" on="0"/>
        <pt x="375" y="-15" on="1"/>
        <pt x="374" y="-15" on="1"/>
        <pt x="342" y="-54" on="1"/>
        <pt x="356" y="-51" on="0"/>
        <pt x="379" y="-50" on="0"/>
        <pt x="405" y="-53" on="0"/>
        <pt x="435" y="-66" on="0"/>
        <pt x="458" y="-94" on="0"/>
        <pt x="458" y="-117" on="1"/>
        <pt x="458" y="-140" on="0"/>
        <pt x="438" y="-172" on="0"/>
        <pt x="406" y="-193" on="0"/>
        <pt x="367" y="-203" on="0"/>
        <pt x="348" y="-203" on="1"/>
        <pt x="324" y="-203" on="0"/>
        <pt x="276" y="-193" on="0"/>
        <pt x="254" y="-182" on="1"/>
        <pt x="268" y="-150" on="1"/>
        <pt x="281" y="-155" on="0"/>
        <pt x="325" y="-164" on="0"/>
        <pt x="347" y="-164" on="1"/>
        <pt x="368" y="-164" on="0"/>
        <pt x="400" y="-144" on="0"/>
        <pt x="400" y="-121" on="1"/>
        <pt x="400" y="-103" on="0"/>
        <pt x="374" y="-83" on="0"/>
        <pt x="357" y="-83" on="1"/>
        <pt x="322" y="-83" on="0"/>
        <pt x="306" y="-91" on="1"/>
        <pt x="290" y="-76" on="1"/>
        <pt x="340" y="-13" on="1"/>
        <pt x="277" y="-8" on="0"/>
        <pt x="227" y="15" on="1"/>
        <pt x="164" y="46" on="0"/>
        <pt x="80" y="149" on="0"/>
        <pt x="38" y="284" on="0"/>
        <pt x="38" y="357" on="1"/>
        <pt x="38" y="430" on="0"/>
        <pt x="80" y="565" on="0"/>
        <pt x="164" y="668" on="0"/>
        <pt x="291" y="729" on="0"/>
        <pt x="375" y="729" on="1"/>
        <pt x="426" y="729" on="0"/>
        <pt x="523" y="699" on="0"/>
        <pt x="602" y="640" on="0"/>
        <pt x="655" y="554" on="0"/>
        <pt x="662" y="498" on="1"/>
      </contour>
    </TTGlyph>
    <TTGlyph name="Ccircumflex" xMin="38" yMin="-15" xMax="672" yMax="920">
      <component glyphName="C" x="0" y="0" flags="0x204"/>
      <component glyphName="circumflex" x="279" y="190" flags="0x4"/>
    </TTGlyph>
    <TTGlyph name="Cdotaccent" xMin="38" yMin="-15" xMax="672" yMax="901">
      <component glyphName="C" x="0" y="0" flags="0x204"/>
      <component glyphName="dotaccent" x="278" y="190" flags="0x4"/>
    </TTGlyph>
    <TTGlyph name="D" xMin="72" yMin="0" xMax="647" yMax="714">
      <contour>
        <pt x="72" y="714" on="1"/>
        <pt x="319" y="714" on="1"/>
        <pt x="481" y="710" on="0"/>
        <pt x="647" y="534" on="0"/>
        <pt x="647" y="357" on="1"/>
        <pt x="647" y="180" on="0"/>
        <pt x="481" y="4" on="0"/>
        <pt x="319" y="0" on="1"/>
        <pt x="72" y="0" on="1"/>
      </contour>
      <contour>
        <pt x="140" y="58" on="1"/>
        <pt x="285" y="58" on="1"/>
        <pt x="362" y="58" on="0"/>
        <pt x="473" y="91" on="0"/>
        <pt x="545" y="163" on="0"/>
        <pt x="579" y="277" on="0"/>
        <pt x="579" y="357" on="1"/>
        <pt x="579" y="437" on="0"/>
        <pt x="545" y="551" on="0"/>
        <pt x="473" y="623" on="0"/>
        <pt x="362" y="656" on="0"/>
        <pt x="285" y="656" on="1"/>
        <pt x="140" y="656" on="1"/>
      </contour>
    </TTGlyph>
    <TTGlyph name="Dcaron" xMin="72" yMin="0" xMax="647" yMax="921">
      <component glyphName="D" x="0" y="0" flags="0x204"/>
      <component glyphName="caron" x="216" y="190" flags="0x4"/>
    </TTGlyph>
    <TTGlyph name="Dcroat" xMin="0" yMin="0" xMax="647" yMax="714">
      <contour>
        <pt x="72" y="714" on="1"/>
        <pt x="319" y="714" on="1"/>
        <pt x="481" y="710" on="0"/>
        <pt x="647" y="534" on="0"/>
        <pt x="647" y="357" on="1"/>
        <pt x="647" y="180" on="0"/>
        <pt x="481" y="4" on="0"/>
        <pt x="319" y="0" on="1"/>
        <pt x="72" y="0" on="1"/>
        <pt x="72" y="348" on="1"/>
        <pt x="0" y="348" on="1"/>
        <pt x="0" y="393" on="1"/>
        <pt x="72" y="393" on="1"/>
      </contour>
      <contour>
        <pt x="140" y="393" on="1"/>
        <pt x="376" y="393" on="1"/>
        <pt x="376" y="348" on="1"/>
        <pt x="140" y="348" on="1"/>
        <pt x="140" y="58" on="1"/>
        <pt x="285" y="58" on="1"/>
        <pt x="362" y="58" on="0"/>
        <pt x="473" y="91" on="0"/>
        <pt x="545" y="163" on="0"/>
        <pt x="579" y="277" on="0"/>
        <pt x="579" y="357" on="1"/>
        <pt x="579" y="437" on="0"/>
        <pt x="545" y="551" on="0"/>
        <pt x="473" y="623" on="0"/>
        <pt x="362" y="656" on="0"/>
        <pt x="285" y="656" on="1"/>
        <pt x="140" y="656" on="1"/>
      </contour>
    </TTGlyph>
    <TTGlyph name="Delta" xMin="13" yMin="0" xMax="662" yMax="712">
      <contour>
        <pt x="333" y="628" on="1"/>
        <pt x="120" y="72" on="1"/>
        <pt x="550" y="72" on="1"/>
      </contour>
      <contour>
        <pt x="13" y="0" on="1"/>
        <pt x="292" y="712" on="1"/>
        <pt x="375" y="712" on="1"/>
        <pt x="662" y="0" on="1"/>
      </contour>
    </TTGlyph>
    <TTGlyph name="E" xMin="72" yMin="0" xMax="570" yMax="714">
      <contour>
        <pt x="72" y="714" on="1"/>
        <pt x="565" y="714" on="1"/>
        <pt x="565" y="656" on="1"/>
        <pt x="140" y="656" on="1"/>
        <pt x="140" y="398" on="1"/>
        <pt x="538" y="398" on="1"/>
        <pt x="538" y="340" on="1"/>
        <pt x="140" y="340" on="1"/>
        <pt x="140" y="58" on="1"/>
        <pt x="570" y="58" on="1"/>
        <pt x="570" y="0" on="1"/>
        <pt x="72" y="0" on="1"/>
      </contour>
    </TTGlyph>
    <TTGlyph name="Eacute" xMin="72" yMin="0" xMax="570" yMax="921">
      <component glyphName="E" x="0" y="0" flags="0x204"/>
      <component glyphName="acute" x="247" y="190" flags="0x4"/>
    </TTGlyph>
    <TTGlyph name="Ebreve" xMin="72" yMin="0" xMax="570" yMax="914">
      <component glyphName="E" x="0" y="0" flags="0x204"/>
      <component glyphName="breve" x="225" y="190" flags="0x4"/>
    </TTGlyph>
    <TTGlyph name="Ecaron" xMin="72" yMin="0" xMax="570" yMax="921">
      <component glyphName="E" x="0" y="0" flags="0x204"/>
      <component glyphName="caron" x="226" y="190" flags="0x4"/>
    </TTGlyph>
    <TTGlyph name="Ecircumflex" xMin="72" yMin="0" xMax="570" yMax="920">
      <component glyphName="E" x="0" y="0" flags="0x204"/>
      <component glyphName="circumflex" x="225" y="190" flags="0x4"/>
    </TTGlyph>
    <TTGlyph name="Edieresis" xMin="72" yMin="0" xMax="570" yMax="901">
      <component glyphName="E" x="0" y="0" flags="0x204"/>
      <component glyphName="dieresis" x="225" y="190" flags="0x4"/>
    </TTGlyph>
    <TTGlyph name="Edotaccent" xMin="72" yMin="0" xMax="570" yMax="901">
      <component glyphName="E" x="0" y="0" flags="0x204"/>
      <component glyphName="dotaccent" x="226" y="190" flags="0x4"/>
    </TTGlyph>
    <TTGlyph name="Egrave" xMin="72" yMin="0" xMax="570" yMax="919">
      <component glyphName="E" x="0" y="0" flags="0x204"/>
      <component glyphName="grave" x="215" y="190" flags="0x4"/>
    </TTGlyph>
    <TTGlyph name="Emacron" xMin="72" yMin="0" xMax="570" yMax="873">
      <component glyphName="E" x="0" y="0" flags="0x204"/>
      <component glyphName="macron" x="228" y="190" flags="0x4"/>
    </TTGlyph>
    <TTGlyph name="Eogonek" xMin="72" yMin="-203" xMax="570" yMax="714">
      <contour>
        <pt x="524" y="0" on="1"/>
        <pt x="497" y="-22" on="0"/>
        <pt x="462" y="-57" on="0"/>
        <pt x="446" y="-85" on="0"/>
        <pt x="442" y="-104" on="0"/>
        <pt x="442" y="-117" on="1"/>
        <pt x="442" y="-141" on="0"/>
        <pt x="469" y="-164" on="0"/>
        <pt x="486" y="-164" on="1"/>
        <pt x="505" y="-164" on="0"/>
        <pt x="533" y="-139" on="0"/>
        <pt x="541" y="-123" on="1"/>
        <pt x="570" y="-136" on="1"/>
        <pt x="553" y="-174" on="0"/>
        <pt x="504" y="-203" on="0"/>
        <pt x="472" y="-203" on="1"/>
        <pt x="428" y="-203" on="0"/>
        <pt x="381" y="-157" on="0"/>
        <pt x="381" y="-121" on="1"/>
        <pt x="381" y="-113" on="0"/>
        <pt x="387" y="-90" on="0"/>
        <pt x="405" y="-63" on="0"/>
        <pt x="448" y="-23" on="0"/>
        <pt x="486" y="0" on="1"/>
        <pt x="72" y="0" on="1"/>
        <pt x="72" y="714" on="1"/>
        <pt x="565" y="714" on="1"/>
        <pt x="565" y="656" on="1"/>
        <pt x="140" y="656" on="1"/>
        <pt x="140" y="398" on="1"/>
        <pt x="538" y="398" on="1"/>
        <pt x="538" y="340" on="1"/>
        <pt x="140" y="340" on="1"/>
        <pt x="140" y="58" on="1"/>
        <pt x="570" y="58" on="1"/>
        <pt x="570" y="0" on="1"/>
      </contour>
    </TTGlyph>
    <TTGlyph name="Eth" xMin="0" yMin="0" xMax="647" yMax="714">
      <contour>
        <pt x="72" y="714" on="1"/>
        <pt x="319" y="714" on="1"/>
        <pt x="481" y="710" on="0"/>
        <pt x="647" y="534" on="0"/>
        <pt x="647" y="357" on="1"/>
        <pt x="647" y="180" on="0"/>
        <pt x="481" y="4" on="0"/>
        <pt x="319" y="0" on="1"/>
        <pt x="72" y="0" on="1"/>
        <pt x="72" y="348" on="1"/>
        <pt x="0" y="348" on="1"/>
        <pt x="0" y="393" on="1"/>
        <pt x="72" y="393" on="1"/>
      </contour>
      <contour>
        <pt x="140" y="393" on="1"/>
        <pt x="376" y="393" on="1"/>
        <pt x="376" y="348" on="1"/>
        <pt x="140" y="348" on="1"/>
        <pt x="140" y="58" on="1"/>
        <pt x="285" y="58" on="1"/>
        <pt x="362" y="58" on="0"/>
        <pt x="473" y="91" on="0"/>
        <pt x="545" y="163" on="0"/>
        <pt x="579" y="277" on="0"/>
        <pt x="579" y="357" on="1"/>
        <pt x="579" y="437" on="0"/>
        <pt x="545" y="551" on="0"/>
        <pt x="473" y="623" on="0"/>
        <pt x="362" y="656" on="0"/>
        <pt x="285" y="656" on="1"/>
        <pt x="140" y="656" on="1"/>
      </contour>
    </TTGlyph>
    <TTGlyph name="Euro" xMin="15" yMin="-15" xMax="557" yMax="712">
      <contour>
        <pt x="530" y="576" on="1"/>
        <pt x="464" y="655" on="0"/>
        <pt x="370" y="655" on="1"/>
        <pt x="278" y="655" on="0"/>
        <pt x="220" y="588" on="1"/>
        <pt x="169" y="529" on="0"/>
        <pt x="151" y="434" on="1"/>
        <pt x="484" y="434" on="1"/>
        <pt x="466" y="389" on="1"/>
        <pt x="145" y="389" on="1"/>
        <pt x="142" y="363" on="0"/>
        <pt x="142" y="346" on="1"/>
        <pt x="142" y="342" on="0"/>
        <pt x="142" y="338" on="1"/>
        <pt x="142" y="334" on="0"/>
        <pt x="143" y="330" on="1"/>
        <pt x="447" y="330" on="1"/>
        <pt x="428" y="285" on="1"/>
        <pt x="146" y="285" on="1"/>
        <pt x="160" y="180" on="0"/>
        <pt x="209" y="116" on="1"/>
        <pt x="269" y="41" on="0"/>
        <pt x="367" y="41" on="1"/>
        <pt x="420" y="41" on="0"/>
        <pt x="463" y="64" on="1"/>
        <pt x="497" y="83" on="0"/>
        <pt x="541" y="127" on="1"/>
        <pt x="541" y="50" on="1"/>
        <pt x="464" y="-15" on="0"/>
        <pt x="365" y="-15" on="1"/>
        <pt x="240" y="-15" on="0"/>
        <pt x="163" y="74" on="1"/>
        <pt x="96" y="153" on="0"/>
        <pt x="81" y="285" on="1"/>
        <pt x="15" y="285" on="1"/>
        <pt x="34" y="330" on="1"/>
        <pt x="78" y="330" on="1"/>
        <pt x="77" y="334" on="0"/>
        <pt x="77" y="339" on="1"/>
        <pt x="77" y="344" on="0"/>
        <pt x="77" y="350" on="1"/>
        <pt x="77" y="358" on="0"/>
        <pt x="78" y="377" on="0"/>
        <pt x="79" y="389" on="1"/>
        <pt x="15" y="389" on="1"/>
        <pt x="33" y="434" on="1"/>
        <pt x="84" y="434" on="1"/>
        <pt x="107" y="558" on="0"/>
        <pt x="176" y="630" on="1"/>
        <pt x="252" y="712" on="0"/>
        <pt x="371" y="712" on="1"/>
        <pt x="495" y="712" on="0"/>
        <pt x="557" y="635" on="1"/>
      </contour>
    </TTGlyph>
    <TTGlyph name="F" xMin="72" yMin="0" xMax="525" yMax="714">
      <contour>
        <pt x="72" y="714" on="1"/>
        <pt x="525" y="714" on="1"/>
        <pt x="525" y="656" on="1"/>
        <pt x="140" y="656" on="1"/>
        <pt x="140" y="398" on="1"/>
        <pt x="482" y="398" on="1"/>
        <pt x="482" y="340" on="1"/>
        <pt x="140" y="340" on="1"/>
        <pt x="140" y="0" on="1"/>
        <pt x="72" y="0" on="1"/>
      </contour>
    </TTGlyph>
    <TTGlyph name="G" xMin="38" yMin="-15" xMax="682" yMax="729">
      <contour>
        <pt x="682" y="0" on="1"/>
        <pt x="633" y="0" on="1"/>
        <pt x="624" y="130" on="1"/>
        <pt x="622" y="130" on="1"/>
        <pt x="604" y="92" on="0"/>
        <pt x="551" y="37" on="0"/>
        <pt x="487" y="2" on="0"/>
        <pt x="414" y="-15" on="0"/>
        <pt x="375" y="-15" on="1"/>
        <pt x="291" y="-15" on="0"/>
        <pt x="164" y="46" on="0"/>
        <pt x="80" y="149" on="0"/>
        <pt x="38" y="284" on="0"/>
        <pt x="38" y="357" on="1"/>
        <pt x="38" y="430" on="0"/>
        <pt x="80" y="565" on="0"/>
        <pt x="164" y="668" on="0"/>
        <pt x="291" y="729" on="0"/>
        <pt x="375" y="729" on="1"/>
        <pt x="431" y="729" on="0"/>
        <pt x="531" y="699" on="0"/>
        <pt x="610" y="639" on="0"/>
        <pt x="663" y="550" on="0"/>
        <pt x="673" y="492" on="1"/>
        <pt x="605" y="492" on="1"/>
        <pt x="602" y="523" on="0"/>
        <pt x="567" y="586" on="0"/>
        <pt x="508" y="638" on="0"/>
        <pt x="426" y="671" on="0"/>
        <pt x="375" y="671" on="1"/>
        <pt x="304" y="671" on="0"/>
        <pt x="202" y="617" on="0"/>
        <pt x="137" y="528" on="0"/>
        <pt x="106" y="415" on="0"/>
        <pt x="106" y="357" on="1"/>
        <pt x="106" y="298" on="0"/>
        <pt x="137" y="186" on="0"/>
        <pt x="202" y="97" on="0"/>
        <pt x="304" y="43" on="0"/>
        <pt x="375" y="43" on="1"/>
        <pt x="434" y="43" on="0"/>
        <pt x="527" y="82" on="0"/>
        <pt x="591" y="152" on="0"/>
        <pt x="623" y="248" on="0"/>
        <pt x="622" y="305" on="1"/>
        <pt x="379" y="305" on="1"/>
        <pt x="379" y="363" on="1"/>
        <pt x="682" y="363" on="1"/>
      </contour>
    </TTGlyph>
    <TTGlyph name="Gbreve" xMin="38" yMin="-15" xMax="682" yMax="914">
      <component glyphName="G" x="0" y="0" flags="0x204"/>
      <component glyphName="breve" x="282" y="190" flags="0x4"/>
    </TTGlyph>
    <TTGlyph name="Gcircumflex" xMin="38" yMin="-15" xMax="682" yMax="920">
      <component glyphName="G" x="0" y="0" flags="0x204"/>
      <component glyphName="circumflex" x="278" y="190" flags="0x4"/>
    </TTGlyph>
    <TTGlyph name="Gcommaaccent" xMin="38" yMin="-203" xMax="682" yMax="729">
      <component glyphName="G" x="0" y="0" flags="0x204"/>
      <component glyphName="commaaccent" x="234" y="0" flags="0x4"/>
    </TTGlyph>
    <TTGlyph name="Gdotaccent" xMin="38" yMin="-15" xMax="682" yMax="901">
      <component glyphName="G" x="0" y="0" flags="0x204"/>
      <component glyphName="dotaccent" x="283" y="190" flags="0x4"/>
    </TTGlyph>
    <TTGlyph name="H" xMin="72" yMin="0" xMax="632" yMax="714">
      <contour>
        <pt x="72" y="714" on="1"/>
        <pt x="140" y="714" on="1"/>
        <pt x="140" y="404" on="1"/>
        <pt x="564" y="404" on="1"/>
        <pt x="564" y="714" on="1"/>
        <pt x="632" y="714" on="1"/>
        <pt x="632" y="0" on="1"/>
        <pt x="564" y="0" on="1"/>
        <pt x="564" y="346" on="1"/>
        <pt x="140" y="346" on="1"/>
        <pt x="140" y="0" on="1"/>
        <pt x="72" y="0" on="1"/>
      </contour>
    </TTGlyph>
    <TTGlyph name="Hbar" xMin="72" yMin="0" xMax="632" yMax="714">
      <contour>
        <pt x="72" y="714" on="1"/>
        <pt x="140" y="714" on="1"/>
        <pt x="140" y="516" on="1"/>
        <pt x="564" y="516" on="1"/>
        <pt x="564" y="714" on="1"/>
        <pt x="632" y="714" on="1"/>
        <pt x="632" y="0" on="1"/>
        <pt x="564" y="0" on="1"/>
        <pt x="564" y="336" on="1"/>
        <pt x="140" y="336" on="1"/>
        <pt x="140" y="0" on="1"/>
        <pt x="72" y="0" on="1"/>
      </contour>
      <contour>
        <pt x="140" y="471" on="1"/>
        <pt x="140" y="394" on="1"/>
        <pt x="564" y="394" on="1"/>
        <pt x="564" y="471" on="1"/>
      </contour>
    </TTGlyph>
    <TTGlyph name="Hcircumflex" xMin="72" yMin="0" xMax="632" yMax="920">
      <component glyphName="H" x="0" y="0" flags="0x204"/>
      <component glyphName="circumflex" x="258" y="190" flags="0x4"/>
    </TTGlyph>
    <TTGlyph name="I" xMin="77" yMin="0" xMax="145" yMax="714">
      <contour>
        <pt x="77" y="714" on="1"/>
        <pt x="145" y="714" on="1"/>
        <pt x="145" y="0" on="1"/>
        <pt x="77" y="0" on="1"/>
      </contour>
    </TTGlyph>
    <TTGlyph name="IJ" xMin="77" yMin="-15" xMax="655" yMax="714">
      <component glyphName="I" x="0" y="0" flags="0x4"/>
      <component glyphName="J" x="227" y="0" flags="0x4"/>
    </TTGlyph>
    <TTGlyph name="Iacute" xMin="77" yMin="0" xMax="260" yMax="921">
      <component glyphName="I" x="0" y="0" flags="0x204"/>
      <component glyphName="acute" x="44" y="190" flags="0x4"/>
    </TTGlyph>
    <TTGlyph name="Icircumflex" xMin="-37" yMin="0" xMax="260" yMax="920">
      <component glyphName="I" x="0" y="0" flags="0x204"/>
      <component glyphName="circumflex" x="16" y="190" flags="0x4"/>
    </TTGlyph>
    <TTGlyph name="Idieresis" xMin="-11" yMin="0" xMax="234" yMax="901">
      <component glyphName="I" x="0" y="0" flags="0x204"/>
      <component glyphName="dieresis" x="19" y="190" flags="0x4"/>
    </TTGlyph>
    <TTGlyph name="Idotaccent" xMin="77" yMin="0" xMax="145" yMax="901">
      <component glyphName="I" x="0" y="0" flags="0x204"/>
      <component glyphName="dotaccent" x="18" y="190" flags="0x4"/>
    </TTGlyph>
    <TTGlyph name="Igrave" xMin="-37" yMin="0" xMax="146" yMax="919">
      <component glyphName="I" x="0" y="0" flags="0x204"/>
      <component glyphName="grave" x="-6" y="190" flags="0x4"/>
    </TTGlyph>
    <TTGlyph name="Imacron" xMin="-53" yMin="0" xMax="276" yMax="873">
      <component glyphName="I" x="0" y="0" flags="0x204"/>
      <component glyphName="macron" x="19" y="190" flags="0x4"/>
    </TTGlyph>
    <TTGlyph name="Iogonek" xMin="16" yMin="-203" xMax="187" yMax="714">
      <contour>
        <pt x="145" y="0" on="1"/>
        <pt x="121" y="-22" on="0"/>
        <pt x="89" y="-57" on="0"/>
        <pt x="74" y="-85" on="0"/>
        <pt x="71" y="-104" on="0"/>
        <pt x="71" y="-117" on="1"/>
        <pt x="71" y="-141" on="0"/>
        <pt x="95" y="-164" on="0"/>
        <pt x="111" y="-164" on="1"/>
        <pt x="128" y="-164" on="0"/>
        <pt x="153" y="-139" on="0"/>
        <pt x="160" y="-123" on="1"/>
        <pt x="187" y="-136" on="1"/>
        <pt x="171" y="-174" on="0"/>
        <pt x="127" y="-203" on="0"/>
        <pt x="98" y="-203" on="1"/>
        <pt x="58" y="-203" on="0"/>
        <pt x="16" y="-157" on="0"/>
        <pt x="16" y="-121" on="1"/>
        <pt x="16" y="-113" on="0"/>
        <pt x="21" y="-90" on="0"/>
        <pt x="37" y="-63" on="0"/>
        <pt x="76" y="-23" on="0"/>
        <pt x="111" y="0" on="1"/>
        <pt x="77" y="0" on="1"/>
        <pt x="77" y="714" on="1"/>
        <pt x="145" y="714" on="1"/>
      </contour>
    </TTGlyph>
    <TTGlyph name="Itilde" xMin="-46" yMin="0" xMax="268" yMax="900">
      <component glyphName="I" x="0" y="0" flags="0x204"/>
      <component glyphName="tilde" x="19" y="190" flags="0x4"/>
    </TTGlyph>
    <TTGlyph name="J" xMin="21" yMin="-15" xMax="428" yMax="714">
      <contour>
        <pt x="360" y="714" on="1"/>
        <pt x="428" y="714" on="1"/>
        <pt x="428" y="199" on="1"/>
        <pt x="428" y="145" on="0"/>
        <pt x="406" y="64" on="0"/>
        <pt x="357" y="11" on="0"/>
        <pt x="278" y="-15" on="0"/>
        <pt x="220" y="-15" on="1"/>
        <pt x="158" y="-15" on="0"/>
        <pt x="81" y="26" on="0"/>
        <pt x="37" y="95" on="0"/>
        <pt x="21" y="182" on="0"/>
        <pt x="21" y="229" on="1"/>
        <pt x="89" y="229" on="1"/>
        <pt x="90" y="206" on="0"/>
        <pt x="93" y="142" on="0"/>
        <pt x="118" y="84" on="0"/>
        <pt x="173" y="43" on="0"/>
        <pt x="226" y="43" on="1"/>
        <pt x="266" y="43" on="0"/>
        <pt x="318" y="64" on="0"/>
        <pt x="348" y="109" on="0"/>
        <pt x="360" y="179" on="0"/>
        <pt x="360" y="228" on="1"/>
      </contour>
    </TTGlyph>
    <TTGlyph name="Jcircumflex" xMin="21" yMin="-15" xMax="539" yMax="920">
      <component glyphName="J" x="0" y="0" flags="0x204"/>
      <component glyphName="circumflex" x="295" y="190" flags="0x4"/>
    </TTGlyph>
    <TTGlyph name="K" xMin="72" yMin="0" xMax="662" yMax="714">
      <contour>
        <pt x="72" y="714" on="1"/>
        <pt x="140" y="714" on="1"/>
        <pt x="140" y="330" on="1"/>
        <pt x="555" y="714" on="1"/>
        <pt x="647" y="714" on="1"/>
        <pt x="328" y="419" on="1"/>
        <pt x="662" y="0" on="1"/>
        <pt x="574" y="0" on="1"/>
        <pt x="277" y="372" on="1"/>
        <pt x="140" y="245" on="1"/>
        <pt x="140" y="0" on="1"/>
        <pt x="72" y="0" on="1"/>
      </contour>
    </TTGlyph>
    <TTGlyph name="Kcommaaccent" xMin="72" yMin="-203" xMax="662" yMax="714">
      <component glyphName="K" x="0" y="0" flags="0x204"/>
      <component glyphName="commaaccent" x="194" y="0" flags="0x4"/>
    </TTGlyph>
    <TTGlyph name="L" xMin="72" yMin="0" xMax="540" yMax="714">
      <contour>
        <pt x="72" y="714" on="1"/>
        <pt x="140" y="714" on="1"/>
        <pt x="140" y="58" on="1"/>
        <pt x="540" y="58" on="1"/>
        <pt x="540" y="0" on="1"/>
        <pt x="72" y="0" on="1"/>
      </contour>
    </TTGlyph>
    <TTGlyph name="Lacute" xMin="72" yMin="0" xMax="540" yMax="921">
      <component glyphName="L" x="0" y="0" flags="0x204"/>
      <component glyphName="acute" x="46" y="190" flags="0x4"/>
    </TTGlyph>
    <TTGlyph name="Lcaron" xMin="72" yMin="0" xMax="540" yMax="714">
      <component glyphName="L" x="0" y="0" flags="0x204"/>
      <component glyphName="carontwo" x="157" y="0" flags="0x4"/>
    </TTGlyph>
    <TTGlyph name="Lcommaaccent" xMin="72" yMin="-203" xMax="540" yMax="714">
      <component glyphName="L" x="0" y="0" flags="0x204"/>
      <component glyphName="commaaccent" x="153" y="0" flags="0x4"/>
    </TTGlyph>
    <TTGlyph name="Ldot" xMin="72" yMin="0" xMax="540" yMax="714">
      <component glyphName="L" x="0" y="0" flags="0x204"/>
      <component glyphName="dotaccent" x="229" y="-194" flags="0x4"/>
    </TTGlyph>
    <TTGlyph name="Lslash" xMin="-10" yMin="0" xMax="540" yMax="714">
      <contour>
        <pt x="72" y="714" on="1"/>
        <pt x="140" y="714" on="1"/>
        <pt x="140" y="353" on="1"/>
        <pt x="383" y="521" on="1"/>
        <pt x="383" y="465" on="1"/>
        <pt x="140" y="298" on="1"/>
        <pt x="140" y="58" on="1"/>
        <pt x="540" y="58" on="1"/>
        <pt x="540" y="0" on="1"/>
        <pt x="72" y="0" on="1"/>
        <pt x="72" y="251" on="1"/>
        <pt x="-10" y="194" on="1"/>
        <pt x="-10" y="250" on="1"/>
        <pt x="72" y="306" on="1"/>
      </contour>
    </TTGlyph>
    <TTGlyph name="M" xMin="70" yMin="0" xMax="763" yMax="714">
      <contour>
        <pt x="70" y="714" on="1"/>
        <pt x="170" y="714" on="1"/>
        <pt x="417" y="88" on="1"/>
        <pt x="663" y="714" on="1"/>
        <pt x="763" y="714" on="1"/>
        <pt x="763" y="0" on="1"/>
        <pt x="695" y="0" on="1"/>
        <pt x="695" y="617" on="1"/>
        <pt x="693" y="617" on="1"/>
        <pt x="449" y="0" on="1"/>
        <pt x="385" y="0" on="1"/>
        <pt x="140" y="617" on="1"/>
        <pt x="138" y="617" on="1"/>
        <pt x="138" y="0" on="1"/>
        <pt x="70" y="0" on="1"/>
      </contour>
    </TTGlyph>
    <TTGlyph name="N" xMin="71" yMin="0" xMax="633" yMax="714">
      <contour>
        <pt x="71" y="714" on="1"/>
        <pt x="147" y="714" on="1"/>
        <pt x="563" y="110" on="1"/>
        <pt x="565" y="110" on="1"/>
        <pt x="565" y="714" on="1"/>
        <pt x="633" y="714" on="1"/>
        <pt x="633" y="0" on="1"/>
        <pt x="557" y="0" on="1"/>
        <pt x="141" y="604" on="1"/>
        <pt x="139" y="604" on="1"/>
        <pt x="139" y="0" on="1"/>
        <pt x="71" y="0" on="1"/>
      </contour>
    </TTGlyph>
    <TTGlyph name="Nacute" xMin="71" yMin="0" xMax="633" yMax="921">
      <component glyphName="N" x="0" y="0" flags="0x204"/>
      <component glyphName="acute" x="281" y="190" flags="0x4"/>
    </TTGlyph>
    <TTGlyph name="Ncaron" xMin="71" yMin="0" xMax="633" yMax="921">
      <component glyphName="N" x="0" y="0" flags="0x204"/>
      <component glyphName="caron" x="257" y="190" flags="0x4"/>
    </TTGlyph>
    <TTGlyph name="Ncommaaccent" xMin="71" yMin="-203" xMax="633" yMax="714">
      <component glyphName="N" x="0" y="0" flags="0x204"/>
      <component glyphName="commaaccent" x="206" y="0" flags="0x4"/>
    </TTGlyph>
    <TTGlyph name="Ntilde" xMin="71" yMin="0" xMax="633" yMax="900">
      <component glyphName="N" x="0" y="0" flags="0x204"/>
      <component glyphName="tilde" x="267" y="190" flags="0x4"/>
    </TTGlyph>
    <TTGlyph name="O" xMin="34" yMin="-15" xMax="707" yMax="729">
      <contour>
        <pt x="102" y="357" on="1"/>
        <pt x="102" y="298" on="0"/>
        <pt x="133" y="186" on="0"/>
        <pt x="198" y="97" on="0"/>
        <pt x="300" y="43" on="0"/>
        <pt x="371" y="43" on="1"/>
        <pt x="441" y="43" on="0"/>
        <pt x="543" y="97" on="0"/>
        <pt x="608" y="186" on="0"/>
        <pt x="639" y="298" on="0"/>
        <pt x="639" y="357" on="1"/>
        <pt x="639" y="415" on="0"/>
        <pt x="608" y="528" on="0"/>
        <pt x="543" y="617" on="0"/>
        <pt x="441" y="671" on="0"/>
        <pt x="371" y="671" on="1"/>
        <pt x="300" y="671" on="0"/>
        <pt x="198" y="617" on="0"/>
        <pt x="133" y="528" on="0"/>
        <pt x="102" y="415" on="0"/>
      </contour>
      <contour>
        <pt x="34" y="357" on="1"/>
        <pt x="34" y="430" on="0"/>
        <pt x="76" y="565" on="0"/>
        <pt x="160" y="668" on="0"/>
        <pt x="287" y="729" on="0"/>
        <pt x="371" y="729" on="1"/>
        <pt x="455" y="729" on="0"/>
        <pt x="581" y="668" on="0"/>
        <pt x="665" y="565" on="0"/>
        <pt x="707" y="430" on="0"/>
        <pt x="707" y="357" on="1"/>
        <pt x="707" y="284" on="0"/>
        <pt x="665" y="149" on="0"/>
        <pt x="581" y="46" on="0"/>
        <pt x="455" y="-15" on="0"/>
        <pt x="371" y="-15" on="1"/>
        <pt x="287" y="-15" on="0"/>
        <pt x="160" y="46" on="0"/>
        <pt x="76" y="149" on="0"/>
        <pt x="34" y="284" on="0"/>
      </contour>
    </TTGlyph>
    <TTGlyph name="OE" xMin="37" yMin="-15" xMax="1046" yMax="729">
      <contour>
        <pt x="637" y="398" on="1"/>
        <pt x="1005" y="398" on="1"/>
        <pt x="1005" y="340" on="1"/>
        <pt x="637" y="340" on="1"/>
        <pt x="637" y="58" on="1"/>
        <pt x="1046" y="58" on="1"/>
        <pt x="1046" y="0" on="1"/>
        <pt x="569" y="0" on="1"/>
        <pt x="569" y="70" on="1"/>
        <pt x="551" y="49" on="0"/>
        <pt x="506" y="17" on="0"/>
        <pt x="455" y="-4" on="0"/>
        <pt x="401" y="-15" on="0"/>
        <pt x="375" y="-15" on="1"/>
        <pt x="295" y="-15" on="0"/>
        <pt x="170" y="45" on="0"/>
        <pt x="83" y="147" on="0"/>
        <pt x="37" y="282" on="0"/>
        <pt x="37" y="357" on="1"/>
        <pt x="37" y="432" on="0"/>
        <pt x="83" y="567" on="0"/>
        <pt x="170" y="669" on="0"/>
        <pt x="295" y="729" on="0"/>
        <pt x="375" y="729" on="1"/>
        <pt x="432" y="729" on="0"/>
        <pt x="534" y="694" on="0"/>
        <pt x="569" y="655" on="1"/>
        <pt x="569" y="714" on="1"/>
        <pt x="1043" y="714" on="1"/>
        <pt x="1043" y="656" on="1"/>
        <pt x="637" y="656" on="1"/>
      </contour>
      <contour>
        <pt x="569" y="509" on="1"/>
        <pt x="569" y="533" on="0"/>
        <pt x="567" y="563" on="0"/>
        <pt x="564" y="575" on="1"/>
        <pt x="555" y="598" on="0"/>
        <pt x="513" y="634" on="0"/>
        <pt x="459" y="658" on="0"/>
        <pt x="400" y="671" on="0"/>
        <pt x="375" y="671" on="1"/>
        <pt x="310" y="671" on="0"/>
        <pt x="209" y="620" on="0"/>
        <pt x="140" y="534" on="0"/>
        <pt x="105" y="420" on="0"/>
        <pt x="105" y="357" on="1"/>
        <pt x="105" y="294" on="0"/>
        <pt x="140" y="180" on="0"/>
        <pt x="209" y="94" on="0"/>
        <pt x="310" y="43" on="0"/>
        <pt x="375" y="43" on="1"/>
        <pt x="430" y="43" on="0"/>
        <pt x="516" y="77" on="0"/>
        <pt x="551" y="122" on="1"/>
        <pt x="561" y="134" on="0"/>
        <pt x="568" y="162" on="0"/>
        <pt x="569" y="177" on="1"/>
      </contour>
    </TTGlyph>
    <TTGlyph name="Oacute" xMin="34" yMin="-15" xMax="707" yMax="921">
      <component glyphName="O" x="0" y="0" flags="0x204"/>
      <component glyphName="acute" x="312" y="190" flags="0x4"/>
    </TTGlyph>
    <TTGlyph name="Obreve" xMin="34" yMin="-15" xMax="707" yMax="914">
      <component glyphName="O" x="0" y="0" flags="0x204"/>
      <component glyphName="breve" x="280" y="190" flags="0x4"/>
    </TTGlyph>
    <TTGlyph name="Ocircumflex" xMin="34" yMin="-15" xMax="707" yMax="920">
      <component glyphName="O" x="0" y="0" flags="0x204"/>
      <component glyphName="circumflex" x="277" y="190" flags="0x4"/>
    </TTGlyph>
    <TTGlyph name="Odieresis" xMin="34" yMin="-15" xMax="707" yMax="901">
      <component glyphName="O" x="0" y="0" flags="0x204"/>
      <component glyphName="dieresis" x="276" y="190" flags="0x4"/>
    </TTGlyph>
    <TTGlyph name="Ograve" xMin="34" yMin="-15" xMax="707" yMax="919">
      <component glyphName="O" x="0" y="0" flags="0x204"/>
      <component glyphName="grave" x="270" y="190" flags="0x4"/>
    </TTGlyph>
    <TTGlyph name="Ohungarumlaut" xMin="34" yMin="-15" xMax="707" yMax="921">
      <component glyphName="O" x="0" y="0" flags="0x204"/>
      <component glyphName="hungarumlaut" x="296" y="190" flags="0x4"/>
    </TTGlyph>
    <TTGlyph name="Omacron" xMin="34" yMin="-15" xMax="707" yMax="873">
      <component glyphName="O" x="0" y="0" flags="0x204"/>
      <component glyphName="macron" x="280" y="190" flags="0x4"/>
    </TTGlyph>
    <TTGlyph name="Omega" xMin="47" yMin="0" xMax="688" yMax="721">
      <contour>
        <pt x="432" y="0" on="1"/>
        <pt x="432" y="183" on="1"/>
        <pt x="519" y="200" on="0"/>
        <pt x="608" y="323" on="0"/>
        <pt x="608" y="410" on="1"/>
        <pt x="608" y="462" on="0"/>
        <pt x="572" y="549" on="0"/>
        <pt x="508" y="613" on="0"/>
        <pt x="420" y="649" on="0"/>
        <pt x="368" y="649" on="1"/>
        <pt x="317" y="649" on="0"/>
        <pt x="228" y="613" on="0"/>
        <pt x="164" y="549" on="0"/>
        <pt x="127" y="461" on="0"/>
        <pt x="127" y="410" on="1"/>
        <pt x="127" y="368" on="0"/>
        <pt x="150" y="291" on="0"/>
        <pt x="194" y="231" on="0"/>
        <pt x="260" y="190" on="0"/>
        <pt x="304" y="183" on="1"/>
        <pt x="304" y="0" on="1"/>
        <pt x="47" y="0" on="1"/>
        <pt x="47" y="67" on="1"/>
        <pt x="240" y="67" on="1"/>
        <pt x="240" y="139" on="1"/>
        <pt x="193" y="152" on="0"/>
        <pt x="122" y="206" on="0"/>
        <pt x="72" y="278" on="0"/>
        <pt x="47" y="366" on="0"/>
        <pt x="47" y="413" on="1"/>
        <pt x="47" y="480" on="0"/>
        <pt x="98" y="594" on="0"/>
        <pt x="186" y="675" on="0"/>
        <pt x="302" y="721" on="0"/>
        <pt x="368" y="721" on="1"/>
        <pt x="434" y="721" on="0"/>
        <pt x="550" y="676" on="0"/>
        <pt x="637" y="595" on="0"/>
        <pt x="688" y="482" on="0"/>
        <pt x="688" y="415" on="1"/>
        <pt x="688" y="367" on="0"/>
        <pt x="663" y="279" on="0"/>
        <pt x="615" y="206" on="0"/>
        <pt x="543" y="152" on="0"/>
        <pt x="496" y="139" on="1"/>
        <pt x="496" y="67" on="1"/>
        <pt x="688" y="67" on="1"/>
        <pt x="688" y="0" on="1"/>
      </contour>
    </TTGlyph>
    <TTGlyph name="Oslash" xMin="34" yMin="-15" xMax="707" yMax="729">
      <contour>
        <pt x="698" y="696" on="1"/>
        <pt x="625" y="615" on="1"/>
        <pt x="667" y="564" on="0"/>
        <pt x="707" y="430" on="0"/>
        <pt x="707" y="357" on="1"/>
        <pt x="707" y="284" on="0"/>
        <pt x="665" y="149" on="0"/>
        <pt x="581" y="46" on="0"/>
        <pt x="455" y="-15" on="0"/>
        <pt x="371" y="-15" on="1"/>
        <pt x="296" y="-15" on="0"/>
        <pt x="182" y="32" on="0"/>
        <pt x="140" y="74" on="1"/>
        <pt x="64" y="-12" on="1"/>
        <pt x="37" y="13" on="1"/>
        <pt x="116" y="101" on="1"/>
        <pt x="74" y="153" on="0"/>
        <pt x="34" y="285" on="0"/>
        <pt x="34" y="357" on="1"/>
        <pt x="34" y="430" on="0"/>
        <pt x="76" y="565" on="0"/>
        <pt x="160" y="668" on="0"/>
        <pt x="287" y="729" on="0"/>
        <pt x="371" y="729" on="1"/>
        <pt x="445" y="729" on="0"/>
        <pt x="559" y="682" on="0"/>
        <pt x="601" y="641" on="1"/>
        <pt x="672" y="719" on="1"/>
      </contour>
      <contour>
        <pt x="558" y="593" on="1"/>
        <pt x="526" y="628" on="0"/>
        <pt x="433" y="671" on="0"/>
        <pt x="371" y="671" on="1"/>
        <pt x="300" y="671" on="0"/>
        <pt x="198" y="617" on="0"/>
        <pt x="133" y="528" on="0"/>
        <pt x="102" y="415" on="0"/>
        <pt x="102" y="357" on="1"/>
        <pt x="102" y="300" on="0"/>
        <pt x="130" y="193" on="0"/>
        <pt x="160" y="150" on="1"/>
      </contour>
      <contour>
        <pt x="183" y="122" on="1"/>
        <pt x="216" y="85" on="0"/>
        <pt x="309" y="43" on="0"/>
        <pt x="371" y="43" on="1"/>
        <pt x="441" y="43" on="0"/>
        <pt x="543" y="97" on="0"/>
        <pt x="608" y="186" on="0"/>
        <pt x="639" y="298" on="0"/>
        <pt x="639" y="357" on="1"/>
        <pt x="639" y="414" on="0"/>
        <pt x="611" y="522" on="0"/>
        <pt x="580" y="565" on="1"/>
      </contour>
    </TTGlyph>
    <TTGlyph name="Otilde" xMin="34" yMin="-15" xMax="707" yMax="900">
      <component glyphName="O" x="0" y="0" flags="0x204"/>
      <component glyphName="tilde" x="280" y="190" flags="0x4"/>
    </TTGlyph>
    <TTGlyph name="P" xMin="72" yMin="0" xMax="601" yMax="714">
      <contour>
        <pt x="140" y="364" on="1"/>
        <pt x="374" y="364" on="1"/>
        <pt x="445" y="364" on="0"/>
        <pt x="533" y="436" on="0"/>
        <pt x="533" y="510" on="1"/>
        <pt x="533" y="584" on="0"/>
        <pt x="445" y="656" on="0"/>
        <pt x="374" y="656" on="1"/>
        <pt x="140" y="656" on="1"/>
      </contour>
      <contour>
        <pt x="72" y="714" on="1"/>
        <pt x="389" y="714" on="1"/>
        <pt x="437" y="714" on="0"/>
        <pt x="515" y="687" on="0"/>
        <pt x="571" y="634" on="0"/>
        <pt x="601" y="558" on="0"/>
        <pt x="601" y="510" on="1"/>
        <pt x="601" y="462" on="0"/>
        <pt x="571" y="386" on="0"/>
        <pt x="515" y="333" on="0"/>
        <pt x="437" y="306" on="0"/>
        <pt x="389" y="306" on="1"/>
        <pt x="140" y="306" on="1"/>
        <pt x="140" y="0" on="1"/>
        <pt x="72" y="0" on="1"/>
      </contour>
    </TTGlyph>
    <TTGlyph name="Q" xMin="34" yMin="-46" xMax="707" yMax="729">
      <contour>
        <pt x="667" y="-46" on="1"/>
        <pt x="556" y="38" on="1"/>
        <pt x="519" y="12" on="0"/>
        <pt x="427" y="-15" on="0"/>
        <pt x="371" y="-15" on="1"/>
        <pt x="287" y="-15" on="0"/>
        <pt x="160" y="46" on="0"/>
        <pt x="76" y="149" on="0"/>
        <pt x="34" y="284" on="0"/>
        <pt x="34" y="357" on="1"/>
        <pt x="34" y="430" on="0"/>
        <pt x="76" y="565" on="0"/>
        <pt x="160" y="668" on="0"/>
        <pt x="287" y="729" on="0"/>
        <pt x="371" y="729" on="1"/>
        <pt x="455" y="729" on="0"/>
        <pt x="581" y="668" on="0"/>
        <pt x="665" y="565" on="0"/>
        <pt x="707" y="430" on="0"/>
        <pt x="707" y="357" on="1"/>
        <pt x="707" y="274" on="0"/>
        <pt x="653" y="126" on="0"/>
        <pt x="599" y="74" on="1"/>
        <pt x="701" y="-4" on="1"/>
      </contour>
      <contour>
        <pt x="548" y="113" on="1"/>
        <pt x="596" y="158" on="0"/>
        <pt x="639" y="288" on="0"/>
        <pt x="639" y="357" on="1"/>
        <pt x="639" y="415" on="0"/>
        <pt x="608" y="528" on="0"/>
        <pt x="543" y="617" on="0"/>
        <pt x="441" y="671" on="0"/>
        <pt x="371" y="671" on="1"/>
        <pt x="300" y="671" on="0"/>
        <pt x="198" y="617" on="0"/>
        <pt x="133" y="528" on="0"/>
        <pt x="102" y="415" on="0"/>
        <pt x="102" y="357" on="1"/>
        <pt x="102" y="298" on="0"/>
        <pt x="133" y="186" on="0"/>
        <pt x="198" y="97" on="0"/>
        <pt x="300" y="43" on="0"/>
        <pt x="371" y="43" on="1"/>
        <pt x="448" y="43" on="0"/>
        <pt x="503" y="78" on="1"/>
        <pt x="409" y="149" on="1"/>
        <pt x="444" y="192" on="1"/>
      </contour>
    </TTGlyph>
    <TTGlyph name="R" xMin="72" yMin="0" xMax="635" yMax="714">
      <contour>
        <pt x="140" y="375" on="1"/>
        <pt x="394" y="375" on="1"/>
        <pt x="425" y="375" on="0"/>
        <pt x="481" y="394" on="0"/>
        <pt x="523" y="430" on="0"/>
        <pt x="548" y="481" on="0"/>
        <pt x="548" y="514" on="1"/>
        <pt x="548" y="580" on="0"/>
        <pt x="471" y="656" on="0"/>
        <pt x="394" y="656" on="1"/>
        <pt x="140" y="656" on="1"/>
      </contour>
      <contour>
        <pt x="72" y="714" on="1"/>
        <pt x="399" y="714" on="1"/>
        <pt x="443" y="714" on="0"/>
        <pt x="522" y="692" on="0"/>
        <pt x="581" y="647" on="0"/>
        <pt x="616" y="576" on="0"/>
        <pt x="616" y="528" on="1"/>
        <pt x="616" y="460" on="0"/>
        <pt x="546" y="360" on="0"/>
        <pt x="477" y="346" on="1"/>
        <pt x="477" y="344" on="1"/>
        <pt x="512" y="339" on="0"/>
        <pt x="558" y="312" on="0"/>
        <pt x="587" y="270" on="0"/>
        <pt x="600" y="215" on="0"/>
        <pt x="602" y="183" on="1"/>
        <pt x="603" y="165" on="0"/>
        <pt x="605" y="113" on="0"/>
        <pt x="611" y="60" on="0"/>
        <pt x="624" y="13" on="0"/>
        <pt x="635" y="0" on="1"/>
        <pt x="560" y="0" on="1"/>
        <pt x="554" y="10" on="0"/>
        <pt x="547" y="39" on="0"/>
        <pt x="543" y="70" on="0"/>
        <pt x="542" y="100" on="0"/>
        <pt x="541" y="111" on="1"/>
        <pt x="539" y="148" on="0"/>
        <pt x="530" y="224" on="0"/>
        <pt x="501" y="283" on="0"/>
        <pt x="446" y="319" on="0"/>
        <pt x="398" y="317" on="1"/>
        <pt x="140" y="317" on="1"/>
        <pt x="140" y="0" on="1"/>
        <pt x="72" y="0" on="1"/>
      </contour>
    </TTGlyph>
    <TTGlyph name="Racute" xMin="72" yMin="0" xMax="635" yMax="921">
      <component glyphName="R" x="0" y="0" flags="0x204"/>
      <component glyphName="acute" x="252" y="190" flags="0x4"/>
    </TTGlyph>
    <TTGlyph name="Rcaron" xMin="72" yMin="0" xMax="635" yMax="921">
      <component glyphName="R" x="0" y="0" flags="0x204"/>
      <component glyphName="caron" x="221" y="190" flags="0x4"/>
    </TTGlyph>
    <TTGlyph name="Rcommaaccent" xMin="72" yMin="-203" xMax="635" yMax="714">
      <component glyphName="R" x="0" y="0" flags="0x204"/>
      <component glyphName="commaaccent" x="197" y="0" flags="0x4"/>
    </TTGlyph>
    <TTGlyph name="S" xMin="33" yMin="-15" xMax="594" yMax="729">
      <contour>
        <pt x="104" y="235" on="1"/>
        <pt x="103" y="180" on="0"/>
        <pt x="139" y="106" on="0"/>
        <pt x="202" y="62" on="0"/>
        <pt x="288" y="43" on="0"/>
        <pt x="337" y="43" on="1"/>
        <pt x="365" y="43" on="0"/>
        <pt x="431" y="59" on="0"/>
        <pt x="488" y="94" on="0"/>
        <pt x="526" y="149" on="0"/>
        <pt x="526" y="188" on="1"/>
        <pt x="526" y="218" on="0"/>
        <pt x="499" y="262" on="0"/>
        <pt x="456" y="292" on="0"/>
        <pt x="404" y="311" on="0"/>
        <pt x="379" y="317" on="1"/>
        <pt x="220" y="356" on="1"/>
        <pt x="188" y="364" on="0"/>
        <pt x="130" y="388" on="0"/>
        <pt x="86" y="428" on="0"/>
        <pt x="59" y="486" on="0"/>
        <pt x="59" y="528" on="1"/>
        <pt x="59" y="554" on="0"/>
        <pt x="79" y="624" on="0"/>
        <pt x="134" y="686" on="0"/>
        <pt x="230" y="729" on="0"/>
        <pt x="305" y="729" on="1"/>
        <pt x="358" y="729" on="0"/>
        <pt x="454" y="701" on="0"/>
        <pt x="527" y="645" on="0"/>
        <pt x="569" y="562" on="0"/>
        <pt x="569" y="507" on="1"/>
        <pt x="501" y="507" on="1"/>
        <pt x="499" y="548" on="0"/>
        <pt x="467" y="609" on="0"/>
        <pt x="413" y="650" on="0"/>
        <pt x="344" y="671" on="0"/>
        <pt x="306" y="671" on="1"/>
        <pt x="271" y="671" on="0"/>
        <pt x="206" y="656" on="0"/>
        <pt x="157" y="623" on="0"/>
        <pt x="127" y="569" on="0"/>
        <pt x="127" y="529" on="1"/>
        <pt x="127" y="504" on="0"/>
        <pt x="144" y="467" on="0"/>
        <pt x="174" y="442" on="0"/>
        <pt x="213" y="425" on="0"/>
        <pt x="235" y="420" on="1"/>
        <pt x="409" y="377" on="1"/>
        <pt x="447" y="367" on="0"/>
        <pt x="514" y="338" on="0"/>
        <pt x="565" y="295" on="0"/>
        <pt x="594" y="233" on="0"/>
        <pt x="594" y="189" on="1"/>
        <pt x="594" y="177" on="0"/>
        <pt x="589" y="137" on="0"/>
        <pt x="570" y="92" on="0"/>
        <pt x="535" y="46" on="0"/>
        <pt x="474" y="8" on="0"/>
        <pt x="384" y="-15" on="0"/>
        <pt x="321" y="-15" on="1"/>
        <pt x="258" y="-15" on="0"/>
        <pt x="150" y="14" on="0"/>
        <pt x="74" y="75" on="0"/>
        <pt x="33" y="170" on="0"/>
        <pt x="36" y="235" on="1"/>
      </contour>
    </TTGlyph>
    <TTGlyph name="Sacute" xMin="33" yMin="-15" xMax="594" yMax="921">
      <component glyphName="S" x="0" y="0" flags="0x204"/>
      <component glyphName="acute" x="244" y="190" flags="0x4"/>
    </TTGlyph>
    <TTGlyph name="Scaron" xMin="33" yMin="-15" xMax="594" yMax="921">
      <component glyphName="S" x="0" y="0" flags="0x204"/>
      <component glyphName="caron" x="227" y="190" flags="0x4"/>
    </TTGlyph>
    <TTGlyph name="Scedilla" xMin="33" yMin="-203" xMax="594" yMax="729">
      <contour>
        <pt x="104" y="235" on="1"/>
        <pt x="103" y="180" on="0"/>
        <pt x="139" y="106" on="0"/>
        <pt x="202" y="62" on="0"/>
        <pt x="288" y="43" on="0"/>
        <pt x="337" y="43" on="1"/>
        <pt x="365" y="43" on="0"/>
        <pt x="431" y="59" on="0"/>
        <pt x="488" y="94" on="0"/>
        <pt x="526" y="149" on="0"/>
        <pt x="526" y="188" on="1"/>
        <pt x="526" y="218" on="0"/>
        <pt x="499" y="262" on="0"/>
        <pt x="456" y="292" on="0"/>
        <pt x="404" y="311" on="0"/>
        <pt x="379" y="317" on="1"/>
        <pt x="220" y="356" on="1"/>
        <pt x="188" y="364" on="0"/>
        <pt x="130" y="388" on="0"/>
        <pt x="86" y="428" on="0"/>
        <pt x="59" y="486" on="0"/>
        <pt x="59" y="528" on="1"/>
        <pt x="59" y="554" on="0"/>
        <pt x="79" y="624" on="0"/>
        <pt x="134" y="686" on="0"/>
        <pt x="230" y="729" on="0"/>
        <pt x="305" y="729" on="1"/>
        <pt x="358" y="729" on="0"/>
        <pt x="454" y="701" on="0"/>
        <pt x="527" y="645" on="0"/>
        <pt x="569" y="562" on="0"/>
        <pt x="569" y="507" on="1"/>
        <pt x="501" y="507" on="1"/>
        <pt x="499" y="548" on="0"/>
        <pt x="467" y="609" on="0"/>
        <pt x="413" y="650" on="0"/>
        <pt x="344" y="671" on="0"/>
        <pt x="306" y="671" on="1"/>
        <pt x="271" y="671" on="0"/>
        <pt x="206" y="656" on="0"/>
        <pt x="157" y="623" on="0"/>
        <pt x="127" y="569" on="0"/>
        <pt x="127" y="529" on="1"/>
        <pt x="127" y="504" on="0"/>
        <pt x="144" y="467" on="0"/>
        <pt x="174" y="442" on="0"/>
        <pt x="213" y="425" on="0"/>
        <pt x="235" y="420" on="1"/>
        <pt x="409" y="377" on="1"/>
        <pt x="447" y="367" on="0"/>
        <pt x="514" y="338" on="0"/>
        <pt x="565" y="295" on="0"/>
        <pt x="594" y="233" on="0"/>
        <pt x="594" y="189" on="1"/>
        <pt x="594" y="177" on="0"/>
        <pt x="589" y="137" on="0"/>
        <pt x="570" y="92" on="0"/>
        <pt x="535" y="46" on="0"/>
        <pt x="474" y="8" on="0"/>
        <pt x="429" y="-3" on="1"/>
        <pt x="385" y="-14" on="0"/>
        <pt x="324" y="-15" on="1"/>
        <pt x="292" y="-54" on="1"/>
        <pt x="306" y="-51" on="0"/>
        <pt x="329" y="-50" on="0"/>
        <pt x="355" y="-53" on="0"/>
        <pt x="385" y="-66" on="0"/>
        <pt x="408" y="-94" on="0"/>
        <pt x="408" y="-117" on="1"/>
        <pt x="408" y="-140" on="0"/>
        <pt x="388" y="-172" on="0"/>
        <pt x="356" y="-193" on="0"/>
        <pt x="317" y="-203" on="0"/>
        <pt x="298" y="-203" on="1"/>
        <pt x="274" y="-203" on="0"/>
        <pt x="226" y="-193" on="0"/>
        <pt x="204" y="-182" on="1"/>
        <pt x="218" y="-150" on="1"/>
        <pt x="231" y="-155" on="0"/>
        <pt x="275" y="-164" on="0"/>
        <pt x="297" y="-164" on="1"/>
        <pt x="318" y="-164" on="0"/>
        <pt x="350" y="-144" on="0"/>
        <pt x="350" y="-121" on="1"/>
        <pt x="350" y="-103" on="0"/>
        <pt x="324" y="-83" on="0"/>
        <pt x="307" y="-83" on="1"/>
        <pt x="272" y="-83" on="0"/>
        <pt x="256" y="-91" on="1"/>
        <pt x="240" y="-76" on="1"/>
        <pt x="289" y="-14" on="1"/>
        <pt x="244" y="-11" on="0"/>
        <pt x="204" y="0" on="1"/>
        <pt x="150" y="14" on="0"/>
        <pt x="74" y="75" on="0"/>
        <pt x="33" y="170" on="0"/>
        <pt x="36" y="235" on="1"/>
      </contour>
    </TTGlyph>
    <TTGlyph name="Scircumflex" xMin="33" yMin="-15" xMax="594" yMax="920">
      <component glyphName="S" x="0" y="0" flags="0x204"/>
      <component glyphName="circumflex" x="222" y="190" flags="0x4"/>
    </TTGlyph>
    <TTGlyph name="Scommaaccent" xMin="33" yMin="-203" xMax="594" yMax="729">
      <component glyphName="S" x="0" y="0" flags="0x204"/>
      <component glyphName="commaaccent" x="178" y="0" flags="0x4"/>
    </TTGlyph>
    <TTGlyph name="T" xMin="-5" yMin="0" xMax="561" yMax="714">
      <contour>
        <pt x="-5" y="714" on="1"/>
        <pt x="561" y="714" on="1"/>
        <pt x="561" y="656" on="1"/>
        <pt x="312" y="656" on="1"/>
        <pt x="312" y="0" on="1"/>
        <pt x="244" y="0" on="1"/>
        <pt x="244" y="656" on="1"/>
        <pt x="-5" y="656" on="1"/>
      </contour>
    </TTGlyph>
    <TTGlyph name="Tbar" xMin="-5" yMin="0" xMax="561" yMax="714">
      <contour>
        <pt x="-5" y="714" on="1"/>
        <pt x="561" y="714" on="1"/>
        <pt x="561" y="656" on="1"/>
        <pt x="312" y="656" on="1"/>
        <pt x="312" y="486" on="1"/>
        <pt x="477" y="486" on="1"/>
        <pt x="477" y="441" on="1"/>
        <pt x="312" y="441" on="1"/>
        <pt x="312" y="0" on="1"/>
        <pt x="244" y="0" on="1"/>
        <pt x="244" y="441" on="1"/>
        <pt x="80" y="441" on="1"/>
        <pt x="80" y="486" on="1"/>
        <pt x="244" y="486" on="1"/>
        <pt x="244" y="656" on="1"/>
        <pt x="-5" y="656" on="1"/>
      </contour>
    </TTGlyph>
    <TTGlyph name="Tcaron" xMin="-5" yMin="0" xMax="561" yMax="921">
      <component glyphName="T" x="0" y="0" flags="0x204"/>
      <component glyphName="caron" x="191" y="190" flags="0x4"/>
    </TTGlyph>
    <TTGlyph name="Tcommaaccent" xMin="-5" yMin="-203" xMax="561" yMax="714">
      <component glyphName="T" x="0" y="0" flags="0x204"/>
      <component glyphName="commaaccent" x="138" y="0" flags="0x4"/>
    </TTGlyph>
    <TTGlyph name="Thorn" xMin="72" yMin="0" xMax="601" yMax="714">
      <contour>
        <pt x="140" y="247" on="1"/>
        <pt x="374" y="247" on="1"/>
        <pt x="445" y="247" on="0"/>
        <pt x="533" y="319" on="0"/>
        <pt x="533" y="393" on="1"/>
        <pt x="533" y="467" on="0"/>
        <pt x="445" y="539" on="0"/>
        <pt x="374" y="539" on="1"/>
        <pt x="140" y="539" on="1"/>
      </contour>
      <contour>
        <pt x="72" y="714" on="1"/>
        <pt x="140" y="714" on="1"/>
        <pt x="140" y="597" on="1"/>
        <pt x="389" y="597" on="1"/>
        <pt x="437" y="597" on="0"/>
        <pt x="515" y="570" on="0"/>
        <pt x="571" y="517" on="0"/>
        <pt x="601" y="441" on="0"/>
        <pt x="601" y="393" on="1"/>
        <pt x="601" y="345" on="0"/>
        <pt x="571" y="269" on="0"/>
        <pt x="515" y="216" on="0"/>
        <pt x="437" y="189" on="0"/>
        <pt x="389" y="189" on="1"/>
        <pt x="140" y="189" on="1"/>
        <pt x="140" y="0" on="1"/>
        <pt x="72" y="0" on="1"/>
      </contour>
    </TTGlyph>
    <TTGlyph name="U" xMin="65" yMin="-15" xMax="620" yMax="714">
      <contour>
        <pt x="65" y="714" on="1"/>
        <pt x="133" y="714" on="1"/>
        <pt x="133" y="272" on="1"/>
        <pt x="133" y="210" on="0"/>
        <pt x="161" y="123" on="0"/>
        <pt x="215" y="68" on="0"/>
        <pt x="293" y="43" on="0"/>
        <pt x="342" y="43" on="1"/>
        <pt x="391" y="43" on="0"/>
        <pt x="470" y="68" on="0"/>
        <pt x="524" y="123" on="0"/>
        <pt x="552" y="210" on="0"/>
        <pt x="552" y="272" on="1"/>
        <pt x="552" y="714" on="1"/>
        <pt x="620" y="714" on="1"/>
        <pt x="620" y="257" on="1"/>
        <pt x="620" y="202" on="0"/>
        <pt x="589" y="103" on="0"/>
        <pt x="522" y="29" on="0"/>
        <pt x="417" y="-15" on="0"/>
        <pt x="342" y="-15" on="1"/>
        <pt x="268" y="-15" on="0"/>
        <pt x="163" y="29" on="0"/>
        <pt x="96" y="103" on="0"/>
        <pt x="65" y="202" on="0"/>
        <pt x="65" y="257" on="1"/>
      </contour>
    </TTGlyph>
    <TTGlyph name="Uacute" xMin="65" yMin="-15" xMax="620" yMax="921">
      <component glyphName="U" x="0" y="0" flags="0x204"/>
      <component glyphName="acute" x="281" y="190" flags="0x4"/>
    </TTGlyph>
    <TTGlyph name="Ubreve" xMin="65" yMin="-15" xMax="620" yMax="914">
      <component glyphName="U" x="0" y="0" flags="0x204"/>
      <component glyphName="breve" x="248" y="190" flags="0x4"/>
    </TTGlyph>
    <TTGlyph name="Ucircumflex" xMin="65" yMin="-15" xMax="620" yMax="920">
      <component glyphName="U" x="0" y="0" flags="0x204"/>
      <component glyphName="circumflex" x="247" y="190" flags="0x4"/>
    </TTGlyph>
    <TTGlyph name="Udieresis" xMin="65" yMin="-15" xMax="620" yMax="901">
      <component glyphName="U" x="0" y="0" flags="0x204"/>
      <component glyphName="dieresis" x="250" y="190" flags="0x4"/>
    </TTGlyph>
    <TTGlyph name="Ugrave" xMin="65" yMin="-15" xMax="620" yMax="919">
      <component glyphName="U" x="0" y="0" flags="0x204"/>
      <component glyphName="grave" x="245" y="190" flags="0x4"/>
    </TTGlyph>
    <TTGlyph name="Uhungarumlaut" xMin="65" yMin="-15" xMax="620" yMax="921">
      <component glyphName="U" x="0" y="0" flags="0x204"/>
      <component glyphName="hungarumlaut" x="264" y="190" flags="0x4"/>
    </TTGlyph>
    <TTGlyph name="Umacron" xMin="65" yMin="-15" xMax="620" yMax="873">
      <component glyphName="U" x="0" y="0" flags="0x204"/>
      <component glyphName="macron" x="248" y="190" flags="0x4"/>
    </TTGlyph>
    <TTGlyph name="Uogonek" xMin="65" yMin="-203" xMax="620" yMax="714">
      <contour>
        <pt x="65" y="714" on="1"/>
        <pt x="133" y="714" on="1"/>
        <pt x="133" y="272" on="1"/>
        <pt x="133" y="210" on="0"/>
        <pt x="161" y="123" on="0"/>
        <pt x="215" y="68" on="0"/>
        <pt x="293" y="43" on="0"/>
        <pt x="342" y="43" on="1"/>
        <pt x="391" y="43" on="0"/>
        <pt x="470" y="68" on="0"/>
        <pt x="524" y="123" on="0"/>
        <pt x="552" y="210" on="0"/>
        <pt x="552" y="272" on="1"/>
        <pt x="552" y="714" on="1"/>
        <pt x="620" y="714" on="1"/>
        <pt x="620" y="257" on="1"/>
        <pt x="620" y="202" on="0"/>
        <pt x="589" y="103" on="0"/>
        <pt x="522" y="29" on="0"/>
        <pt x="469" y="7" on="1"/>
        <pt x="428" y="-10" on="0"/>
        <pt x="372" y="-14" on="1"/>
        <pt x="357" y="-28" on="0"/>
        <pt x="345" y="-39" on="1"/>
        <pt x="328" y="-57" on="0"/>
        <pt x="312" y="-85" on="0"/>
        <pt x="308" y="-104" on="0"/>
        <pt x="308" y="-117" on="1"/>
        <pt x="308" y="-141" on="0"/>
        <pt x="335" y="-164" on="0"/>
        <pt x="352" y="-164" on="1"/>
        <pt x="371" y="-164" on="0"/>
        <pt x="399" y="-139" on="0"/>
        <pt x="407" y="-123" on="1"/>
        <pt x="436" y="-136" on="1"/>
        <pt x="419" y="-174" on="0"/>
        <pt x="370" y="-203" on="0"/>
        <pt x="338" y="-203" on="1"/>
        <pt x="294" y="-203" on="0"/>
        <pt x="247" y="-157" on="0"/>
        <pt x="247" y="-121" on="1"/>
        <pt x="247" y="-113" on="0"/>
        <pt x="253" y="-90" on="0"/>
        <pt x="271" y="-63" on="0"/>
        <pt x="292" y="-43" on="1"/>
        <pt x="306" y="-30" on="0"/>
        <pt x="328" y="-15" on="1"/>
        <pt x="263" y="-13" on="0"/>
        <pt x="215" y="7" on="1"/>
        <pt x="163" y="29" on="0"/>
        <pt x="96" y="103" on="0"/>
        <pt x="65" y="202" on="0"/>
        <pt x="65" y="257" on="1"/>
      </contour>
    </TTGlyph>
    <TTGlyph name="Uring" xMin="65" yMin="-15" xMax="620" yMax="967">
      <component glyphName="U" x="0" y="0" flags="0x204"/>
      <component glyphName="ring" x="247" y="180" flags="0x4"/>
    </TTGlyph>
    <TTGlyph name="Utilde" xMin="65" yMin="-15" xMax="620" yMax="900">
      <component glyphName="U" x="0" y="0" flags="0x204"/>
      <component glyphName="tilde" x="250" y="190" flags="0x4"/>
    </TTGlyph>
    <TTGlyph name="V" xMin="-7" yMin="0" xMax="602" yMax="714">
      <contour>
        <pt x="-7" y="714" on="1"/>
        <pt x="66" y="714" on="1"/>
        <pt x="298" y="75" on="1"/>
        <pt x="300" y="75" on="1"/>
        <pt x="530" y="714" on="1"/>
        <pt x="602" y="714" on="1"/>
        <pt x="337" y="0" on="1"/>
        <pt x="258" y="0" on="1"/>
      </contour>
    </TTGlyph>
    <TTGlyph name="W" xMin="0" yMin="0" xMax="904" yMax="714">
      <contour>
        <pt x="0" y="714" on="1"/>
        <pt x="73" y="714" on="1"/>
        <pt x="235" y="89" on="1"/>
        <pt x="237" y="89" on="1"/>
        <pt x="411" y="714" on="1"/>
        <pt x="496" y="714" on="1"/>
        <pt x="671" y="89" on="1"/>
        <pt x="673" y="89" on="1"/>
        <pt x="836" y="714" on="1"/>
        <pt x="904" y="714" on="1"/>
        <pt x="707" y="0" on="1"/>
        <pt x="635" y="0" on="1"/>
        <pt x="454" y="639" on="1"/>
        <pt x="452" y="639" on="1"/>
        <pt x="272" y="0" on="1"/>
        <pt x="198" y="0" on="1"/>
      </contour>
    </TTGlyph>
    <TTGlyph name="Wcircumflex" xMin="0" yMin="0" xMax="904" yMax="920">
      <component glyphName="W" x="0" y="0" flags="0x204"/>
      <component glyphName="circumflex" x="359" y="190" flags="0x4"/>
    </TTGlyph>
    <TTGlyph name="X" xMin="-12" yMin="0" xMax="584" yMax="714">
      <contour>
        <pt x="3" y="714" on="1"/>
        <pt x="83" y="714" on="1"/>
        <pt x="285" y="415" on="1"/>
        <pt x="494" y="714" on="1"/>
        <pt x="570" y="714" on="1"/>
        <pt x="326" y="366" on="1"/>
        <pt x="584" y="0" on="1"/>
        <pt x="502" y="0" on="1"/>
        <pt x="285" y="315" on="1"/>
        <pt x="65" y="0" on="1"/>
        <pt x="-12" y="0" on="1"/>
        <pt x="245" y="368" on="1"/>
      </contour>
    </TTGlyph>
    <TTGlyph name="Y" xMin="-10" yMin="0" xMax="621" yMax="714">
      <contour>
        <pt x="271" y="294" on="1"/>
        <pt x="-10" y="714" on="1"/>
        <pt x="71" y="714" on="1"/>
        <pt x="306" y="352" on="1"/>
        <pt x="540" y="714" on="1"/>
        <pt x="621" y="714" on="1"/>
        <pt x="339" y="294" on="1"/>
        <pt x="339" y="0" on="1"/>
        <pt x="271" y="0" on="1"/>
      </contour>
    </TTGlyph>
    <TTGlyph name="Yacute" xMin="-10" yMin="0" xMax="621" yMax="921">
      <component glyphName="Y" x="0" y="0" flags="0x204"/>
      <component glyphName="acute" x="245" y="190" flags="0x4"/>
    </TTGlyph>
    <TTGlyph name="Ycircumflex" xMin="-10" yMin="0" xMax="621" yMax="920">
      <component glyphName="Y" x="0" y="0" flags="0x204"/>
      <component glyphName="circumflex" x="215" y="190" flags="0x4"/>
    </TTGlyph>
    <TTGlyph name="Ydieresis" xMin="-10" yMin="0" xMax="621" yMax="901">
      <component glyphName="Y" x="0" y="0" flags="0x204"/>
      <component glyphName="dieresis" x="213" y="190" flags="0x4"/>
    </TTGlyph>
    <TTGlyph name="Z" xMin="5" yMin="0" xMax="561" yMax="714">
      <contour>
        <pt x="37" y="714" on="1"/>
        <pt x="551" y="714" on="1"/>
        <pt x="551" y="654" on="1"/>
        <pt x="81" y="58" on="1"/>
        <pt x="561" y="58" on="1"/>
        <pt x="561" y="0" on="1"/>
        <pt x="5" y="0" on="1"/>
        <pt x="5" y="60" on="1"/>
        <pt x="475" y="656" on="1"/>
        <pt x="37" y="656" on="1"/>
      </contour>
    </TTGlyph>
    <TTGlyph name="Zacute" xMin="5" yMin="0" xMax="561" yMax="921">
      <component glyphName="Z" x="0" y="0" flags="0x204"/>
      <component glyphName="acute" x="222" y="190" flags="0x4"/>
    </TTGlyph>
    <TTGlyph name="Zcaron" xMin="5" yMin="0" xMax="561" yMax="921">
      <component glyphName="Z" x="0" y="0" flags="0x204"/>
      <component glyphName="caron" x="198" y="190" flags="0x4"/>
    </TTGlyph>
    <TTGlyph name="Zdotaccent" xMin="5" yMin="0" xMax="561" yMax="901">
      <component glyphName="Z" x="0" y="0" flags="0x204"/>
      <component glyphName="dotaccent" x="200" y="190" flags="0x4"/>
    </TTGlyph>
    <TTGlyph name="a" xMin="32" yMin="-15" xMax="510" yMax="531">
      <contour>
        <pt x="54" y="358" on="1"/>
        <pt x="59" y="449" on="0"/>
        <pt x="174" y="531" on="0"/>
        <pt x="263" y="531" on="1"/>
        <pt x="297" y="531" on="0"/>
        <pt x="365" y="518" on="0"/>
        <pt x="419" y="482" on="0"/>
        <pt x="453" y="417" on="0"/>
        <pt x="453" y="365" on="1"/>
        <pt x="453" y="91" on="1"/>
        <pt x="453" y="53" on="0"/>
        <pt x="490" y="53" on="1"/>
        <pt x="500" y="53" on="0"/>
        <pt x="510" y="57" on="1"/>
        <pt x="510" y="4" on="1"/>
        <pt x="499" y="2" on="0"/>
        <pt x="482" y="0" on="0"/>
        <pt x="469" y="0" on="1"/>
        <pt x="445" y="0" on="0"/>
        <pt x="416" y="13" on="0"/>
        <pt x="400" y="37" on="0"/>
        <pt x="395" y="70" on="0"/>
        <pt x="395" y="90" on="1"/>
        <pt x="393" y="90" on="1"/>
        <pt x="376" y="65" on="0"/>
        <pt x="341" y="26" on="0"/>
        <pt x="298" y="-1" on="0"/>
        <pt x="242" y="-15" on="0"/>
        <pt x="205" y="-15" on="1"/>
        <pt x="169" y="-15" on="0"/>
        <pt x="106" y="3" on="0"/>
        <pt x="59" y="40" on="0"/>
        <pt x="32" y="97" on="0"/>
        <pt x="32" y="136" on="1"/>
        <pt x="32" y="190" on="0"/>
        <pt x="80" y="251" on="0"/>
        <pt x="159" y="283" on="0"/>
        <pt x="258" y="296" on="0"/>
        <pt x="309" y="302" on="1"/>
        <pt x="328" y="304" on="0"/>
        <pt x="359" y="311" on="0"/>
        <pt x="379" y="325" on="0"/>
        <pt x="390" y="351" on="0"/>
        <pt x="390" y="372" on="1"/>
        <pt x="390" y="404" on="0"/>
        <pt x="369" y="445" on="0"/>
        <pt x="332" y="469" on="0"/>
        <pt x="283" y="478" on="0"/>
        <pt x="255" y="478" on="1"/>
        <pt x="196" y="478" on="0"/>
        <pt x="119" y="421" on="0"/>
        <pt x="117" y="358" on="1"/>
      </contour>
      <contour>
        <pt x="390" y="282" on="1"/>
        <pt x="388" y="282" on="1"/>
        <pt x="382" y="271" on="0"/>
        <pt x="348" y="261" on="0"/>
        <pt x="335" y="259" on="1"/>
        <pt x="295" y="252" on="0"/>
        <pt x="210" y="241" on="0"/>
        <pt x="140" y="219" on="0"/>
        <pt x="95" y="178" on="0"/>
        <pt x="95" y="140" on="1"/>
        <pt x="95" y="116" on="0"/>
        <pt x="114" y="79" on="0"/>
        <pt x="146" y="52" on="0"/>
        <pt x="188" y="38" on="0"/>
        <pt x="210" y="38" on="1"/>
        <pt x="246" y="38" on="0"/>
        <pt x="312" y="60" on="0"/>
        <pt x="361" y="102" on="0"/>
        <pt x="390" y="162" on="0"/>
        <pt x="390" y="200" on="1"/>
      </contour>
    </TTGlyph>
    <TTGlyph name="aacute" xMin="32" yMin="-15" xMax="510" yMax="731">
      <component glyphName="a" x="0" y="0" flags="0x204"/>
      <component glyphName="acute" x="194" y="0" flags="0x4"/>
    </TTGlyph>
    <TTGlyph name="abreve" xMin="32" yMin="-15" xMax="510" yMax="724">
      <component glyphName="a" x="0" y="0" flags="0x204"/>
      <component glyphName="breve" x="169" y="0" flags="0x4"/>
    </TTGlyph>
    <TTGlyph name="acircumflex" xMin="32" yMin="-15" xMax="510" yMax="730">
      <component glyphName="a" x="0" y="0" flags="0x204"/>
      <component glyphName="circumflex" x="164" y="0" flags="0x4"/>
    </TTGlyph>
    <TTGlyph name="acute" xMin="33" yMin="590" xMax="216" yMax="731">
      <contour>
        <pt x="84" y="590" on="1"/>
        <pt x="33" y="590" on="1"/>
        <pt x="138" y="731" on="1"/>
        <pt x="216" y="731" on="1"/>
      </contour>
    </TTGlyph>
    <TTGlyph name="acute.cap" xMin="33" yMin="778" xMax="216" yMax="919">
      <contour>
        <pt x="84" y="778" on="1"/>
        <pt x="33" y="778" on="1"/>
        <pt x="138" y="919" on="1"/>
        <pt x="216" y="919" on="1"/>
      </contour>
    </TTGlyph>
    <TTGlyph name="adieresis" xMin="32" yMin="-15" xMax="510" yMax="711">
      <component glyphName="a" x="0" y="0" flags="0x204"/>
      <component glyphName="dieresis" x="166" y="0" flags="0x4"/>
    </TTGlyph>
    <TTGlyph name="ae" xMin="32" yMin="-15" xMax="841" yMax="531">
      <contour>
        <pt x="453" y="241" on="1"/>
        <pt x="450" y="200" on="0"/>
        <pt x="468" y="126" on="0"/>
        <pt x="510" y="70" on="0"/>
        <pt x="576" y="38" on="0"/>
        <pt x="621" y="38" on="1"/>
        <pt x="685" y="38" on="0"/>
        <pt x="760" y="106" on="0"/>
        <pt x="774" y="167" on="1"/>
        <pt x="837" y="167" on="1"/>
        <pt x="817" y="80" on="0"/>
        <pt x="702" y="-15" on="0"/>
        <pt x="612" y="-15" on="1"/>
        <pt x="543" y="-15" on="0"/>
        <pt x="446" y="50" on="0"/>
        <pt x="423" y="115" on="1"/>
        <pt x="421" y="115" on="1"/>
        <pt x="415" y="83" on="0"/>
        <pt x="372" y="34" on="0"/>
        <pt x="310" y="1" on="0"/>
        <pt x="239" y="-15" on="0"/>
        <pt x="205" y="-15" on="1"/>
        <pt x="169" y="-15" on="0"/>
        <pt x="106" y="3" on="0"/>
        <pt x="59" y="40" on="0"/>
        <pt x="32" y="97" on="0"/>
        <pt x="32" y="136" on="1"/>
        <pt x="32" y="190" on="0"/>
        <pt x="80" y="251" on="0"/>
        <pt x="159" y="283" on="0"/>
        <pt x="258" y="296" on="0"/>
        <pt x="309" y="302" on="1"/>
        <pt x="328" y="304" on="0"/>
        <pt x="359" y="311" on="0"/>
        <pt x="379" y="325" on="0"/>
        <pt x="390" y="351" on="0"/>
        <pt x="390" y="372" on="1"/>
        <pt x="390" y="404" on="0"/>
        <pt x="369" y="445" on="0"/>
        <pt x="332" y="469" on="0"/>
        <pt x="283" y="478" on="0"/>
        <pt x="255" y="478" on="1"/>
        <pt x="196" y="478" on="0"/>
        <pt x="119" y="421" on="0"/>
        <pt x="117" y="358" on="1"/>
        <pt x="54" y="358" on="1"/>
        <pt x="59" y="449" on="0"/>
        <pt x="174" y="531" on="0"/>
        <pt x="263" y="531" on="1"/>
        <pt x="289" y="531" on="0"/>
        <pt x="346" y="522" on="0"/>
        <pt x="395" y="499" on="0"/>
        <pt x="430" y="457" on="0"/>
        <pt x="435" y="424" on="1"/>
        <pt x="437" y="424" on="1"/>
        <pt x="447" y="451" on="0"/>
        <pt x="486" y="491" on="0"/>
        <pt x="534" y="518" on="0"/>
        <pt x="590" y="531" on="0"/>
        <pt x="618" y="531" on="1"/>
        <pt x="682" y="531" on="0"/>
        <pt x="767" y="483" on="0"/>
        <pt x="819" y="402" on="0"/>
        <pt x="841" y="297" on="0"/>
        <pt x="841" y="241" on="1"/>
      </contour>
      <contour>
        <pt x="390" y="282" on="1"/>
        <pt x="388" y="282" on="1"/>
        <pt x="382" y="271" on="0"/>
        <pt x="348" y="261" on="0"/>
        <pt x="335" y="259" on="1"/>
        <pt x="295" y="252" on="0"/>
        <pt x="210" y="241" on="0"/>
        <pt x="140" y="219" on="0"/>
        <pt x="95" y="178" on="0"/>
        <pt x="95" y="140" on="1"/>
        <pt x="95" y="116" on="0"/>
        <pt x="114" y="79" on="0"/>
        <pt x="146" y="52" on="0"/>
        <pt x="188" y="38" on="0"/>
        <pt x="210" y="38" on="1"/>
        <pt x="246" y="38" on="0"/>
        <pt x="312" y="60" on="0"/>
        <pt x="361" y="102" on="0"/>
        <pt x="390" y="162" on="0"/>
        <pt x="390" y="200" on="1"/>
      </contour>
      <contour>
        <pt x="778" y="294" on="1"/>
        <pt x="778" y="330" on="0"/>
        <pt x="755" y="396" on="0"/>
        <pt x="713" y="447" on="0"/>
        <pt x="652" y="478" on="0"/>
        <pt x="615" y="478" on="1"/>
        <pt x="576" y="478" on="0"/>
        <pt x="515" y="448" on="0"/>
        <pt x="473" y="397" on="0"/>
        <pt x="452" y="330" on="0"/>
        <pt x="453" y="294" on="1"/>
      </contour>
    </TTGlyph>
    <TTGlyph name="afii61289" xMin="85" yMin="-14" xMax="406" yMax="721">
      <contour>
        <pt x="406" y="38" on="1"/>
        <pt x="353" y="-14" on="0"/>
        <pt x="286" y="-14" on="1"/>
        <pt x="236" y="-14" on="0"/>
        <pt x="167" y="45" on="0"/>
        <pt x="167" y="110" on="1"/>
        <pt x="167" y="240" on="1"/>
        <pt x="108" y="176" on="1"/>
        <pt x="106" y="176" on="1"/>
        <pt x="85" y="203" on="1"/>
        <pt x="167" y="287" on="1"/>
        <pt x="167" y="551" on="1"/>
        <pt x="167" y="635" on="0"/>
        <pt x="236" y="721" on="0"/>
        <pt x="285" y="721" on="1"/>
        <pt x="329" y="721" on="0"/>
        <pt x="384" y="657" on="0"/>
        <pt x="384" y="598" on="1"/>
        <pt x="384" y="525" on="0"/>
        <pt x="298" y="364" on="0"/>
        <pt x="218" y="277" on="1"/>
        <pt x="218" y="118" on="1"/>
        <pt x="218" y="91" on="0"/>
        <pt x="233" y="55" on="0"/>
        <pt x="255" y="34" on="0"/>
        <pt x="283" y="26" on="0"/>
        <pt x="296" y="26" on="1"/>
        <pt x="317" y="26" on="0"/>
        <pt x="362" y="45" on="0"/>
        <pt x="384" y="65" on="1"/>
        <pt x="386" y="65" on="1"/>
        <pt x="406" y="38" on="1"/>
      </contour>
      <contour>
        <pt x="341" y="593" on="1"/>
        <pt x="341" y="634" on="0"/>
        <pt x="307" y="684" on="0"/>
        <pt x="284" y="684" on="1"/>
        <pt x="258" y="684" on="0"/>
        <pt x="218" y="624" on="0"/>
        <pt x="218" y="558" on="1"/>
        <pt x="218" y="325" on="1"/>
        <pt x="277" y="394" on="0"/>
        <pt x="341" y="533" on="0"/>
      </contour>
    </TTGlyph>
    <TTGlyph name="agrave" xMin="32" yMin="-15" xMax="510" yMax="729">
      <component glyphName="a" x="0" y="0" flags="0x204"/>
      <component glyphName="grave" x="157" y="0" flags="0x4"/>
    </TTGlyph>
    <TTGlyph name="amacron" xMin="32" yMin="-15" xMax="510" yMax="683">
      <component glyphName="a" x="0" y="0" flags="0x204"/>
      <component glyphName="macron" x="171" y="0" flags="0x4"/>
    </TTGlyph>
    <TTGlyph name="ampersand" xMin="39" yMin="-15" xMax="620" yMax="714">
      <contour>
        <pt x="284" y="661" on="1"/>
        <pt x="245" y="661" on="0"/>
        <pt x="189" y="614" on="0"/>
        <pt x="189" y="569" on="1"/>
        <pt x="189" y="550" on="0"/>
        <pt x="205" y="511" on="0"/>
        <pt x="229" y="474" on="0"/>
        <pt x="257" y="439" on="0"/>
        <pt x="269" y="425" on="1"/>
        <pt x="288" y="437" on="0"/>
        <pt x="327" y="465" on="0"/>
        <pt x="359" y="500" on="0"/>
        <pt x="379" y="543" on="0"/>
        <pt x="379" y="569" on="1"/>
        <pt x="379" y="614" on="0"/>
        <pt x="323" y="661" on="0"/>
      </contour>
      <contour>
        <pt x="465" y="93" on="1"/>
        <pt x="426" y="44" on="0"/>
        <pt x="318" y="-15" on="0"/>
        <pt x="255" y="-15" on="1"/>
        <pt x="209" y="-15" on="0"/>
        <pt x="130" y="11" on="0"/>
        <pt x="72" y="62" on="0"/>
        <pt x="39" y="137" on="0"/>
        <pt x="39" y="185" on="1"/>
        <pt x="39" y="223" on="0"/>
        <pt x="71" y="287" on="0"/>
        <pt x="122" y="339" on="0"/>
        <pt x="184" y="381" on="0"/>
        <pt x="214" y="397" on="1"/>
        <pt x="199" y="416" on="0"/>
        <pt x="168" y="455" on="0"/>
        <pt x="143" y="497" on="0"/>
        <pt x="126" y="543" on="0"/>
        <pt x="126" y="569" on="1"/>
        <pt x="126" y="602" on="0"/>
        <pt x="151" y="655" on="0"/>
        <pt x="194" y="693" on="0"/>
        <pt x="251" y="714" on="0"/>
        <pt x="284" y="714" on="1"/>
        <pt x="317" y="714" on="0"/>
        <pt x="374" y="693" on="0"/>
        <pt x="417" y="655" on="0"/>
        <pt x="442" y="602" on="0"/>
        <pt x="442" y="569" on="1"/>
        <pt x="442" y="536" on="0"/>
        <pt x="418" y="482" on="0"/>
        <pt x="379" y="438" on="0"/>
        <pt x="329" y="401" on="0"/>
        <pt x="302" y="384" on="1"/>
        <pt x="458" y="196" on="1"/>
        <pt x="471" y="222" on="0"/>
        <pt x="479" y="275" on="0"/>
        <pt x="479" y="316" on="1"/>
        <pt x="542" y="316" on="1"/>
        <pt x="542" y="286" on="0"/>
        <pt x="525" y="191" on="0"/>
        <pt x="500" y="145" on="1"/>
        <pt x="620" y="0" on="1"/>
        <pt x="541" y="0" on="1"/>
      </contour>
      <contour>
        <pt x="248" y="356" on="1"/>
        <pt x="222" y="342" on="0"/>
        <pt x="170" y="308" on="0"/>
        <pt x="128" y="264" on="0"/>
        <pt x="102" y="211" on="0"/>
        <pt x="102" y="179" on="1"/>
        <pt x="102" y="147" on="0"/>
        <pt x="128" y="96" on="0"/>
        <pt x="171" y="58" on="0"/>
        <pt x="227" y="38" on="0"/>
        <pt x="257" y="38" on="1"/>
        <pt x="311" y="38" on="0"/>
        <pt x="396" y="97" on="0"/>
        <pt x="426" y="140" on="1"/>
      </contour>
    </TTGlyph>
    <TTGlyph name="aogonek" xMin="32" yMin="-203" xMax="511" yMax="531">
      <contour>
        <pt x="54" y="358" on="1"/>
        <pt x="59" y="449" on="0"/>
        <pt x="174" y="531" on="0"/>
        <pt x="263" y="531" on="1"/>
        <pt x="297" y="531" on="0"/>
        <pt x="365" y="518" on="0"/>
        <pt x="419" y="482" on="0"/>
        <pt x="453" y="417" on="0"/>
        <pt x="453" y="365" on="1"/>
        <pt x="453" y="91" on="1"/>
        <pt x="453" y="53" on="0"/>
        <pt x="490" y="53" on="1"/>
        <pt x="500" y="53" on="0"/>
        <pt x="510" y="57" on="1"/>
        <pt x="510" y="4" on="1"/>
        <pt x="499" y="2" on="0"/>
        <pt x="482" y="0" on="0"/>
        <pt x="469" y="0" on="1"/>
        <pt x="465" y="0" on="1"/>
        <pt x="438" y="-22" on="0"/>
        <pt x="403" y="-57" on="0"/>
        <pt x="387" y="-85" on="0"/>
        <pt x="383" y="-104" on="0"/>
        <pt x="383" y="-117" on="1"/>
        <pt x="383" y="-141" on="0"/>
        <pt x="410" y="-164" on="0"/>
        <pt x="427" y="-164" on="1"/>
        <pt x="446" y="-164" on="0"/>
        <pt x="474" y="-139" on="0"/>
        <pt x="482" y="-123" on="1"/>
        <pt x="511" y="-136" on="1"/>
        <pt x="494" y="-174" on="0"/>
        <pt x="445" y="-203" on="0"/>
        <pt x="413" y="-203" on="1"/>
        <pt x="369" y="-203" on="0"/>
        <pt x="322" y="-157" on="0"/>
        <pt x="322" y="-121" on="1"/>
        <pt x="322" y="-113" on="0"/>
        <pt x="328" y="-90" on="0"/>
        <pt x="346" y="-63" on="0"/>
        <pt x="367" y="-43" on="1"/>
        <pt x="387" y="-24" on="0"/>
        <pt x="433" y="5" on="1"/>
        <pt x="431" y="6" on="0"/>
        <pt x="430" y="6" on="1"/>
        <pt x="416" y="13" on="0"/>
        <pt x="400" y="37" on="0"/>
        <pt x="395" y="70" on="0"/>
        <pt x="395" y="90" on="1"/>
        <pt x="393" y="90" on="1"/>
        <pt x="376" y="65" on="0"/>
        <pt x="341" y="26" on="0"/>
        <pt x="298" y="-1" on="0"/>
        <pt x="242" y="-15" on="0"/>
        <pt x="205" y="-15" on="1"/>
        <pt x="169" y="-15" on="0"/>
        <pt x="106" y="3" on="0"/>
        <pt x="59" y="40" on="0"/>
        <pt x="32" y="97" on="0"/>
        <pt x="32" y="136" on="1"/>
        <pt x="32" y="190" on="0"/>
        <pt x="80" y="251" on="0"/>
        <pt x="159" y="283" on="0"/>
        <pt x="258" y="296" on="0"/>
        <pt x="309" y="302" on="1"/>
        <pt x="328" y="304" on="0"/>
        <pt x="359" y="311" on="0"/>
        <pt x="379" y="325" on="0"/>
        <pt x="390" y="351" on="0"/>
        <pt x="390" y="372" on="1"/>
        <pt x="390" y="404" on="0"/>
        <pt x="369" y="445" on="0"/>
        <pt x="332" y="469" on="0"/>
        <pt x="283" y="478" on="0"/>
        <pt x="255" y="478" on="1"/>
        <pt x="196" y="478" on="0"/>
        <pt x="119" y="421" on="0"/>
        <pt x="117" y="358" on="1"/>
      </contour>
      <contour>
        <pt x="390" y="282" on="1"/>
        <pt x="388" y="282" on="1"/>
        <pt x="382" y="271" on="0"/>
        <pt x="348" y="261" on="0"/>
        <pt x="335" y="259" on="1"/>
        <pt x="295" y="252" on="0"/>
        <pt x="210" y="241" on="0"/>
        <pt x="140" y="219" on="0"/>
        <pt x="95" y="178" on="0"/>
        <pt x="95" y="140" on="1"/>
        <pt x="95" y="116" on="0"/>
        <pt x="114" y="79" on="0"/>
        <pt x="146" y="52" on="0"/>
        <pt x="188" y="38" on="0"/>
        <pt x="210" y="38" on="1"/>
        <pt x="246" y="38" on="0"/>
        <pt x="312" y="60" on="0"/>
        <pt x="361" y="102" on="0"/>
        <pt x="390" y="162" on="0"/>
        <pt x="390" y="200" on="1"/>
      </contour>
    </TTGlyph>
    <TTGlyph name="approxequal" xMin="32" yMin="83" xMax="561" yMax="415">
      <contour>
        <pt x="560" y="234" on="1"/>
        <pt x="557" y="206" on="0"/>
        <pt x="540" y="154" on="0"/>
        <pt x="509" y="113" on="0"/>
        <pt x="463" y="89" on="0"/>
        <pt x="431" y="89" on="1"/>
        <pt x="399" y="89" on="0"/>
        <pt x="325" y="111" on="0"/>
        <pt x="251" y="138" on="0"/>
        <pt x="184" y="161" on="0"/>
        <pt x="159" y="161" on="1"/>
        <pt x="127" y="161" on="0"/>
        <pt x="88" y="112" on="0"/>
        <pt x="84" y="83" on="1"/>
        <pt x="32" y="83" on="1"/>
        <pt x="36" y="110" on="0"/>
        <pt x="53" y="163" on="0"/>
        <pt x="84" y="205" on="0"/>
        <pt x="129" y="231" on="0"/>
        <pt x="161" y="231" on="1"/>
        <pt x="194" y="231" on="0"/>
        <pt x="265" y="209" on="0"/>
        <pt x="337" y="182" on="0"/>
        <pt x="405" y="160" on="0"/>
        <pt x="435" y="160" on="1"/>
        <pt x="469" y="160" on="0"/>
        <pt x="504" y="204" on="0"/>
        <pt x="510" y="234" on="1"/>
        <pt x="560" y="234" on="1"/>
      </contour>
      <contour>
        <pt x="561" y="415" on="1"/>
        <pt x="558" y="387" on="0"/>
        <pt x="541" y="334" on="0"/>
        <pt x="509" y="294" on="0"/>
        <pt x="463" y="269" on="0"/>
        <pt x="431" y="269" on="1"/>
        <pt x="398" y="269" on="0"/>
        <pt x="325" y="291" on="0"/>
        <pt x="252" y="318" on="0"/>
        <pt x="185" y="340" on="0"/>
        <pt x="160" y="340" on="1"/>
        <pt x="128" y="340" on="0"/>
        <pt x="89" y="292" on="0"/>
        <pt x="84" y="263" on="1"/>
        <pt x="33" y="263" on="1"/>
        <pt x="36" y="290" on="0"/>
        <pt x="54" y="343" on="0"/>
        <pt x="84" y="385" on="0"/>
        <pt x="130" y="411" on="0"/>
        <pt x="162" y="411" on="1"/>
        <pt x="194" y="411" on="0"/>
        <pt x="266" y="389" on="0"/>
        <pt x="338" y="362" on="0"/>
        <pt x="406" y="340" on="0"/>
        <pt x="436" y="340" on="1"/>
        <pt x="470" y="340" on="0"/>
        <pt x="505" y="385" on="0"/>
        <pt x="511" y="415" on="1"/>
        <pt x="561" y="415" on="1"/>
      </contour>
    </TTGlyph>
    <TTGlyph name="aring" xMin="32" yMin="-15" xMax="510" yMax="787">
      <component glyphName="a" x="0" y="0" flags="0x204"/>
      <component glyphName="ring" x="164" y="0" flags="0x4"/>
    </TTGlyph>
    <TTGlyph name="asciicircum" xMin="44" yMin="238" xMax="556" yMax="691">
      <contour>
        <pt x="44" y="238" on="1"/>
        <pt x="274" y="691" on="1"/>
        <pt x="326" y="691" on="1"/>
        <pt x="556" y="238" on="1"/>
        <pt x="499" y="238" on="1"/>
        <pt x="299" y="628" on="1"/>
        <pt x="102" y="238" on="1"/>
      </contour>
    </TTGlyph>
    <TTGlyph name="asciitilde" xMin="69" yMin="189" xMax="531" yMax="315">
      <contour>
        <pt x="531" y="279" on="1"/>
        <pt x="520" y="263" on="0"/>
        <pt x="495" y="232" on="0"/>
        <pt x="466" y="208" on="0"/>
        <pt x="429" y="193" on="0"/>
        <pt x="406" y="193" on="1"/>
        <pt x="376" y="193" on="0"/>
        <pt x="322" y="213" on="0"/>
        <pt x="296" y="226" on="1"/>
        <pt x="270" y="238" on="0"/>
        <pt x="218" y="258" on="0"/>
        <pt x="189" y="258" on="1"/>
        <pt x="156" y="258" on="0"/>
        <pt x="117" y="215" on="0"/>
        <pt x="105" y="189" on="1"/>
        <pt x="69" y="225" on="1"/>
        <pt x="77" y="241" on="0"/>
        <pt x="100" y="272" on="0"/>
        <pt x="130" y="296" on="0"/>
        <pt x="169" y="311" on="0"/>
        <pt x="194" y="311" on="1"/>
        <pt x="222" y="311" on="0"/>
        <pt x="281" y="291" on="0"/>
        <pt x="309" y="279" on="1"/>
        <pt x="338" y="266" on="0"/>
        <pt x="388" y="246" on="0"/>
        <pt x="407" y="246" on="1"/>
        <pt x="437" y="246" on="0"/>
        <pt x="478" y="289" on="0"/>
        <pt x="495" y="315" on="1"/>
      </contour>
    </TTGlyph>
    <TTGlyph name="asterisk" xMin="27" yMin="435" xMax="325" yMax="714">
      <contour>
        <pt x="27" y="595" on="1"/>
        <pt x="41" y="632" on="1"/>
        <pt x="156" y="591" on="1"/>
        <pt x="156" y="714" on="1"/>
        <pt x="195" y="714" on="1"/>
        <pt x="195" y="591" on="1"/>
        <pt x="310" y="632" on="1"/>
        <pt x="325" y="595" on="1"/>
        <pt x="207" y="556" on="1"/>
        <pt x="279" y="458" on="1"/>
        <pt x="247" y="435" on="1"/>
        <pt x="174" y="535" on="1"/>
        <pt x="101" y="435" on="1"/>
        <pt x="69" y="458" on="1"/>
        <pt x="142" y="556" on="1"/>
      </contour>
    </TTGlyph>
    <TTGlyph name="at" xMin="47" yMin="-15" xMax="753" yMax="729">
      <contour>
        <pt x="518" y="256" on="1"/>
        <pt x="513" y="240" on="0"/>
        <pt x="506" y="210" on="0"/>
        <pt x="508" y="187" on="0"/>
        <pt x="519" y="173" on="0"/>
        <pt x="531" y="173" on="1"/>
        <pt x="564" y="173" on="0"/>
        <pt x="626" y="219" on="0"/>
        <pt x="672" y="291" on="0"/>
        <pt x="700" y="379" on="0"/>
        <pt x="700" y="421" on="1"/>
        <pt x="700" y="483" on="0"/>
        <pt x="655" y="581" on="0"/>
        <pt x="577" y="648" on="0"/>
        <pt x="474" y="684" on="0"/>
        <pt x="416" y="684" on="1"/>
        <pt x="346" y="684" on="0"/>
        <pt x="230" y="632" on="0"/>
        <pt x="146" y="543" on="0"/>
        <pt x="100" y="422" on="0"/>
        <pt x="100" y="353" on="1"/>
        <pt x="100" y="285" on="0"/>
        <pt x="148" y="167" on="0"/>
        <pt x="233" y="80" on="0"/>
        <pt x="350" y="30" on="0"/>
        <pt x="418" y="30" on="1"/>
        <pt x="455" y="30" on="0"/>
        <pt x="528" y="48" on="0"/>
        <pt x="596" y="83" on="0"/>
        <pt x="654" y="132" on="0"/>
        <pt x="676" y="163" on="1"/>
        <pt x="727" y="163" on="1"/>
        <pt x="704" y="122" on="0"/>
        <pt x="637" y="56" on="0"/>
        <pt x="556" y="10" on="0"/>
        <pt x="465" y="-15" on="0"/>
        <pt x="418" y="-15" on="1"/>
        <pt x="337" y="-15" on="0"/>
        <pt x="201" y="43" on="0"/>
        <pt x="102" y="144" on="0"/>
        <pt x="47" y="281" on="0"/>
        <pt x="47" y="360" on="1"/>
        <pt x="47" y="438" on="0"/>
        <pt x="104" y="573" on="0"/>
        <pt x="204" y="672" on="0"/>
        <pt x="337" y="729" on="0"/>
        <pt x="414" y="729" on="1"/>
        <pt x="486" y="729" on="0"/>
        <pt x="610" y="684" on="0"/>
        <pt x="701" y="601" on="0"/>
        <pt x="753" y="487" on="0"/>
        <pt x="753" y="418" on="1"/>
        <pt x="753" y="358" on="0"/>
        <pt x="712" y="252" on="0"/>
        <pt x="646" y="173" on="0"/>
        <pt x="563" y="128" on="0"/>
        <pt x="521" y="128" on="1"/>
        <pt x="495" y="128" on="0"/>
        <pt x="457" y="162" on="0"/>
        <pt x="454" y="195" on="1"/>
        <pt x="452" y="195" on="1"/>
        <pt x="429" y="171" on="0"/>
        <pt x="363" y="129" on="0"/>
        <pt x="325" y="129" on="1"/>
        <pt x="294" y="129" on="0"/>
        <pt x="245" y="152" on="0"/>
        <pt x="211" y="192" on="0"/>
        <pt x="193" y="244" on="0"/>
        <pt x="193" y="274" on="1"/>
        <pt x="193" y="326" on="0"/>
        <pt x="227" y="429" on="0"/>
        <pt x="289" y="511" on="0"/>
        <pt x="377" y="563" on="0"/>
        <pt x="430" y="563" on="1"/>
        <pt x="463" y="563" on="0"/>
        <pt x="519" y="524" on="0"/>
        <pt x="536" y="479" on="1"/>
        <pt x="561" y="544" on="1"/>
        <pt x="614" y="544" on="1"/>
      </contour>
      <contour>
        <pt x="426" y="510" on="1"/>
        <pt x="388" y="510" on="0"/>
        <pt x="325" y="464" on="0"/>
        <pt x="280" y="395" on="0"/>
        <pt x="256" y="314" on="0"/>
        <pt x="256" y="279" on="1"/>
        <pt x="256" y="234" on="0"/>
        <pt x="303" y="182" on="0"/>
        <pt x="339" y="182" on="1"/>
        <pt x="374" y="182" on="0"/>
        <pt x="434" y="231" on="0"/>
        <pt x="479" y="302" on="0"/>
        <pt x="505" y="384" on="0"/>
        <pt x="505" y="417" on="1"/>
        <pt x="505" y="435" on="0"/>
        <pt x="491" y="468" on="0"/>
        <pt x="469" y="494" on="0"/>
        <pt x="441" y="510" on="0"/>
      </contour>
    </TTGlyph>
    <TTGlyph name="atilde" xMin="32" yMin="-15" xMax="510" yMax="710">
      <component glyphName="a" x="0" y="0" flags="0x204"/>
      <component glyphName="tilde" x="166" y="0" flags="0x4"/>
    </TTGlyph>
    <TTGlyph name="b" xMin="60" yMin="-15" xMax="536" yMax="714">
      <contour>
        <pt x="60" y="714" on="1"/>
        <pt x="123" y="714" on="1"/>
        <pt x="123" y="418" on="1"/>
        <pt x="125" y="418" on="1"/>
        <pt x="135" y="446" on="0"/>
        <pt x="172" y="488" on="0"/>
        <pt x="220" y="516" on="0"/>
        <pt x="275" y="531" on="0"/>
        <pt x="304" y="531" on="1"/>
        <pt x="363" y="531" on="0"/>
        <pt x="450" y="487" on="0"/>
        <pt x="508" y="412" on="0"/>
        <pt x="536" y="313" on="0"/>
        <pt x="536" y="258" on="1"/>
        <pt x="536" y="203" on="0"/>
        <pt x="508" y="104" on="0"/>
        <pt x="450" y="29" on="0"/>
        <pt x="363" y="-15" on="0"/>
        <pt x="304" y="-15" on="1"/>
        <pt x="241" y="-15" on="0"/>
        <pt x="142" y="45" on="0"/>
        <pt x="120" y="98" on="1"/>
        <pt x="118" y="98" on="1"/>
        <pt x="118" y="0" on="1"/>
        <pt x="60" y="0" on="1"/>
      </contour>
      <contour>
        <pt x="473" y="258" on="1"/>
        <pt x="473" y="298" on="0"/>
        <pt x="454" y="377" on="0"/>
        <pt x="413" y="439" on="0"/>
        <pt x="349" y="478" on="0"/>
        <pt x="304" y="478" on="1"/>
        <pt x="254" y="478" on="0"/>
        <pt x="185" y="439" on="0"/>
        <pt x="142" y="377" on="0"/>
        <pt x="123" y="298" on="0"/>
        <pt x="123" y="258" on="1"/>
        <pt x="123" y="218" on="0"/>
        <pt x="142" y="139" on="0"/>
        <pt x="185" y="77" on="0"/>
        <pt x="254" y="38" on="0"/>
        <pt x="304" y="38" on="1"/>
        <pt x="349" y="38" on="0"/>
        <pt x="413" y="77" on="0"/>
        <pt x="454" y="139" on="0"/>
        <pt x="473" y="218" on="0"/>
      </contour>
    </TTGlyph>
    <TTGlyph name="backslash" xMin="-13" yMin="-15" xMax="346" yMax="729">
      <contour>
        <pt x="292" y="-15" on="1"/>
        <pt x="-13" y="729" on="1"/>
        <pt x="38" y="729" on="1"/>
        <pt x="346" y="-15" on="1"/>
      </contour>
    </TTGlyph>
    <TTGlyph name="bar" xMin="85" yMin="-214" xMax="138" yMax="786">
      <contour>
        <pt x="85" y="786" on="1"/>
        <pt x="138" y="786" on="1"/>
        <pt x="138" y="-214" on="1"/>
        <pt x="85" y="-214" on="1"/>
      </contour>
    </TTGlyph>
    <TTGlyph name="braceleft" xMin="83" yMin="-191" xMax="293" yMax="729">
      <contour>
        <pt x="243" y="-191" on="1"/>
        <pt x="201" y="-191" on="0"/>
        <pt x="155" y="-123" on="0"/>
        <pt x="155" y="-66" on="1"/>
        <pt x="155" y="82" on="1"/>
        <pt x="155" y="112" on="0"/>
        <pt x="149" y="170" on="0"/>
        <pt x="133" y="215" on="0"/>
        <pt x="105" y="242" on="0"/>
        <pt x="83" y="242" on="1"/>
        <pt x="83" y="295" on="1"/>
        <pt x="105" y="295" on="0"/>
        <pt x="133" y="322" on="0"/>
        <pt x="149" y="367" on="0"/>
        <pt x="155" y="425" on="0"/>
        <pt x="155" y="455" on="1"/>
        <pt x="155" y="604" on="1"/>
        <pt x="155" y="661" on="0"/>
        <pt x="201" y="729" on="0"/>
        <pt x="243" y="729" on="1"/>
        <pt x="293" y="729" on="1"/>
        <pt x="293" y="676" on="1"/>
        <pt x="273" y="676" on="1"/>
        <pt x="258" y="676" on="0"/>
        <pt x="237" y="659" on="0"/>
        <pt x="224" y="630" on="0"/>
        <pt x="218" y="593" on="0"/>
        <pt x="218" y="573" on="1"/>
        <pt x="218" y="432" on="1"/>
        <pt x="218" y="391" on="0"/>
        <pt x="200" y="332" on="0"/>
        <pt x="176" y="293" on="0"/>
        <pt x="153" y="273" on="0"/>
        <pt x="148" y="270" on="1"/>
        <pt x="148" y="268" on="1"/>
        <pt x="153" y="265" on="0"/>
        <pt x="176" y="245" on="0"/>
        <pt x="200" y="206" on="0"/>
        <pt x="218" y="147" on="0"/>
        <pt x="218" y="106" on="1"/>
        <pt x="218" y="-35" on="1"/>
        <pt x="218" y="-55" on="0"/>
        <pt x="224" y="-93" on="0"/>
        <pt x="237" y="-121" on="0"/>
        <pt x="258" y="-138" on="0"/>
        <pt x="273" y="-138" on="1"/>
        <pt x="293" y="-138" on="1"/>
        <pt x="293" y="-191" on="1"/>
      </contour>
    </TTGlyph>
    <TTGlyph name="braceright" xMin="40" yMin="-191" xMax="250" yMax="729">
      <contour>
        <pt x="90" y="729" on="1"/>
        <pt x="132" y="729" on="0"/>
        <pt x="178" y="661" on="0"/>
        <pt x="178" y="604" on="1"/>
        <pt x="178" y="456" on="1"/>
        <pt x="178" y="426" on="0"/>
        <pt x="184" y="368" on="0"/>
        <pt x="200" y="323" on="0"/>
        <pt x="228" y="296" on="0"/>
        <pt x="250" y="296" on="1"/>
        <pt x="250" y="243" on="1"/>
        <pt x="228" y="243" on="0"/>
        <pt x="200" y="216" on="0"/>
        <pt x="184" y="171" on="0"/>
        <pt x="178" y="113" on="0"/>
        <pt x="178" y="83" on="1"/>
        <pt x="178" y="-66" on="1"/>
        <pt x="178" y="-123" on="0"/>
        <pt x="132" y="-191" on="0"/>
        <pt x="90" y="-191" on="1"/>
        <pt x="40" y="-191" on="1"/>
        <pt x="40" y="-138" on="1"/>
        <pt x="60" y="-138" on="1"/>
        <pt x="75" y="-138" on="0"/>
        <pt x="96" y="-121" on="0"/>
        <pt x="109" y="-93" on="0"/>
        <pt x="115" y="-55" on="0"/>
        <pt x="115" y="-35" on="1"/>
        <pt x="115" y="106" on="1"/>
        <pt x="115" y="147" on="0"/>
        <pt x="133" y="206" on="0"/>
        <pt x="157" y="245" on="0"/>
        <pt x="180" y="265" on="0"/>
        <pt x="185" y="268" on="1"/>
        <pt x="185" y="270" on="1"/>
        <pt x="180" y="273" on="0"/>
        <pt x="157" y="293" on="0"/>
        <pt x="133" y="332" on="0"/>
        <pt x="115" y="391" on="0"/>
        <pt x="115" y="432" on="1"/>
        <pt x="115" y="573" on="1"/>
        <pt x="115" y="593" on="0"/>
        <pt x="109" y="630" on="0"/>
        <pt x="96" y="659" on="0"/>
        <pt x="75" y="676" on="0"/>
        <pt x="60" y="676" on="1"/>
        <pt x="40" y="676" on="1"/>
        <pt x="40" y="729" on="1"/>
      </contour>
    </TTGlyph>
    <TTGlyph name="bracketleft" xMin="76" yMin="-191" xMax="237" yMax="729">
      <contour>
        <pt x="76" y="-191" on="1"/>
        <pt x="76" y="729" on="1"/>
        <pt x="237" y="729" on="1"/>
        <pt x="237" y="676" on="1"/>
        <pt x="139" y="676" on="1"/>
        <pt x="139" y="-138" on="1"/>
        <pt x="237" y="-138" on="1"/>
        <pt x="237" y="-191" on="1"/>
      </contour>
    </TTGlyph>
    <TTGlyph name="bracketright" xMin="4" yMin="-191" xMax="165" yMax="729">
      <contour>
        <pt x="165" y="729" on="1"/>
        <pt x="165" y="-191" on="1"/>
        <pt x="4" y="-191" on="1"/>
        <pt x="4" y="-138" on="1"/>
        <pt x="102" y="-138" on="1"/>
        <pt x="102" y="676" on="1"/>
        <pt x="4" y="676" on="1"/>
        <pt x="4" y="729" on="1"/>
      </contour>
    </TTGlyph>
    <TTGlyph name="breve" xMin="-51" yMin="597" xMax="236" yMax="724">
      <contour>
        <pt x="-12" y="724" on="1"/>
        <pt x="-11" y="704" on="0"/>
        <pt x="8" y="673" on="0"/>
        <pt x="36" y="652" on="0"/>
        <pt x="72" y="642" on="0"/>
        <pt x="91" y="642" on="1"/>
        <pt x="110" y="642" on="0"/>
        <pt x="146" y="653" on="0"/>
        <pt x="175" y="674" on="0"/>
        <pt x="194" y="704" on="0"/>
        <pt x="197" y="724" on="1"/>
        <pt x="236" y="724" on="1"/>
        <pt x="228" y="665" on="0"/>
        <pt x="151" y="597" on="0"/>
        <pt x="91" y="597" on="1"/>
        <pt x="30" y="597" on="0"/>
        <pt x="-46" y="663" on="0"/>
        <pt x="-51" y="724" on="1"/>
      </contour>
    </TTGlyph>
    <TTGlyph name="breve.cap" xMin="-51" yMin="787" xMax="236" yMax="914">
      <contour>
        <pt x="-12" y="914" on="1"/>
        <pt x="-11" y="894" on="0"/>
        <pt x="8" y="863" on="0"/>
        <pt x="36" y="842" on="0"/>
        <pt x="72" y="832" on="0"/>
        <pt x="91" y="832" on="1"/>
        <pt x="129" y="832" on="0"/>
        <pt x="191" y="875" on="0"/>
        <pt x="197" y="914" on="1"/>
        <pt x="236" y="914" on="1"/>
        <pt x="228" y="854" on="0"/>
        <pt x="151" y="787" on="0"/>
        <pt x="91" y="787" on="1"/>
        <pt x="30" y="787" on="0"/>
        <pt x="-46" y="853" on="0"/>
        <pt x="-51" y="914" on="1"/>
      </contour>
    </TTGlyph>
    <TTGlyph name="brokenbar" xMin="85" yMin="-89" xMax="138" yMax="661">
      <contour>
        <pt x="85" y="661" on="1"/>
        <pt x="138" y="661" on="1"/>
        <pt x="138" y="411" on="1"/>
        <pt x="85" y="411" on="1"/>
      </contour>
      <contour>
        <pt x="85" y="161" on="1"/>
        <pt x="138" y="161" on="1"/>
        <pt x="138" y="-89" on="1"/>
        <pt x="85" y="-89" on="1"/>
      </contour>
    </TTGlyph>
    <TTGlyph name="bullet" xMin="72" yMin="178" xMax="429" yMax="535">
      <contour>
        <pt x="72" y="357" on="1"/>
        <pt x="72" y="394" on="0"/>
        <pt x="100" y="459" on="0"/>
        <pt x="148" y="507" on="0"/>
        <pt x="213" y="535" on="0"/>
        <pt x="250" y="535" on="1"/>
        <pt x="287" y="535" on="0"/>
        <pt x="352" y="507" on="0"/>
        <pt x="401" y="459" on="0"/>
        <pt x="429" y="394" on="0"/>
        <pt x="429" y="357" on="1"/>
        <pt x="429" y="320" on="0"/>
        <pt x="401" y="255" on="0"/>
        <pt x="352" y="206" on="0"/>
        <pt x="287" y="178" on="0"/>
        <pt x="250" y="178" on="1"/>
        <pt x="213" y="178" on="0"/>
        <pt x="148" y="206" on="0"/>
        <pt x="100" y="255" on="0"/>
        <pt x="72" y="320" on="0"/>
      </contour>
    </TTGlyph>
    <TTGlyph name="c" xMin="34" yMin="-15" xMax="491" yMax="531">
      <contour>
        <pt x="424" y="354" on="1"/>
        <pt x="411" y="412" on="0"/>
        <pt x="340" y="478" on="0"/>
        <pt x="278" y="478" on="1"/>
        <pt x="233" y="478" on="0"/>
        <pt x="165" y="440" on="0"/>
        <pt x="120" y="378" on="0"/>
        <pt x="97" y="299" on="0"/>
        <pt x="97" y="258" on="1"/>
        <pt x="97" y="217" on="0"/>
        <pt x="120" y="138" on="0"/>
        <pt x="165" y="76" on="0"/>
        <pt x="233" y="38" on="0"/>
        <pt x="278" y="38" on="1"/>
        <pt x="307" y="38" on="0"/>
        <pt x="359" y="60" on="0"/>
        <pt x="399" y="99" on="0"/>
        <pt x="425" y="153" on="0"/>
        <pt x="428" y="185" on="1"/>
        <pt x="491" y="185" on="1"/>
        <pt x="478" y="91" on="0"/>
        <pt x="365" y="-15" on="0"/>
        <pt x="278" y="-15" on="1"/>
        <pt x="219" y="-15" on="0"/>
        <pt x="128" y="29" on="0"/>
        <pt x="66" y="103" on="0"/>
        <pt x="34" y="202" on="0"/>
        <pt x="34" y="258" on="1"/>
        <pt x="34" y="313" on="0"/>
        <pt x="66" y="413" on="0"/>
        <pt x="128" y="487" on="0"/>
        <pt x="219" y="531" on="0"/>
        <pt x="278" y="531" on="1"/>
        <pt x="361" y="531" on="0"/>
        <pt x="476" y="443" on="0"/>
        <pt x="487" y="354" on="1"/>
      </contour>
    </TTGlyph>
    <TTGlyph name="cacute" xMin="34" yMin="-15" xMax="491" yMax="731">
      <component glyphName="c" x="0" y="0" flags="0x204"/>
      <component glyphName="acute" x="213" y="0" flags="0x4"/>
    </TTGlyph>
    <TTGlyph name="caron" xMin="-60" yMin="590" xMax="237" yMax="731">
      <contour>
        <pt x="-60" y="731" on="1"/>
        <pt x="5" y="731" on="1"/>
        <pt x="91" y="629" on="1"/>
        <pt x="179" y="731" on="1"/>
        <pt x="237" y="731" on="1"/>
        <pt x="123" y="590" on="1"/>
        <pt x="54" y="590" on="1"/>
      </contour>
    </TTGlyph>
    <TTGlyph name="caron.alt" xMin="88" yMin="573" xMax="221" yMax="714">
      <contour>
        <pt x="135" y="573" on="1"/>
        <pt x="88" y="573" on="1"/>
        <pt x="143" y="714" on="1"/>
        <pt x="221" y="714" on="1"/>
      </contour>
    </TTGlyph>
    <TTGlyph name="caron.cap" xMin="-60" yMin="778" xMax="237" yMax="919">
      <contour>
        <pt x="-60" y="919" on="1"/>
        <pt x="5" y="919" on="1"/>
        <pt x="91" y="817" on="1"/>
        <pt x="179" y="919" on="1"/>
        <pt x="237" y="919" on="1"/>
        <pt x="123" y="778" on="1"/>
        <pt x="54" y="778" on="1"/>
      </contour>
    </TTGlyph>
    <TTGlyph name="carontwo" xMin="88" yMin="573" xMax="221" yMax="714">
      <contour>
        <pt x="135" y="573" on="1"/>
        <pt x="88" y="573" on="1"/>
        <pt x="143" y="714" on="1"/>
        <pt x="221" y="714" on="1"/>
      </contour>
    </TTGlyph>
    <TTGlyph name="ccaron" xMin="34" yMin="-15" xMax="491" yMax="731">
      <component glyphName="c" x="0" y="0" flags="0x204"/>
      <component glyphName="caron" x="188" y="0" flags="0x4"/>
    </TTGlyph>
    <TTGlyph name="ccedilla" xMin="34" yMin="-203" xMax="491" yMax="531">
      <contour>
        <pt x="424" y="354" on="1"/>
        <pt x="411" y="412" on="0"/>
        <pt x="340" y="478" on="0"/>
        <pt x="278" y="478" on="1"/>
        <pt x="233" y="478" on="0"/>
        <pt x="165" y="440" on="0"/>
        <pt x="120" y="378" on="0"/>
        <pt x="97" y="299" on="0"/>
        <pt x="97" y="258" on="1"/>
        <pt x="97" y="217" on="0"/>
        <pt x="120" y="138" on="0"/>
        <pt x="165" y="76" on="0"/>
        <pt x="233" y="38" on="0"/>
        <pt x="278" y="38" on="1"/>
        <pt x="307" y="38" on="0"/>
        <pt x="359" y="60" on="0"/>
        <pt x="399" y="99" on="0"/>
        <pt x="425" y="153" on="0"/>
        <pt x="428" y="185" on="1"/>
        <pt x="491" y="185" on="1"/>
        <pt x="478" y="91" on="0"/>
        <pt x="421" y="38" on="1"/>
        <pt x="366" y="-13" on="0"/>
        <pt x="283" y="-15" on="1"/>
        <pt x="251" y="-54" on="1"/>
        <pt x="265" y="-51" on="0"/>
        <pt x="288" y="-50" on="0"/>
        <pt x="314" y="-53" on="0"/>
        <pt x="344" y="-66" on="0"/>
        <pt x="367" y="-94" on="0"/>
        <pt x="367" y="-117" on="1"/>
        <pt x="367" y="-140" on="0"/>
        <pt x="347" y="-172" on="0"/>
        <pt x="315" y="-193" on="0"/>
        <pt x="276" y="-203" on="0"/>
        <pt x="257" y="-203" on="1"/>
        <pt x="233" y="-203" on="0"/>
        <pt x="185" y="-193" on="0"/>
        <pt x="163" y="-182" on="1"/>
        <pt x="177" y="-150" on="1"/>
        <pt x="190" y="-155" on="0"/>
        <pt x="234" y="-164" on="0"/>
        <pt x="256" y="-164" on="1"/>
        <pt x="277" y="-164" on="0"/>
        <pt x="309" y="-144" on="0"/>
        <pt x="309" y="-121" on="1"/>
        <pt x="309" y="-103" on="0"/>
        <pt x="283" y="-83" on="0"/>
        <pt x="266" y="-83" on="1"/>
        <pt x="231" y="-83" on="0"/>
        <pt x="215" y="-91" on="1"/>
        <pt x="199" y="-76" on="1"/>
        <pt x="249" y="-13" on="1"/>
        <pt x="207" y="-9" on="0"/>
        <pt x="173" y="7" on="1"/>
        <pt x="128" y="29" on="0"/>
        <pt x="66" y="103" on="0"/>
        <pt x="34" y="202" on="0"/>
        <pt x="34" y="258" on="1"/>
        <pt x="34" y="313" on="0"/>
        <pt x="66" y="413" on="0"/>
        <pt x="128" y="487" on="0"/>
        <pt x="219" y="531" on="0"/>
        <pt x="278" y="531" on="1"/>
        <pt x="361" y="531" on="0"/>
        <pt x="476" y="443" on="0"/>
        <pt x="487" y="354" on="1"/>
      </contour>
    </TTGlyph>
    <TTGlyph name="ccircumflex" xMin="34" yMin="-15" xMax="491" yMax="730">
      <component glyphName="c" x="0" y="0" flags="0x204"/>
      <component glyphName="circumflex" x="182" y="0" flags="0x4"/>
    </TTGlyph>
    <TTGlyph name="cdotaccent" xMin="34" yMin="-15" xMax="491" yMax="711">
      <component glyphName="c" x="0" y="0" flags="0x204"/>
      <component glyphName="dotaccent" x="183" y="0" flags="0x4"/>
    </TTGlyph>
    <TTGlyph name="cedilla" xMin="-6" yMin="-203" xMax="198" yMax="0">
      <contour>
        <pt x="126" y="0" on="1"/>
        <pt x="82" y="-54" on="1"/>
        <pt x="96" y="-51" on="0"/>
        <pt x="119" y="-50" on="0"/>
        <pt x="145" y="-53" on="0"/>
        <pt x="175" y="-66" on="0"/>
        <pt x="198" y="-94" on="0"/>
        <pt x="198" y="-117" on="1"/>
        <pt x="198" y="-140" on="0"/>
        <pt x="178" y="-172" on="0"/>
        <pt x="146" y="-193" on="0"/>
        <pt x="107" y="-203" on="0"/>
        <pt x="88" y="-203" on="1"/>
        <pt x="64" y="-203" on="0"/>
        <pt x="16" y="-193" on="0"/>
        <pt x="-6" y="-182" on="1"/>
        <pt x="8" y="-150" on="1"/>
        <pt x="21" y="-155" on="0"/>
        <pt x="65" y="-164" on="0"/>
        <pt x="87" y="-164" on="1"/>
        <pt x="108" y="-164" on="0"/>
        <pt x="140" y="-144" on="0"/>
        <pt x="140" y="-121" on="1"/>
        <pt x="140" y="-103" on="0"/>
        <pt x="114" y="-83" on="0"/>
        <pt x="97" y="-83" on="1"/>
        <pt x="62" y="-83" on="0"/>
        <pt x="46" y="-91" on="1"/>
        <pt x="30" y="-76" on="1"/>
        <pt x="91" y="0" on="1"/>
      </contour>
    </TTGlyph>
    <TTGlyph name="cent" xMin="54" yMin="-116" xMax="511" yMax="618">
      <contour>
        <pt x="444" y="354" on="1"/>
        <pt x="432" y="410" on="0"/>
        <pt x="366" y="476" on="0"/>
        <pt x="309" y="478" on="1"/>
        <pt x="309" y="38" on="1"/>
        <pt x="336" y="39" on="0"/>
        <pt x="384" y="63" on="0"/>
        <pt x="421" y="102" on="0"/>
        <pt x="445" y="154" on="0"/>
        <pt x="448" y="185" on="1"/>
        <pt x="511" y="185" on="1"/>
        <pt x="499" y="94" on="0"/>
        <pt x="391" y="-12" on="0"/>
        <pt x="309" y="-15" on="1"/>
        <pt x="309" y="-116" on="1"/>
        <pt x="270" y="-116" on="1"/>
        <pt x="270" y="-14" on="1"/>
        <pt x="217" y="-9" on="0"/>
        <pt x="137" y="38" on="0"/>
        <pt x="82" y="112" on="0"/>
        <pt x="54" y="206" on="0"/>
        <pt x="54" y="258" on="1"/>
        <pt x="54" y="310" on="0"/>
        <pt x="82" y="404" on="0"/>
        <pt x="137" y="477" on="0"/>
        <pt x="217" y="524" on="0"/>
        <pt x="270" y="529" on="1"/>
        <pt x="270" y="618" on="1"/>
        <pt x="309" y="618" on="1"/>
        <pt x="309" y="531" on="1"/>
        <pt x="348" y="530" on="0"/>
        <pt x="416" y="506" on="0"/>
        <pt x="468" y="462" on="0"/>
        <pt x="502" y="397" on="0"/>
        <pt x="507" y="354" on="1"/>
      </contour>
      <contour>
        <pt x="270" y="476" on="1"/>
        <pt x="231" y="470" on="0"/>
        <pt x="174" y="429" on="0"/>
        <pt x="136" y="369" on="0"/>
        <pt x="117" y="296" on="0"/>
        <pt x="117" y="258" on="1"/>
        <pt x="117" y="220" on="0"/>
        <pt x="136" y="147" on="0"/>
        <pt x="174" y="87" on="0"/>
        <pt x="231" y="45" on="0"/>
        <pt x="270" y="39" on="1"/>
      </contour>
    </TTGlyph>
    <TTGlyph name="circumflex" xMin="-53" yMin="589" xMax="244" yMax="730">
      <contour>
        <pt x="244" y="589" on="1"/>
        <pt x="179" y="589" on="1"/>
        <pt x="93" y="691" on="1"/>
        <pt x="5" y="589" on="1"/>
        <pt x="-53" y="589" on="1"/>
        <pt x="61" y="730" on="1"/>
        <pt x="130" y="730" on="1"/>
      </contour>
    </TTGlyph>
    <TTGlyph name="circumflex.cap" xMin="-53" yMin="778" xMax="244" yMax="919">
      <contour>
        <pt x="244" y="778" on="1"/>
        <pt x="179" y="778" on="1"/>
        <pt x="93" y="880" on="1"/>
        <pt x="5" y="778" on="1"/>
        <pt x="-53" y="778" on="1"/>
        <pt x="61" y="919" on="1"/>
        <pt x="130" y="919" on="1"/>
      </contour>
    </TTGlyph>
    <TTGlyph name="colon" xMin="97" yMin="0" xMax="181" yMax="500">
      <contour>
        <pt x="97" y="0" on="1"/>
        <pt x="97" y="106" on="1"/>
        <pt x="181" y="106" on="1"/>
        <pt x="181" y="0" on="1"/>
      </contour>
      <contour>
        <pt x="97" y="394" on="1"/>
        <pt x="97" y="500" on="1"/>
        <pt x="181" y="500" on="1"/>
        <pt x="181" y="394" on="1"/>
      </contour>
    </TTGlyph>
    <TTGlyph name="comma" xMin="93" yMin="-137" xMax="181" yMax="106">
      <contour>
        <pt x="181" y="106" on="1"/>
        <pt x="181" y="-1" on="1"/>
        <pt x="181" y="-23" on="0"/>
        <pt x="170" y="-66" on="0"/>
        <pt x="148" y="-103" on="0"/>
        <pt x="115" y="-131" on="0"/>
        <pt x="93" y="-137" on="1"/>
        <pt x="93" y="-94" on="1"/>
        <pt x="105" y="-90" on="0"/>
        <pt x="123" y="-68" on="0"/>
        <pt x="135" y="-41" on="0"/>
        <pt x="140" y="-12" on="0"/>
        <pt x="139" y="0" on="1"/>
        <pt x="97" y="0" on="1"/>
        <pt x="97" y="106" on="1"/>
      </contour>
    </TTGlyph>
    <TTGlyph name="commaaccent" xMin="97" yMin="-203" xMax="183" yMax="-50">
      <contour>
        <pt x="183" y="-50" on="1"/>
        <pt x="183" y="-130" on="1"/>
        <pt x="183" y="-157" on="0"/>
        <pt x="158" y="-188" on="0"/>
        <pt x="123" y="-202" on="0"/>
        <pt x="97" y="-203" on="1"/>
        <pt x="97" y="-175" on="1"/>
        <pt x="112" y="-172" on="0"/>
        <pt x="126" y="-163" on="0"/>
        <pt x="135" y="-149" on="0"/>
        <pt x="136" y="-141" on="1"/>
        <pt x="97" y="-141" on="1"/>
        <pt x="97" y="-50" on="1"/>
      </contour>
    </TTGlyph>
    <TTGlyph name="commaaccent.alt" xMin="94" yMin="623" xMax="180" yMax="776">
      <contour>
        <pt x="94" y="623" on="1"/>
        <pt x="94" y="703" on="1"/>
        <pt x="94" y="730" on="0"/>
        <pt x="119" y="761" on="0"/>
        <pt x="154" y="775" on="0"/>
        <pt x="180" y="776" on="1"/>
        <pt x="180" y="748" on="1"/>
        <pt x="165" y="745" on="0"/>
        <pt x="151" y="736" on="0"/>
        <pt x="142" y="722" on="0"/>
        <pt x="141" y="714" on="1"/>
        <pt x="180" y="714" on="1"/>
        <pt x="180" y="623" on="1"/>
      </contour>
    </TTGlyph>
    <TTGlyph name="commaaccenttwo" xMin="94" yMin="623" xMax="180" yMax="776">
      <contour>
        <pt x="94" y="623" on="1"/>
        <pt x="94" y="703" on="1"/>
        <pt x="94" y="730" on="0"/>
        <pt x="119" y="761" on="0"/>
        <pt x="154" y="775" on="0"/>
        <pt x="180" y="776" on="1"/>
        <pt x="180" y="748" on="1"/>
        <pt x="165" y="745" on="0"/>
        <pt x="151" y="736" on="0"/>
        <pt x="142" y="722" on="0"/>
        <pt x="141" y="714" on="1"/>
        <pt x="180" y="714" on="1"/>
        <pt x="180" y="623" on="1"/>
      </contour>
    </TTGlyph>
    <TTGlyph name="copyright" xMin="28" yMin="-15" xMax="772" yMax="729">
      <contour>
        <pt x="543" y="435" on="1"/>
        <pt x="534" y="480" on="0"/>
        <pt x="465" y="540" on="0"/>
        <pt x="410" y="541" on="1"/>
        <pt x="369" y="541" on="0"/>
        <pt x="308" y="513" on="0"/>
        <pt x="266" y="463" on="0"/>
        <pt x="245" y="396" on="0"/>
        <pt x="245" y="357" on="1"/>
        <pt x="245" y="318" on="0"/>
        <pt x="266" y="251" on="0"/>
        <pt x="308" y="201" on="0"/>
        <pt x="369" y="173" on="0"/>
        <pt x="410" y="173" on="1"/>
        <pt x="465" y="173" on="0"/>
        <pt x="534" y="234" on="0"/>
        <pt x="543" y="279" on="1"/>
        <pt x="594" y="279" on="1"/>
        <pt x="589" y="243" on="0"/>
        <pt x="557" y="186" on="0"/>
        <pt x="507" y="148" on="0"/>
        <pt x="444" y="128" on="0"/>
        <pt x="409" y="128" on="1"/>
        <pt x="358" y="128" on="0"/>
        <pt x="277" y="162" on="0"/>
        <pt x="222" y="224" on="0"/>
        <pt x="192" y="307" on="0"/>
        <pt x="192" y="357" on="1"/>
        <pt x="192" y="406" on="0"/>
        <pt x="222" y="490" on="0"/>
        <pt x="277" y="552" on="0"/>
        <pt x="358" y="586" on="0"/>
        <pt x="409" y="586" on="1"/>
        <pt x="444" y="586" on="0"/>
        <pt x="507" y="566" on="0"/>
        <pt x="557" y="528" on="0"/>
        <pt x="589" y="471" on="0"/>
        <pt x="594" y="435" on="1"/>
      </contour>
      <contour>
        <pt x="714" y="357" on="1"/>
        <pt x="714" y="424" on="0"/>
        <pt x="666" y="540" on="0"/>
        <pt x="582" y="626" on="0"/>
        <pt x="467" y="676" on="0"/>
        <pt x="400" y="676" on="1"/>
        <pt x="332" y="676" on="0"/>
        <pt x="217" y="626" on="0"/>
        <pt x="133" y="540" on="0"/>
        <pt x="86" y="424" on="0"/>
        <pt x="86" y="357" on="1"/>
        <pt x="86" y="290" on="0"/>
        <pt x="133" y="174" on="0"/>
        <pt x="217" y="88" on="0"/>
        <pt x="332" y="38" on="0"/>
        <pt x="400" y="38" on="1"/>
        <pt x="467" y="38" on="0"/>
        <pt x="582" y="88" on="0"/>
        <pt x="666" y="174" on="0"/>
        <pt x="714" y="290" on="0"/>
      </contour>
      <contour>
        <pt x="772" y="357" on="1"/>
        <pt x="772" y="279" on="0"/>
        <pt x="715" y="143" on="0"/>
        <pt x="615" y="42" on="0"/>
        <pt x="479" y="-15" on="0"/>
        <pt x="400" y="-15" on="1"/>
        <pt x="321" y="-15" on="0"/>
        <pt x="185" y="42" on="0"/>
        <pt x="85" y="143" on="0"/>
        <pt x="28" y="279" on="0"/>
        <pt x="28" y="357" on="1"/>
        <pt x="28" y="435" on="0"/>
        <pt x="85" y="571" on="0"/>
        <pt x="185" y="672" on="0"/>
        <pt x="321" y="729" on="0"/>
        <pt x="400" y="729" on="1"/>
        <pt x="479" y="729" on="0"/>
        <pt x="615" y="672" on="0"/>
        <pt x="715" y="571" on="0"/>
        <pt x="772" y="435" on="0"/>
      </contour>
    </TTGlyph>
    <TTGlyph name="currency" xMin="29" yMin="98" xMax="527" yMax="594">
      <contour>
        <pt x="94" y="346" on="1"/>
        <pt x="94" y="306" on="0"/>
        <pt x="123" y="236" on="0"/>
        <pt x="173" y="185" on="0"/>
        <pt x="241" y="156" on="0"/>
        <pt x="279" y="156" on="1"/>
        <pt x="317" y="156" on="0"/>
        <pt x="385" y="185" on="0"/>
        <pt x="435" y="236" on="0"/>
        <pt x="464" y="306" on="0"/>
        <pt x="464" y="346" on="1"/>
        <pt x="464" y="386" on="0"/>
        <pt x="435" y="456" on="0"/>
        <pt x="385" y="507" on="0"/>
        <pt x="317" y="536" on="0"/>
        <pt x="279" y="536" on="1"/>
        <pt x="241" y="536" on="0"/>
        <pt x="173" y="507" on="0"/>
        <pt x="123" y="456" on="0"/>
        <pt x="94" y="386" on="0"/>
      </contour>
      <contour>
        <pt x="86" y="193" on="1"/>
        <pt x="60" y="225" on="0"/>
        <pt x="31" y="302" on="0"/>
        <pt x="31" y="346" on="1"/>
        <pt x="31" y="390" on="0"/>
        <pt x="59" y="468" on="0"/>
        <pt x="85" y="500" on="1"/>
        <pt x="29" y="556" on="1"/>
        <pt x="67" y="594" on="1"/>
        <pt x="123" y="538" on="1"/>
        <pt x="154" y="564" on="0"/>
        <pt x="234" y="594" on="0"/>
        <pt x="279" y="594" on="1"/>
        <pt x="323" y="594" on="0"/>
        <pt x="400" y="565" on="0"/>
        <pt x="432" y="539" on="1"/>
        <pt x="487" y="594" on="1"/>
        <pt x="525" y="556" on="1"/>
        <pt x="471" y="502" on="1"/>
        <pt x="497" y="470" on="0"/>
        <pt x="527" y="391" on="0"/>
        <pt x="527" y="346" on="1"/>
        <pt x="527" y="301" on="0"/>
        <pt x="497" y="222" on="0"/>
        <pt x="471" y="190" on="1"/>
        <pt x="525" y="136" on="1"/>
        <pt x="487" y="98" on="1"/>
        <pt x="432" y="153" on="1"/>
        <pt x="401" y="127" on="0"/>
        <pt x="324" y="98" on="0"/>
        <pt x="279" y="98" on="1"/>
        <pt x="234" y="98" on="0"/>
        <pt x="155" y="128" on="0"/>
        <pt x="123" y="154" on="1"/>
        <pt x="67" y="98" on="1"/>
        <pt x="29" y="136" on="1"/>
      </contour>
    </TTGlyph>
    <TTGlyph name="d" xMin="38" yMin="-15" xMax="514" yMax="714">
      <contour>
        <pt x="514" y="0" on="1"/>
        <pt x="456" y="0" on="1"/>
        <pt x="456" y="98" on="1"/>
        <pt x="454" y="98" on="1"/>
        <pt x="444" y="73" on="0"/>
        <pt x="405" y="31" on="0"/>
        <pt x="355" y="1" on="0"/>
        <pt x="298" y="-15" on="0"/>
        <pt x="270" y="-15" on="1"/>
        <pt x="211" y="-15" on="0"/>
        <pt x="124" y="29" on="0"/>
        <pt x="66" y="104" on="0"/>
        <pt x="38" y="203" on="0"/>
        <pt x="38" y="258" on="1"/>
        <pt x="38" y="313" on="0"/>
        <pt x="66" y="412" on="0"/>
        <pt x="124" y="487" on="0"/>
        <pt x="211" y="531" on="0"/>
        <pt x="270" y="531" on="1"/>
        <pt x="299" y="531" on="0"/>
        <pt x="354" y="516" on="0"/>
        <pt x="402" y="488" on="0"/>
        <pt x="439" y="446" on="0"/>
        <pt x="449" y="418" on="1"/>
        <pt x="451" y="418" on="1"/>
        <pt x="451" y="714" on="1"/>
        <pt x="514" y="714" on="1"/>
      </contour>
      <contour>
        <pt x="101" y="258" on="1"/>
        <pt x="101" y="218" on="0"/>
        <pt x="120" y="139" on="0"/>
        <pt x="161" y="77" on="0"/>
        <pt x="225" y="38" on="0"/>
        <pt x="270" y="38" on="1"/>
        <pt x="320" y="38" on="0"/>
        <pt x="389" y="77" on="0"/>
        <pt x="432" y="139" on="0"/>
        <pt x="451" y="218" on="0"/>
        <pt x="451" y="258" on="1"/>
        <pt x="451" y="298" on="0"/>
        <pt x="432" y="377" on="0"/>
        <pt x="389" y="439" on="0"/>
        <pt x="320" y="478" on="0"/>
        <pt x="270" y="478" on="1"/>
        <pt x="225" y="478" on="0"/>
        <pt x="161" y="439" on="0"/>
        <pt x="120" y="377" on="0"/>
        <pt x="101" y="298" on="0"/>
      </contour>
    </TTGlyph>
    <TTGlyph name="dagger" xMin="48" yMin="-151" xMax="508" yMax="714">
      <contour>
        <pt x="48" y="440" on="1"/>
        <pt x="48" y="493" on="1"/>
        <pt x="246" y="493" on="1"/>
        <pt x="246" y="714" on="1"/>
        <pt x="309" y="714" on="1"/>
        <pt x="309" y="493" on="1"/>
        <pt x="508" y="493" on="1"/>
        <pt x="508" y="440" on="1"/>
        <pt x="309" y="440" on="1"/>
        <pt x="309" y="-151" on="1"/>
        <pt x="246" y="-151" on="1"/>
        <pt x="246" y="440" on="1"/>
      </contour>
    </TTGlyph>
    <TTGlyph name="daggerdbl" xMin="48" yMin="-151" xMax="508" yMax="714">
      <contour>
        <pt x="48" y="47" on="1"/>
        <pt x="48" y="100" on="1"/>
        <pt x="246" y="100" on="1"/>
        <pt x="246" y="463" on="1"/>
        <pt x="48" y="463" on="1"/>
        <pt x="48" y="516" on="1"/>
        <pt x="246" y="516" on="1"/>
        <pt x="246" y="714" on="1"/>
        <pt x="309" y="714" on="1"/>
        <pt x="309" y="516" on="1"/>
        <pt x="508" y="516" on="1"/>
        <pt x="508" y="463" on="1"/>
        <pt x="309" y="463" on="1"/>
        <pt x="309" y="100" on="1"/>
        <pt x="508" y="100" on="1"/>
        <pt x="508" y="47" on="1"/>
        <pt x="309" y="47" on="1"/>
        <pt x="309" y="-151" on="1"/>
        <pt x="246" y="-151" on="1"/>
        <pt x="246" y="47" on="1"/>
      </contour>
    </TTGlyph>
    <TTGlyph name="dcaron" xMin="38" yMin="-15" xMax="697" yMax="714">
      <component glyphName="d" x="0" y="0" flags="0x4"/>
      <component glyphName="carontwo" x="476" y="0" flags="0x4"/>
    </TTGlyph>
    <TTGlyph name="dcroat" xMin="38" yMin="-15" xMax="598" yMax="714">
      <contour>
        <pt x="514" y="0" on="1"/>
        <pt x="456" y="0" on="1"/>
        <pt x="456" y="98" on="1"/>
        <pt x="454" y="98" on="1"/>
        <pt x="444" y="73" on="0"/>
        <pt x="405" y="31" on="0"/>
        <pt x="355" y="1" on="0"/>
        <pt x="298" y="-15" on="0"/>
        <pt x="270" y="-15" on="1"/>
        <pt x="211" y="-15" on="0"/>
        <pt x="124" y="29" on="0"/>
        <pt x="66" y="104" on="0"/>
        <pt x="38" y="203" on="0"/>
        <pt x="38" y="258" on="1"/>
        <pt x="38" y="313" on="0"/>
        <pt x="66" y="412" on="0"/>
        <pt x="124" y="487" on="0"/>
        <pt x="211" y="531" on="0"/>
        <pt x="270" y="531" on="1"/>
        <pt x="299" y="531" on="0"/>
        <pt x="354" y="516" on="0"/>
        <pt x="402" y="488" on="0"/>
        <pt x="439" y="446" on="0"/>
        <pt x="449" y="418" on="1"/>
        <pt x="451" y="418" on="1"/>
        <pt x="451" y="584" on="1"/>
        <pt x="278" y="584" on="1"/>
        <pt x="278" y="629" on="1"/>
        <pt x="451" y="629" on="1"/>
        <pt x="451" y="714" on="1"/>
        <pt x="514" y="714" on="1"/>
        <pt x="514" y="629" on="1"/>
        <pt x="598" y="629" on="1"/>
        <pt x="598" y="584" on="1"/>
        <pt x="514" y="584" on="1"/>
      </contour>
      <contour>
        <pt x="101" y="258" on="1"/>
        <pt x="101" y="218" on="0"/>
        <pt x="120" y="139" on="0"/>
        <pt x="161" y="77" on="0"/>
        <pt x="225" y="38" on="0"/>
        <pt x="270" y="38" on="1"/>
        <pt x="320" y="38" on="0"/>
        <pt x="389" y="77" on="0"/>
        <pt x="432" y="139" on="0"/>
        <pt x="451" y="218" on="0"/>
        <pt x="451" y="258" on="1"/>
        <pt x="451" y="298" on="0"/>
        <pt x="432" y="377" on="0"/>
        <pt x="389" y="439" on="0"/>
        <pt x="320" y="478" on="0"/>
        <pt x="270" y="478" on="1"/>
        <pt x="225" y="478" on="0"/>
        <pt x="161" y="439" on="0"/>
        <pt x="120" y="377" on="0"/>
        <pt x="101" y="298" on="0"/>
      </contour>
    </TTGlyph>
    <TTGlyph name="degree" xMin="56" yMin="418" xMax="344" yMax="706">
      <contour>
        <pt x="95" y="562" on="1"/>
        <pt x="95" y="540" on="0"/>
        <pt x="111" y="502" on="0"/>
        <pt x="140" y="473" on="0"/>
        <pt x="178" y="457" on="0"/>
        <pt x="200" y="457" on="1"/>
        <pt x="222" y="457" on="0"/>
        <pt x="260" y="473" on="0"/>
        <pt x="288" y="502" on="0"/>
        <pt x="305" y="540" on="0"/>
        <pt x="305" y="562" on="1"/>
        <pt x="305" y="584" on="0"/>
        <pt x="288" y="622" on="0"/>
        <pt x="260" y="650" on="0"/>
        <pt x="222" y="667" on="0"/>
        <pt x="200" y="667" on="1"/>
        <pt x="178" y="667" on="0"/>
        <pt x="140" y="650" on="0"/>
        <pt x="111" y="622" on="0"/>
        <pt x="95" y="584" on="0"/>
      </contour>
      <contour>
        <pt x="56" y="562" on="1"/>
        <pt x="56" y="592" on="0"/>
        <pt x="78" y="644" on="0"/>
        <pt x="117" y="683" on="0"/>
        <pt x="170" y="706" on="0"/>
        <pt x="200" y="706" on="1"/>
        <pt x="230" y="706" on="0"/>
        <pt x="282" y="683" on="0"/>
        <pt x="321" y="644" on="0"/>
        <pt x="344" y="592" on="0"/>
        <pt x="344" y="562" on="1"/>
        <pt x="344" y="532" on="0"/>
        <pt x="321" y="479" on="0"/>
        <pt x="282" y="440" on="0"/>
        <pt x="230" y="418" on="0"/>
        <pt x="200" y="418" on="1"/>
        <pt x="170" y="418" on="0"/>
        <pt x="117" y="440" on="0"/>
        <pt x="78" y="479" on="0"/>
        <pt x="56" y="532" on="0"/>
      </contour>
    </TTGlyph>
    <TTGlyph name="dieresis" xMin="-30" yMin="610" xMax="215" yMax="711">
      <contour>
        <pt x="-30" y="610" on="1"/>
        <pt x="-30" y="711" on="1"/>
        <pt x="38" y="711" on="1"/>
        <pt x="38" y="610" on="1"/>
      </contour>
      <contour>
        <pt x="147" y="610" on="1"/>
        <pt x="147" y="711" on="1"/>
        <pt x="215" y="711" on="1"/>
        <pt x="215" y="610" on="1"/>
      </contour>
    </TTGlyph>
    <TTGlyph name="dieresis.cap" xMin="-30" yMin="800" xMax="215" yMax="901">
      <contour>
        <pt x="-30" y="800" on="1"/>
        <pt x="-30" y="901" on="1"/>
        <pt x="38" y="901" on="1"/>
        <pt x="38" y="800" on="1"/>
      </contour>
      <contour>
        <pt x="147" y="800" on="1"/>
        <pt x="147" y="901" on="1"/>
        <pt x="215" y="901" on="1"/>
        <pt x="215" y="800" on="1"/>
      </contour>
    </TTGlyph>
    <TTGlyph name="divide" xMin="49" yMin="-6" xMax="552" yMax="509">
      <contour>
        <pt x="244" y="50" on="1"/>
        <pt x="244" y="73" on="0"/>
        <pt x="277" y="106" on="0"/>
        <pt x="300" y="106" on="1"/>
        <pt x="323" y="106" on="0"/>
        <pt x="356" y="73" on="0"/>
        <pt x="356" y="50" on="1"/>
        <pt x="356" y="29" on="0"/>
        <pt x="323" y="-6" on="0"/>
        <pt x="301" y="-6" on="1"/>
        <pt x="278" y="-6" on="0"/>
        <pt x="244" y="27" on="0"/>
      </contour>
      <contour>
        <pt x="244" y="453" on="1"/>
        <pt x="244" y="476" on="0"/>
        <pt x="277" y="509" on="0"/>
        <pt x="300" y="509" on="1"/>
        <pt x="323" y="509" on="0"/>
        <pt x="356" y="476" on="0"/>
        <pt x="356" y="453" on="1"/>
        <pt x="356" y="432" on="0"/>
        <pt x="323" y="397" on="0"/>
        <pt x="301" y="397" on="1"/>
        <pt x="278" y="397" on="0"/>
        <pt x="244" y="430" on="0"/>
      </contour>
      <contour>
        <pt x="49" y="225" on="1"/>
        <pt x="49" y="278" on="1"/>
        <pt x="552" y="278" on="1"/>
        <pt x="552" y="225" on="1"/>
      </contour>
    </TTGlyph>
    <TTGlyph name="dollar" xMin="29" yMin="-100" xMax="527" yMax="807">
      <contour>
        <pt x="92" y="228" on="1"/>
        <pt x="93" y="141" on="0"/>
        <pt x="178" y="47" on="0"/>
        <pt x="257" y="38" on="1"/>
        <pt x="257" y="334" on="1"/>
        <pt x="215" y="343" on="0"/>
        <pt x="138" y="369" on="0"/>
        <pt x="81" y="413" on="0"/>
        <pt x="47" y="481" on="0"/>
        <pt x="47" y="534" on="1"/>
        <pt x="47" y="579" on="0"/>
        <pt x="80" y="651" on="0"/>
        <pt x="137" y="702" on="0"/>
        <pt x="213" y="729" on="0"/>
        <pt x="257" y="729" on="1"/>
        <pt x="257" y="807" on="1"/>
        <pt x="296" y="807" on="1"/>
        <pt x="296" y="729" on="1"/>
        <pt x="339" y="729" on="0"/>
        <pt x="417" y="698" on="0"/>
        <pt x="476" y="641" on="0"/>
        <pt x="509" y="561" on="0"/>
        <pt x="508" y="512" on="1"/>
        <pt x="445" y="512" on="1"/>
        <pt x="444" y="587" on="0"/>
        <pt x="362" y="676" on="0"/>
        <pt x="296" y="676" on="1"/>
        <pt x="296" y="388" on="1"/>
        <pt x="339" y="379" on="0"/>
        <pt x="422" y="353" on="0"/>
        <pt x="487" y="307" on="0"/>
        <pt x="527" y="237" on="0"/>
        <pt x="527" y="185" on="1"/>
        <pt x="527" y="136" on="0"/>
        <pt x="488" y="61" on="0"/>
        <pt x="423" y="10" on="0"/>
        <pt x="340" y="-15" on="0"/>
        <pt x="296" y="-15" on="1"/>
        <pt x="296" y="-100" on="1"/>
        <pt x="257" y="-100" on="1"/>
        <pt x="257" y="-14" on="1"/>
        <pt x="140" y="-3" on="0"/>
        <pt x="33" y="114" on="0"/>
        <pt x="29" y="228" on="1"/>
      </contour>
      <contour>
        <pt x="257" y="676" on="1"/>
        <pt x="227" y="676" on="0"/>
        <pt x="174" y="659" on="0"/>
        <pt x="133" y="623" on="0"/>
        <pt x="110" y="566" on="0"/>
        <pt x="110" y="527" on="1"/>
        <pt x="110" y="492" on="0"/>
        <pt x="135" y="448" on="0"/>
        <pt x="176" y="420" on="0"/>
        <pt x="229" y="404" on="0"/>
        <pt x="257" y="397" on="1"/>
      </contour>
      <contour>
        <pt x="296" y="38" on="1"/>
        <pt x="328" y="38" on="0"/>
        <pt x="388" y="54" on="0"/>
        <pt x="435" y="90" on="0"/>
        <pt x="464" y="145" on="0"/>
        <pt x="464" y="184" on="1"/>
        <pt x="464" y="220" on="0"/>
        <pt x="433" y="268" on="0"/>
        <pt x="385" y="299" on="0"/>
        <pt x="325" y="319" on="0"/>
        <pt x="296" y="326" on="1"/>
      </contour>
    </TTGlyph>
    <TTGlyph name="dotaccent" xMin="59" yMin="610" xMax="127" yMax="711">
      <contour>
        <pt x="59" y="610" on="1"/>
        <pt x="59" y="711" on="1"/>
        <pt x="127" y="711" on="1"/>
        <pt x="127" y="610" on="1"/>
      </contour>
    </TTGlyph>
    <TTGlyph name="dotaccent.cap" xMin="59" yMin="800" xMax="127" yMax="901">
      <contour>
        <pt x="59" y="800" on="1"/>
        <pt x="59" y="901" on="1"/>
        <pt x="127" y="901" on="1"/>
        <pt x="127" y="800" on="1"/>
      </contour>
    </TTGlyph>
    <TTGlyph name="dotlessi" xMin="61" yMin="0" xMax="124" yMax="516">
      <contour>
        <pt x="61" y="0" on="1"/>
        <pt x="61" y="516" on="1"/>
        <pt x="124" y="516" on="1"/>
        <pt x="124" y="0" on="1"/>
      </contour>
    </TTGlyph>
    <TTGlyph name="dotlessj" xMin="-30" yMin="-191" xMax="124" yMax="516">
      <contour>
        <pt x="61" y="516" on="1"/>
        <pt x="124" y="516" on="1"/>
        <pt x="124" y="-48" on="1"/>
        <pt x="124" y="-77" on="0"/>
        <pt x="115" y="-129" on="0"/>
        <pt x="90" y="-168" on="0"/>
        <pt x="47" y="-191" on="0"/>
        <pt x="14" y="-191" on="1"/>
        <pt x="3" y="-191" on="0"/>
        <pt x="-19" y="-189" on="0"/>
        <pt x="-30" y="-189" on="1"/>
        <pt x="-30" y="-137" on="1"/>
        <pt x="-22" y="-138" on="0"/>
        <pt x="-4" y="-139" on="0"/>
        <pt x="4" y="-138" on="1"/>
        <pt x="41" y="-138" on="0"/>
        <pt x="61" y="-95" on="0"/>
        <pt x="61" y="-63" on="1"/>
      </contour>
    </TTGlyph>
    <TTGlyph name="e" xMin="34" yMin="-15" xMax="496" yMax="531">
      <contour>
        <pt x="431" y="294" on="1"/>
        <pt x="430" y="330" on="0"/>
        <pt x="407" y="396" on="0"/>
        <pt x="365" y="447" on="0"/>
        <pt x="305" y="478" on="0"/>
        <pt x="267" y="478" on="1"/>
        <pt x="228" y="478" on="0"/>
        <pt x="168" y="447" on="0"/>
        <pt x="126" y="396" on="0"/>
        <pt x="101" y="329" on="0"/>
        <pt x="97" y="294" on="1"/>
      </contour>
      <contour>
        <pt x="97" y="241" on="1"/>
        <pt x="97" y="206" on="0"/>
        <pt x="117" y="134" on="0"/>
        <pt x="157" y="76" on="0"/>
        <pt x="222" y="38" on="0"/>
        <pt x="267" y="38" on="1"/>
        <pt x="336" y="38" on="0"/>
        <pt x="414" y="111" on="0"/>
        <pt x="429" y="170" on="1"/>
        <pt x="492" y="170" on="1"/>
        <pt x="472" y="82" on="0"/>
        <pt x="365" y="-15" on="0"/>
        <pt x="267" y="-15" on="1"/>
        <pt x="205" y="-15" on="0"/>
        <pt x="117" y="29" on="0"/>
        <pt x="61" y="104" on="0"/>
        <pt x="34" y="203" on="0"/>
        <pt x="34" y="258" on="1"/>
        <pt x="34" y="309" on="0"/>
        <pt x="61" y="407" on="0"/>
        <pt x="117" y="484" on="0"/>
        <pt x="205" y="531" on="0"/>
        <pt x="267" y="531" on="1"/>
        <pt x="329" y="531" on="0"/>
        <pt x="417" y="481" on="0"/>
        <pt x="472" y="400" on="0"/>
        <pt x="496" y="295" on="0"/>
        <pt x="494" y="241" on="1"/>
      </contour>
    </TTGlyph>
    <TTGlyph name="eacute" xMin="34" yMin="-15" xMax="496" yMax="731">
      <component glyphName="e" x="0" y="0" flags="0x204"/>
      <component glyphName="acute" x="201" y="0" flags="0x4"/>
    </TTGlyph>
    <TTGlyph name="ebreve" xMin="34" yMin="-15" xMax="496" yMax="724">
      <component glyphName="e" x="0" y="0" flags="0x204"/>
      <component glyphName="breve" x="179" y="0" flags="0x4"/>
    </TTGlyph>
    <TTGlyph name="ecaron" xMin="34" yMin="-15" xMax="496" yMax="731">
      <component glyphName="e" x="0" y="0" flags="0x204"/>
      <component glyphName="caron" x="180" y="0" flags="0x4"/>
    </TTGlyph>
    <TTGlyph name="ecircumflex" xMin="34" yMin="-15" xMax="496" yMax="730">
      <component glyphName="e" x="0" y="0" flags="0x204"/>
      <component glyphName="circumflex" x="173" y="0" flags="0x4"/>
    </TTGlyph>
    <TTGlyph name="edieresis" xMin="34" yMin="-15" xMax="496" yMax="711">
      <component glyphName="e" x="0" y="0" flags="0x204"/>
      <component glyphName="dieresis" x="176" y="0" flags="0x4"/>
    </TTGlyph>
    <TTGlyph name="edotaccent" xMin="34" yMin="-15" xMax="496" yMax="711">
      <component glyphName="e" x="0" y="0" flags="0x204"/>
      <component glyphName="dotaccent" x="173" y="0" flags="0x4"/>
    </TTGlyph>
    <TTGlyph name="egrave" xMin="34" yMin="-15" xMax="496" yMax="729">
      <component glyphName="e" x="0" y="0" flags="0x204"/>
      <component glyphName="grave" x="164" y="0" flags="0x4"/>
    </TTGlyph>
    <TTGlyph name="eight" xMin="37" yMin="-15" xMax="519" yMax="706">
      <contour>
        <pt x="278" y="401" on="1"/>
        <pt x="307" y="400" on="0"/>
        <pt x="361" y="415" on="0"/>
        <pt x="402" y="448" on="0"/>
        <pt x="427" y="497" on="0"/>
        <pt x="427" y="531" on="1"/>
        <pt x="427" y="561" on="0"/>
        <pt x="404" y="607" on="0"/>
        <pt x="364" y="637" on="0"/>
        <pt x="309" y="653" on="0"/>
        <pt x="278" y="653" on="1"/>
        <pt x="249" y="653" on="0"/>
        <pt x="195" y="637" on="0"/>
        <pt x="153" y="607" on="0"/>
        <pt x="128" y="561" on="0"/>
        <pt x="128" y="531" on="1"/>
        <pt x="128" y="496" on="0"/>
        <pt x="154" y="446" on="0"/>
        <pt x="196" y="414" on="0"/>
        <pt x="250" y="400" on="0"/>
      </contour>
      <contour>
        <pt x="490" y="531" on="1"/>
        <pt x="490" y="474" on="0"/>
        <pt x="430" y="393" on="0"/>
        <pt x="376" y="377" on="1"/>
        <pt x="376" y="375" on="1"/>
        <pt x="444" y="361" on="0"/>
        <pt x="519" y="267" on="0"/>
        <pt x="519" y="196" on="1"/>
        <pt x="519" y="143" on="0"/>
        <pt x="481" y="64" on="0"/>
        <pt x="415" y="11" on="0"/>
        <pt x="327" y="-15" on="0"/>
        <pt x="278" y="-15" on="1"/>
        <pt x="229" y="-15" on="0"/>
        <pt x="141" y="11" on="0"/>
        <pt x="75" y="64" on="0"/>
        <pt x="37" y="143" on="0"/>
        <pt x="37" y="196" on="1"/>
        <pt x="39" y="265" on="0"/>
        <pt x="114" y="363" on="0"/>
        <pt x="179" y="375" on="1"/>
        <pt x="179" y="377" on="1"/>
        <pt x="124" y="394" on="0"/>
        <pt x="65" y="473" on="0"/>
        <pt x="65" y="531" on="1"/>
        <pt x="65" y="576" on="0"/>
        <pt x="102" y="642" on="0"/>
        <pt x="162" y="685" on="0"/>
        <pt x="238" y="706" on="0"/>
        <pt x="277" y="706" on="1"/>
        <pt x="316" y="706" on="0"/>
        <pt x="392" y="685" on="0"/>
        <pt x="453" y="642" on="0"/>
        <pt x="490" y="576" on="0"/>
      </contour>
      <contour>
        <pt x="278" y="38" on="1"/>
        <pt x="315" y="38" on="0"/>
        <pt x="380" y="57" on="0"/>
        <pt x="428" y="96" on="0"/>
        <pt x="456" y="156" on="0"/>
        <pt x="456" y="196" on="1"/>
        <pt x="456" y="234" on="0"/>
        <pt x="427" y="291" on="0"/>
        <pt x="378" y="330" on="0"/>
        <pt x="313" y="349" on="0"/>
        <pt x="278" y="348" on="1"/>
        <pt x="242" y="349" on="0"/>
        <pt x="177" y="330" on="0"/>
        <pt x="129" y="292" on="0"/>
        <pt x="100" y="235" on="0"/>
        <pt x="100" y="196" on="1"/>
        <pt x="100" y="157" on="0"/>
        <pt x="128" y="97" on="0"/>
        <pt x="176" y="58" on="0"/>
        <pt x="241" y="38" on="0"/>
      </contour>
    </TTGlyph>
    <TTGlyph name="ellipsis" xMin="125" yMin="0" xMax="875" yMax="106">
      <contour>
        <pt x="791" y="0" on="1"/>
        <pt x="791" y="106" on="1"/>
        <pt x="875" y="106" on="1"/>
        <pt x="875" y="0" on="1"/>
      </contour>
      <contour>
        <pt x="458" y="0" on="1"/>
        <pt x="458" y="106" on="1"/>
        <pt x="542" y="106" on="1"/>
        <pt x="542" y="0" on="1"/>
      </contour>
      <contour>
        <pt x="125" y="0" on="1"/>
        <pt x="125" y="106" on="1"/>
        <pt x="209" y="106" on="1"/>
        <pt x="209" y="0" on="1"/>
      </contour>
    </TTGlyph>
    <TTGlyph name="emacron" xMin="34" yMin="-15" xMax="496" yMax="683">
      <component glyphName="e" x="0" y="0" flags="0x204"/>
      <component glyphName="macron" x="174" y="0" flags="0x4"/>
    </TTGlyph>
    <TTGlyph name="emdash" xMin="130" yMin="246" xMax="870" yMax="304">
      <contour>
        <pt x="130" y="246" on="1"/>
        <pt x="130" y="304" on="1"/>
        <pt x="870" y="304" on="1"/>
        <pt x="870" y="246" on="1"/>
      </contour>
    </TTGlyph>
    <TTGlyph name="endash" xMin="0" yMin="246" xMax="500" yMax="304">
      <contour>
        <pt x="0" y="246" on="1"/>
        <pt x="0" y="304" on="1"/>
        <pt x="500" y="304" on="1"/>
        <pt x="500" y="246" on="1"/>
      </contour>
    </TTGlyph>
    <TTGlyph name="eogonek" xMin="34" yMin="-203" xMax="496" yMax="531">
      <contour>
        <pt x="97" y="241" on="1"/>
        <pt x="97" y="206" on="0"/>
        <pt x="117" y="134" on="0"/>
        <pt x="157" y="76" on="0"/>
        <pt x="222" y="38" on="0"/>
        <pt x="267" y="38" on="1"/>
        <pt x="336" y="38" on="0"/>
        <pt x="414" y="111" on="0"/>
        <pt x="429" y="170" on="1"/>
        <pt x="492" y="170" on="1"/>
        <pt x="472" y="82" on="0"/>
        <pt x="418" y="33" on="1"/>
        <pt x="375" y="-6" on="0"/>
        <pt x="301" y="-13" on="1"/>
        <pt x="285" y="-27" on="0"/>
        <pt x="273" y="-39" on="1"/>
        <pt x="256" y="-57" on="0"/>
        <pt x="240" y="-85" on="0"/>
        <pt x="236" y="-104" on="0"/>
        <pt x="236" y="-117" on="1"/>
        <pt x="236" y="-141" on="0"/>
        <pt x="263" y="-164" on="0"/>
        <pt x="280" y="-164" on="1"/>
        <pt x="299" y="-164" on="0"/>
        <pt x="327" y="-139" on="0"/>
        <pt x="335" y="-123" on="1"/>
        <pt x="364" y="-136" on="1"/>
        <pt x="347" y="-174" on="0"/>
        <pt x="298" y="-203" on="0"/>
        <pt x="266" y="-203" on="1"/>
        <pt x="222" y="-203" on="0"/>
        <pt x="175" y="-157" on="0"/>
        <pt x="175" y="-121" on="1"/>
        <pt x="175" y="-113" on="0"/>
        <pt x="181" y="-90" on="0"/>
        <pt x="199" y="-63" on="0"/>
        <pt x="220" y="-43" on="1"/>
        <pt x="234" y="-30" on="0"/>
        <pt x="256" y="-15" on="1"/>
        <pt x="201" y="-13" on="0"/>
        <pt x="161" y="7" on="1"/>
        <pt x="117" y="29" on="0"/>
        <pt x="61" y="104" on="0"/>
        <pt x="34" y="203" on="0"/>
        <pt x="34" y="258" on="1"/>
        <pt x="34" y="309" on="0"/>
        <pt x="61" y="407" on="0"/>
        <pt x="117" y="484" on="0"/>
        <pt x="205" y="531" on="0"/>
        <pt x="267" y="531" on="1"/>
        <pt x="329" y="531" on="0"/>
        <pt x="417" y="481" on="0"/>
        <pt x="472" y="400" on="0"/>
        <pt x="496" y="295" on="0"/>
        <pt x="494" y="241" on="1"/>
      </contour>
      <contour>
        <pt x="431" y="294" on="1"/>
        <pt x="430" y="330" on="0"/>
        <pt x="407" y="396" on="0"/>
        <pt x="365" y="447" on="0"/>
        <pt x="305" y="478" on="0"/>
        <pt x="267" y="478" on="1"/>
        <pt x="228" y="478" on="0"/>
        <pt x="168" y="447" on="0"/>
        <pt x="126" y="396" on="0"/>
        <pt x="101" y="329" on="0"/>
        <pt x="97" y="294" on="1"/>
      </contour>
    </TTGlyph>
    <TTGlyph name="equal" xMin="49" yMin="128" xMax="552" yMax="378">
      <contour>
        <pt x="552" y="128" on="1"/>
        <pt x="49" y="128" on="1"/>
        <pt x="49" y="181" on="1"/>
        <pt x="552" y="181" on="1"/>
      </contour>
      <contour>
        <pt x="552" y="325" on="1"/>
        <pt x="49" y="325" on="1"/>
        <pt x="49" y="378" on="1"/>
        <pt x="552" y="378" on="1"/>
      </contour>
    </TTGlyph>
    <TTGlyph name="estimated" xMin="44" yMin="-17" xMax="561" yMax="535">
      <contour>
        <pt x="157" y="259" on="1"/>
        <pt x="157" y="78" on="1"/>
        <pt x="216" y="19" on="0"/>
        <pt x="302" y="19" on="1"/>
        <pt x="365" y="19" on="0"/>
        <pt x="457" y="76" on="0"/>
        <pt x="495" y="139" on="1"/>
        <pt x="530" y="118" on="1"/>
        <pt x="507" y="82" on="0"/>
        <pt x="460" y="31" on="0"/>
        <pt x="405" y="-2" on="0"/>
        <pt x="341" y="-17" on="0"/>
        <pt x="302" y="-17" on="1"/>
        <pt x="243" y="-17" on="0"/>
        <pt x="148" y="26" on="0"/>
        <pt x="80" y="101" on="0"/>
        <pt x="44" y="201" on="0"/>
        <pt x="44" y="259" on="1"/>
        <pt x="44" y="317" on="0"/>
        <pt x="80" y="418" on="0"/>
        <pt x="148" y="492" on="0"/>
        <pt x="243" y="535" on="0"/>
        <pt x="302" y="535" on="1"/>
        <pt x="360" y="535" on="0"/>
        <pt x="455" y="494" on="0"/>
        <pt x="523" y="421" on="0"/>
        <pt x="561" y="320" on="0"/>
        <pt x="561" y="259" on="1"/>
      </contour>
      <contour>
        <pt x="448" y="295" on="1"/>
        <pt x="448" y="440" on="1"/>
        <pt x="385" y="500" on="0"/>
        <pt x="301" y="500" on="1"/>
        <pt x="217" y="500" on="0"/>
        <pt x="157" y="440" on="1"/>
        <pt x="157" y="295" on="1"/>
      </contour>
    </TTGlyph>
    <TTGlyph name="eth" xMin="34" yMin="-15" xMax="516" yMax="742">
      <contour>
        <pt x="235" y="652" on="1"/>
        <pt x="212" y="667" on="0"/>
        <pt x="166" y="695" on="0"/>
        <pt x="142" y="707" on="1"/>
        <pt x="178" y="742" on="1"/>
        <pt x="204" y="728" on="0"/>
        <pt x="257" y="697" on="0"/>
        <pt x="282" y="678" on="1"/>
        <pt x="396" y="742" on="1"/>
        <pt x="429" y="710" on="1"/>
        <pt x="320" y="649" on="1"/>
        <pt x="362" y="615" on="0"/>
        <pt x="433" y="533" on="0"/>
        <pt x="486" y="436" on="0"/>
        <pt x="516" y="323" on="0"/>
        <pt x="516" y="258" on="1"/>
        <pt x="516" y="202" on="0"/>
        <pt x="486" y="102" on="0"/>
        <pt x="426" y="28" on="0"/>
        <pt x="334" y="-15" on="0"/>
        <pt x="271" y="-15" on="1"/>
        <pt x="211" y="-15" on="0"/>
        <pt x="121" y="26" on="0"/>
        <pt x="63" y="97" on="0"/>
        <pt x="34" y="193" on="0"/>
        <pt x="34" y="249" on="1"/>
        <pt x="34" y="301" on="0"/>
        <pt x="65" y="394" on="0"/>
        <pt x="126" y="465" on="0"/>
        <pt x="214" y="506" on="0"/>
        <pt x="271" y="506" on="1"/>
        <pt x="308" y="506" on="0"/>
        <pt x="382" y="489" on="0"/>
        <pt x="404" y="466" on="1"/>
        <pt x="406" y="466" on="1"/>
        <pt x="381" y="513" on="0"/>
        <pt x="314" y="590" on="0"/>
        <pt x="273" y="623" on="1"/>
        <pt x="168" y="564" on="1"/>
        <pt x="135" y="596" on="1"/>
      </contour>
      <contour>
        <pt x="276" y="453" on="1"/>
        <pt x="228" y="453" on="0"/>
        <pt x="160" y="420" on="0"/>
        <pt x="117" y="364" on="0"/>
        <pt x="97" y="289" on="0"/>
        <pt x="97" y="248" on="1"/>
        <pt x="97" y="207" on="0"/>
        <pt x="117" y="131" on="0"/>
        <pt x="160" y="73" on="0"/>
        <pt x="227" y="38" on="0"/>
        <pt x="274" y="38" on="1"/>
        <pt x="318" y="38" on="0"/>
        <pt x="385" y="69" on="0"/>
        <pt x="430" y="126" on="0"/>
        <pt x="453" y="203" on="0"/>
        <pt x="453" y="250" on="1"/>
        <pt x="453" y="287" on="0"/>
        <pt x="433" y="360" on="0"/>
        <pt x="391" y="418" on="0"/>
        <pt x="324" y="453" on="0"/>
      </contour>
    </TTGlyph>
    <TTGlyph name="exclam" xMin="79" yMin="0" xMax="163" yMax="714">
      <contour>
        <pt x="79" y="0" on="1"/>
        <pt x="79" y="106" on="1"/>
        <pt x="163" y="106" on="1"/>
        <pt x="163" y="0" on="1"/>
      </contour>
      <contour>
        <pt x="87" y="501" on="1"/>
        <pt x="87" y="714" on="1"/>
        <pt x="155" y="714" on="1"/>
        <pt x="155" y="501" on="1"/>
        <pt x="140" y="178" on="1"/>
        <pt x="102" y="178" on="1"/>
      </contour>
    </TTGlyph>
    <TTGlyph name="exclamdown" xMin="79" yMin="-191" xMax="163" yMax="516">
      <contour>
        <pt x="163" y="516" on="1"/>
        <pt x="163" y="410" on="1"/>
        <pt x="79" y="410" on="1"/>
        <pt x="79" y="516" on="1"/>
      </contour>
      <contour>
        <pt x="155" y="15" on="1"/>
        <pt x="155" y="-191" on="1"/>
        <pt x="87" y="-191" on="1"/>
        <pt x="87" y="15" on="1"/>
        <pt x="102" y="338" on="1"/>
        <pt x="140" y="338" on="1"/>
      </contour>
    </TTGlyph>
    <TTGlyph name="f" xMin="6" yMin="0" xMax="272" yMax="714">
      <contour>
        <pt x="259" y="463" on="1"/>
        <pt x="157" y="463" on="1"/>
        <pt x="157" y="0" on="1"/>
        <pt x="94" y="0" on="1"/>
        <pt x="94" y="463" on="1"/>
        <pt x="6" y="463" on="1"/>
        <pt x="6" y="516" on="1"/>
        <pt x="94" y="516" on="1"/>
        <pt x="94" y="563" on="1"/>
        <pt x="94" y="596" on="0"/>
        <pt x="104" y="652" on="0"/>
        <pt x="132" y="692" on="0"/>
        <pt x="181" y="714" on="0"/>
        <pt x="219" y="714" on="1"/>
        <pt x="233" y="714" on="0"/>
        <pt x="257" y="712" on="0"/>
        <pt x="272" y="710" on="1"/>
        <pt x="272" y="656" on="1"/>
        <pt x="259" y="658" on="0"/>
        <pt x="237" y="661" on="0"/>
        <pt x="226" y="661" on="1"/>
        <pt x="200" y="661" on="0"/>
        <pt x="172" y="645" on="0"/>
        <pt x="159" y="618" on="0"/>
        <pt x="157" y="582" on="0"/>
        <pt x="157" y="561" on="1"/>
        <pt x="157" y="516" on="1"/>
        <pt x="259" y="516" on="1"/>
      </contour>
    </TTGlyph>
    <TTGlyph name="fi" xMin="6" yMin="0" xMax="383" yMax="714">
      <contour>
        <pt x="320" y="714" on="1"/>
        <pt x="383" y="714" on="1"/>
        <pt x="383" y="613" on="1"/>
        <pt x="320" y="613" on="1"/>
      </contour>
      <contour>
        <pt x="94" y="463" on="1"/>
        <pt x="6" y="463" on="1"/>
        <pt x="6" y="516" on="1"/>
        <pt x="94" y="516" on="1"/>
        <pt x="94" y="563" on="1"/>
        <pt x="94" y="596" on="0"/>
        <pt x="104" y="652" on="0"/>
        <pt x="132" y="692" on="0"/>
        <pt x="181" y="714" on="0"/>
        <pt x="219" y="714" on="1"/>
        <pt x="233" y="714" on="0"/>
        <pt x="257" y="712" on="0"/>
        <pt x="272" y="710" on="1"/>
        <pt x="272" y="656" on="1"/>
        <pt x="259" y="658" on="0"/>
        <pt x="237" y="661" on="0"/>
        <pt x="226" y="661" on="1"/>
        <pt x="200" y="661" on="0"/>
        <pt x="172" y="645" on="0"/>
        <pt x="159" y="618" on="0"/>
        <pt x="157" y="582" on="0"/>
        <pt x="157" y="561" on="1"/>
        <pt x="157" y="516" on="1"/>
        <pt x="259" y="516" on="1"/>
        <pt x="259" y="463" on="1"/>
        <pt x="157" y="463" on="1"/>
        <pt x="157" y="0" on="1"/>
        <pt x="94" y="0" on="1"/>
      </contour>
      <contour>
        <pt x="320" y="516" on="1"/>
        <pt x="383" y="516" on="1"/>
        <pt x="383" y="0" on="1"/>
        <pt x="320" y="0" on="1"/>
      </contour>
    </TTGlyph>
    <TTGlyph name="five" xMin="36" yMin="-15" xMax="509" yMax="691">
      <contour>
        <pt x="99" y="200" on="1"/>
        <pt x="100" y="164" on="0"/>
        <pt x="127" y="104" on="0"/>
        <pt x="173" y="61" on="0"/>
        <pt x="235" y="38" on="0"/>
        <pt x="271" y="38" on="1"/>
        <pt x="311" y="38" on="0"/>
        <pt x="376" y="69" on="0"/>
        <pt x="422" y="121" on="0"/>
        <pt x="446" y="191" on="0"/>
        <pt x="446" y="229" on="1"/>
        <pt x="446" y="268" on="0"/>
        <pt x="419" y="334" on="0"/>
        <pt x="372" y="383" on="0"/>
        <pt x="306" y="411" on="0"/>
        <pt x="267" y="411" on="1"/>
        <pt x="220" y="411" on="0"/>
        <pt x="137" y="368" on="0"/>
        <pt x="111" y="328" on="1"/>
        <pt x="57" y="328" on="1"/>
        <pt x="125" y="691" on="1"/>
        <pt x="475" y="691" on="1"/>
        <pt x="475" y="633" on="1"/>
        <pt x="169" y="633" on="1"/>
        <pt x="124" y="401" on="1"/>
        <pt x="126" y="399" on="1"/>
        <pt x="152" y="430" on="0"/>
        <pt x="233" y="464" on="0"/>
        <pt x="274" y="464" on="1"/>
        <pt x="328" y="464" on="0"/>
        <pt x="415" y="428" on="0"/>
        <pt x="476" y="364" on="0"/>
        <pt x="509" y="275" on="0"/>
        <pt x="509" y="222" on="1"/>
        <pt x="509" y="171" on="0"/>
        <pt x="471" y="84" on="0"/>
        <pt x="405" y="21" on="0"/>
        <pt x="316" y="-15" on="0"/>
        <pt x="266" y="-15" on="1"/>
        <pt x="217" y="-15" on="0"/>
        <pt x="134" y="15" on="0"/>
        <pt x="73" y="70" on="0"/>
        <pt x="37" y="150" on="0"/>
        <pt x="36" y="200" on="1"/>
      </contour>
    </TTGlyph>
    <TTGlyph name="fl" xMin="6" yMin="0" xMax="383" yMax="714">
      <contour>
        <pt x="320" y="714" on="1"/>
        <pt x="383" y="714" on="1"/>
        <pt x="383" y="0" on="1"/>
        <pt x="320" y="0" on="1"/>
      </contour>
      <contour>
        <pt x="94" y="463" on="1"/>
        <pt x="6" y="463" on="1"/>
        <pt x="6" y="516" on="1"/>
        <pt x="94" y="516" on="1"/>
        <pt x="94" y="563" on="1"/>
        <pt x="94" y="596" on="0"/>
        <pt x="104" y="652" on="0"/>
        <pt x="132" y="692" on="0"/>
        <pt x="181" y="714" on="0"/>
        <pt x="219" y="714" on="1"/>
        <pt x="233" y="714" on="0"/>
        <pt x="257" y="712" on="0"/>
        <pt x="272" y="710" on="1"/>
        <pt x="272" y="656" on="1"/>
        <pt x="259" y="658" on="0"/>
        <pt x="237" y="661" on="0"/>
        <pt x="226" y="661" on="1"/>
        <pt x="200" y="661" on="0"/>
        <pt x="172" y="645" on="0"/>
        <pt x="159" y="618" on="0"/>
        <pt x="157" y="582" on="0"/>
        <pt x="157" y="561" on="1"/>
        <pt x="157" y="516" on="1"/>
        <pt x="259" y="516" on="1"/>
        <pt x="259" y="463" on="1"/>
        <pt x="157" y="463" on="1"/>
        <pt x="157" y="0" on="1"/>
        <pt x="94" y="0" on="1"/>
      </contour>
    </TTGlyph>
    <TTGlyph name="florin" xMin="7" yMin="-174" xMax="490" yMax="714">
      <contour>
        <pt x="16" y="-114" on="1"/>
        <pt x="41" y="-120" on="0"/>
        <pt x="68" y="-120" on="1"/>
        <pt x="90" y="-119" on="0"/>
        <pt x="122" y="-98" on="0"/>
        <pt x="143" y="-65" on="0"/>
        <pt x="156" y="-26" on="0"/>
        <pt x="160" y="-8" on="1"/>
        <pt x="235" y="386" on="1"/>
        <pt x="135" y="386" on="1"/>
        <pt x="144" y="439" on="1"/>
        <pt x="245" y="439" on="1"/>
        <pt x="258" y="508" on="1"/>
        <pt x="267" y="547" on="0"/>
        <pt x="285" y="622" on="0"/>
        <pt x="320" y="679" on="0"/>
        <pt x="379" y="714" on="0"/>
        <pt x="428" y="714" on="1"/>
        <pt x="444" y="714" on="0"/>
        <pt x="474" y="711" on="0"/>
        <pt x="490" y="709" on="1"/>
        <pt x="478" y="657" on="1"/>
        <pt x="467" y="659" on="0"/>
        <pt x="443" y="661" on="0"/>
        <pt x="432" y="661" on="1"/>
        <pt x="400" y="660" on="0"/>
        <pt x="362" y="631" on="0"/>
        <pt x="340" y="586" on="0"/>
        <pt x="328" y="531" on="0"/>
        <pt x="322" y="506" on="1"/>
        <pt x="308" y="439" on="1"/>
        <pt x="421" y="439" on="1"/>
        <pt x="412" y="386" on="1"/>
        <pt x="299" y="386" on="1"/>
        <pt x="238" y="63" on="1"/>
        <pt x="229" y="18" on="0"/>
        <pt x="212" y="-68" on="0"/>
        <pt x="175" y="-134" on="0"/>
        <pt x="109" y="-174" on="0"/>
        <pt x="52" y="-173" on="1"/>
        <pt x="32" y="-173" on="0"/>
        <pt x="7" y="-168" on="1"/>
      </contour>
    </TTGlyph>
    <TTGlyph name="four" xMin="30" yMin="0" xMax="516" yMax="700">
      <contour>
        <pt x="353" y="227" on="1"/>
        <pt x="353" y="608" on="1"/>
        <pt x="351" y="608" on="1"/>
        <pt x="87" y="227" on="1"/>
      </contour>
      <contour>
        <pt x="30" y="235" on="1"/>
        <pt x="354" y="700" on="1"/>
        <pt x="411" y="700" on="1"/>
        <pt x="411" y="227" on="1"/>
        <pt x="516" y="227" on="1"/>
        <pt x="516" y="174" on="1"/>
        <pt x="411" y="174" on="1"/>
        <pt x="411" y="0" on="1"/>
        <pt x="353" y="0" on="1"/>
        <pt x="353" y="174" on="1"/>
        <pt x="30" y="174" on="1"/>
      </contour>
    </TTGlyph>
    <TTGlyph name="fraction" xMin="-166" yMin="-34" xMax="334" yMax="725">
      <contour>
        <pt x="287" y="725" on="1"/>
        <pt x="334" y="725" on="1"/>
        <pt x="-118" y="-34" on="1"/>
        <pt x="-166" y="-34" on="1"/>
      </contour>
    </TTGlyph>
    <TTGlyph name="g" xMin="34" yMin="-206" xMax="496" yMax="531">
      <contour>
        <pt x="496" y="42" on="1"/>
        <pt x="496" y="-16" on="0"/>
        <pt x="471" y="-108" on="0"/>
        <pt x="417" y="-172" on="0"/>
        <pt x="330" y="-206" on="0"/>
        <pt x="267" y="-206" on="1"/>
        <pt x="228" y="-206" on="0"/>
        <pt x="154" y="-188" on="0"/>
        <pt x="95" y="-150" on="0"/>
        <pt x="56" y="-91" on="0"/>
        <pt x="53" y="-50" on="1"/>
        <pt x="116" y="-50" on="1"/>
        <pt x="121" y="-79" on="0"/>
        <pt x="150" y="-118" on="0"/>
        <pt x="191" y="-142" on="0"/>
        <pt x="241" y="-153" on="0"/>
        <pt x="267" y="-153" on="1"/>
        <pt x="355" y="-153" on="0"/>
        <pt x="433" y="-53" on="0"/>
        <pt x="433" y="42" on="1"/>
        <pt x="433" y="112" on="1"/>
        <pt x="431" y="112" on="1"/>
        <pt x="409" y="64" on="0"/>
        <pt x="323" y="6" on="0"/>
        <pt x="267" y="6" on="1"/>
        <pt x="205" y="6" on="0"/>
        <pt x="117" y="47" on="0"/>
        <pt x="60" y="119" on="0"/>
        <pt x="34" y="216" on="0"/>
        <pt x="34" y="271" on="1"/>
        <pt x="34" y="324" on="0"/>
        <pt x="65" y="419" on="0"/>
        <pt x="124" y="490" on="0"/>
        <pt x="211" y="531" on="0"/>
        <pt x="267" y="531" on="1"/>
        <pt x="324" y="531" on="0"/>
        <pt x="412" y="470" on="0"/>
        <pt x="431" y="427" on="1"/>
        <pt x="433" y="427" on="1"/>
        <pt x="433" y="516" on="1"/>
        <pt x="496" y="516" on="1"/>
      </contour>
      <contour>
        <pt x="267" y="59" on="1"/>
        <pt x="308" y="59" on="0"/>
        <pt x="370" y="94" on="0"/>
        <pt x="412" y="151" on="0"/>
        <pt x="433" y="225" on="0"/>
        <pt x="433" y="264" on="1"/>
        <pt x="433" y="302" on="0"/>
        <pt x="415" y="378" on="0"/>
        <pt x="375" y="440" on="0"/>
        <pt x="312" y="478" on="0"/>
        <pt x="267" y="478" on="1"/>
        <pt x="222" y="478" on="0"/>
        <pt x="158" y="441" on="0"/>
        <pt x="116" y="381" on="0"/>
        <pt x="97" y="304" on="0"/>
        <pt x="97" y="264" on="1"/>
        <pt x="97" y="225" on="0"/>
        <pt x="117" y="151" on="0"/>
        <pt x="159" y="94" on="0"/>
        <pt x="223" y="59" on="0"/>
      </contour>
    </TTGlyph>
    <TTGlyph name="gbreve" xMin="34" yMin="-206" xMax="496" yMax="724">
      <component glyphName="g" x="0" y="0" flags="0x204"/>
      <component glyphName="breve" x="176" y="0" flags="0x4"/>
    </TTGlyph>
    <TTGlyph name="gcircumflex" xMin="34" yMin="-206" xMax="496" yMax="730">
      <component glyphName="g" x="0" y="0" flags="0x204"/>
      <component glyphName="circumflex" x="195" y="0" flags="0x4"/>
    </TTGlyph>
    <TTGlyph name="gcommaaccent" xMin="34" yMin="-206" xMax="496" yMax="776">
      <component glyphName="g" x="0" y="0" flags="0x204"/>
      <component glyphName="commaaccenttwo" x="142" y="0" flags="0x4"/>
    </TTGlyph>
    <TTGlyph name="gdotaccent" xMin="34" yMin="-206" xMax="496" yMax="711">
      <component glyphName="g" x="0" y="0" flags="0x204"/>
      <component glyphName="dotaccent" x="184" y="0" flags="0x4"/>
    </TTGlyph>
    <TTGlyph name="germandbls" xMin="61" yMin="-8" xMax="492" yMax="729">
      <contour>
        <pt x="61" y="535" on="1"/>
        <pt x="61" y="584" on="0"/>
        <pt x="90" y="657" on="0"/>
        <pt x="142" y="705" on="0"/>
        <pt x="215" y="729" on="0"/>
        <pt x="260" y="729" on="1"/>
        <pt x="300" y="729" on="0"/>
        <pt x="371" y="706" on="0"/>
        <pt x="425" y="661" on="0"/>
        <pt x="456" y="596" on="0"/>
        <pt x="456" y="553" on="1"/>
        <pt x="456" y="526" on="0"/>
        <pt x="441" y="477" on="0"/>
        <pt x="412" y="437" on="0"/>
        <pt x="370" y="409" on="0"/>
        <pt x="343" y="403" on="1"/>
        <pt x="343" y="401" on="1"/>
        <pt x="379" y="398" on="0"/>
        <pt x="435" y="365" on="0"/>
        <pt x="473" y="314" on="0"/>
        <pt x="492" y="250" on="0"/>
        <pt x="492" y="216" on="1"/>
        <pt x="492" y="160" on="0"/>
        <pt x="458" y="78" on="0"/>
        <pt x="399" y="22" on="0"/>
        <pt x="318" y="-7" on="0"/>
        <pt x="270" y="-8" on="1"/>
        <pt x="258" y="-8" on="0"/>
        <pt x="245" y="-8" on="1"/>
        <pt x="233" y="-8" on="0"/>
        <pt x="220" y="-6" on="1"/>
        <pt x="220" y="49" on="1"/>
        <pt x="232" y="47" on="0"/>
        <pt x="255" y="45" on="0"/>
        <pt x="267" y="45" on="1"/>
        <pt x="298" y="45" on="0"/>
        <pt x="356" y="62" on="0"/>
        <pt x="401" y="101" on="0"/>
        <pt x="429" y="162" on="0"/>
        <pt x="429" y="205" on="1"/>
        <pt x="429" y="257" on="0"/>
        <pt x="398" y="321" on="0"/>
        <pt x="343" y="356" on="0"/>
        <pt x="266" y="368" on="0"/>
        <pt x="220" y="368" on="1"/>
        <pt x="220" y="421" on="1"/>
        <pt x="253" y="421" on="0"/>
        <pt x="315" y="433" on="0"/>
        <pt x="364" y="462" on="0"/>
        <pt x="393" y="512" on="0"/>
        <pt x="393" y="551" on="1"/>
        <pt x="393" y="579" on="0"/>
        <pt x="372" y="625" on="0"/>
        <pt x="336" y="658" on="0"/>
        <pt x="288" y="676" on="0"/>
        <pt x="261" y="676" on="1"/>
        <pt x="186" y="676" on="0"/>
        <pt x="124" y="601" on="0"/>
        <pt x="124" y="530" on="1"/>
        <pt x="124" y="0" on="1"/>
        <pt x="61" y="0" on="1"/>
      </contour>
    </TTGlyph>
    <TTGlyph name="grave" xMin="-31" yMin="588" xMax="152" yMax="729">
      <contour>
        <pt x="-31" y="729" on="1"/>
        <pt x="47" y="729" on="1"/>
        <pt x="152" y="588" on="1"/>
        <pt x="101" y="588" on="1"/>
      </contour>
    </TTGlyph>
    <TTGlyph name="grave.cap" xMin="-31" yMin="778" xMax="152" yMax="919">
      <contour>
        <pt x="-31" y="919" on="1"/>
        <pt x="47" y="919" on="1"/>
        <pt x="152" y="778" on="1"/>
        <pt x="101" y="778" on="1"/>
      </contour>
    </TTGlyph>
    <TTGlyph name="greater" xMin="46" yMin="-8" xMax="554" yMax="514">
      <contour>
        <pt x="492" y="253" on="1"/>
        <pt x="46" y="459" on="1"/>
        <pt x="46" y="514" on="1"/>
        <pt x="554" y="280" on="1"/>
        <pt x="554" y="226" on="1"/>
        <pt x="46" y="-8" on="1"/>
        <pt x="46" y="47" on="1"/>
      </contour>
    </TTGlyph>
    <TTGlyph name="greaterequal" xMin="43" yMin="-30" xMax="550" yMax="528">
      <contour>
        <pt x="43" y="-30" on="1"/>
        <pt x="43" y="42" on="1"/>
        <pt x="550" y="42" on="1"/>
        <pt x="550" y="-30" on="1"/>
      </contour>
      <contour>
        <pt x="43" y="82" on="1"/>
        <pt x="43" y="159" on="1"/>
        <pt x="451" y="304" on="1"/>
        <pt x="43" y="450" on="1"/>
        <pt x="43" y="528" on="1"/>
        <pt x="550" y="341" on="1"/>
        <pt x="550" y="266" on="1"/>
      </contour>
    </TTGlyph>
    <TTGlyph name="guillemotleft" xMin="60" yMin="119" xMax="354" yMax="431">
      <contour>
        <pt x="60" y="244" on="1"/>
        <pt x="60" y="306" on="1"/>
        <pt x="193" y="431" on="1"/>
        <pt x="193" y="364" on="1"/>
        <pt x="99" y="275" on="1"/>
        <pt x="193" y="186" on="1"/>
        <pt x="193" y="119" on="1"/>
      </contour>
      <contour>
        <pt x="221" y="244" on="1"/>
        <pt x="221" y="306" on="1"/>
        <pt x="354" y="431" on="1"/>
        <pt x="354" y="364" on="1"/>
        <pt x="260" y="275" on="1"/>
        <pt x="354" y="186" on="1"/>
        <pt x="354" y="119" on="1"/>
      </contour>
    </TTGlyph>
    <TTGlyph name="guillemotright" xMin="72" yMin="119" xMax="366" yMax="431">
      <contour>
        <pt x="72" y="186" on="1"/>
        <pt x="166" y="275" on="1"/>
        <pt x="72" y="364" on="1"/>
        <pt x="72" y="431" on="1"/>
        <pt x="205" y="306" on="1"/>
        <pt x="205" y="244" on="1"/>
        <pt x="72" y="119" on="1"/>
      </contour>
      <contour>
        <pt x="233" y="186" on="1"/>
        <pt x="327" y="275" on="1"/>
        <pt x="233" y="364" on="1"/>
        <pt x="233" y="431" on="1"/>
        <pt x="366" y="306" on="1"/>
        <pt x="366" y="244" on="1"/>
        <pt x="233" y="119" on="1"/>
      </contour>
    </TTGlyph>
    <TTGlyph name="guilsinglleft" xMin="53" yMin="119" xMax="186" yMax="431">
      <contour>
        <pt x="53" y="244" on="1"/>
        <pt x="53" y="306" on="1"/>
        <pt x="186" y="431" on="1"/>
        <pt x="186" y="364" on="1"/>
        <pt x="92" y="275" on="1"/>
        <pt x="186" y="186" on="1"/>
        <pt x="186" y="119" on="1"/>
      </contour>
    </TTGlyph>
    <TTGlyph name="guilsinglright" xMin="73" yMin="119" xMax="206" yMax="431">
      <contour>
        <pt x="73" y="186" on="1"/>
        <pt x="167" y="275" on="1"/>
        <pt x="73" y="364" on="1"/>
        <pt x="73" y="431" on="1"/>
        <pt x="206" y="306" on="1"/>
        <pt x="206" y="244" on="1"/>
        <pt x="73" y="119" on="1"/>
      </contour>
    </TTGlyph>
    <TTGlyph name="h" xMin="59" yMin="0" xMax="478" yMax="714">
      <contour>
        <pt x="59" y="714" on="1"/>
        <pt x="122" y="714" on="1"/>
        <pt x="122" y="427" on="1"/>
        <pt x="124" y="427" on="1"/>
        <pt x="133" y="450" on="0"/>
        <pt x="166" y="489" on="0"/>
        <pt x="210" y="516" on="0"/>
        <pt x="262" y="531" on="0"/>
        <pt x="289" y="531" on="1"/>
        <pt x="343" y="531" on="0"/>
        <pt x="416" y="503" on="0"/>
        <pt x="460" y="452" on="0"/>
        <pt x="478" y="378" on="0"/>
        <pt x="478" y="332" on="1"/>
        <pt x="478" y="0" on="1"/>
        <pt x="415" y="0" on="1"/>
        <pt x="415" y="322" on="1"/>
        <pt x="415" y="355" on="0"/>
        <pt x="403" y="412" on="0"/>
        <pt x="373" y="454" on="0"/>
        <pt x="322" y="478" on="0"/>
        <pt x="284" y="478" on="1"/>
        <pt x="246" y="478" on="0"/>
        <pt x="187" y="451" on="0"/>
        <pt x="145" y="404" on="0"/>
        <pt x="123" y="339" on="0"/>
        <pt x="122" y="301" on="1"/>
        <pt x="122" y="0" on="1"/>
        <pt x="59" y="0" on="1"/>
      </contour>
    </TTGlyph>
    <TTGlyph name="hbar" xMin="0" yMin="0" xMax="501" yMax="714">
      <contour>
        <pt x="82" y="714" on="1"/>
        <pt x="145" y="714" on="1"/>
        <pt x="145" y="629" on="1"/>
        <pt x="298" y="629" on="1"/>
        <pt x="298" y="584" on="1"/>
        <pt x="145" y="584" on="1"/>
        <pt x="145" y="427" on="1"/>
        <pt x="147" y="427" on="1"/>
        <pt x="156" y="450" on="0"/>
        <pt x="189" y="489" on="0"/>
        <pt x="233" y="516" on="0"/>
        <pt x="285" y="531" on="0"/>
        <pt x="312" y="531" on="1"/>
        <pt x="366" y="531" on="0"/>
        <pt x="439" y="503" on="0"/>
        <pt x="483" y="452" on="0"/>
        <pt x="501" y="378" on="0"/>
        <pt x="501" y="332" on="1"/>
        <pt x="501" y="0" on="1"/>
        <pt x="438" y="0" on="1"/>
        <pt x="438" y="322" on="1"/>
        <pt x="438" y="355" on="0"/>
        <pt x="426" y="412" on="0"/>
        <pt x="396" y="454" on="0"/>
        <pt x="345" y="478" on="0"/>
        <pt x="307" y="478" on="1"/>
        <pt x="269" y="478" on="0"/>
        <pt x="210" y="451" on="0"/>
        <pt x="168" y="404" on="0"/>
        <pt x="146" y="339" on="0"/>
        <pt x="145" y="301" on="1"/>
        <pt x="145" y="0" on="1"/>
        <pt x="82" y="0" on="1"/>
        <pt x="82" y="584" on="1"/>
        <pt x="0" y="584" on="1"/>
        <pt x="0" y="629" on="1"/>
        <pt x="82" y="629" on="1"/>
      </contour>
    </TTGlyph>
    <TTGlyph name="hcircumflex" xMin="59" yMin="0" xMax="478" yMax="920">
      <component glyphName="h" x="0" y="0" flags="0x204"/>
      <component glyphName="circumflex" x="170" y="190" flags="0x4"/>
    </TTGlyph>
    <TTGlyph name="hungarumlaut" xMin="-33" yMin="590" xMax="300" yMax="731">
      <contour>
        <pt x="123" y="590" on="1"/>
        <pt x="224" y="731" on="1"/>
        <pt x="300" y="731" on="1"/>
        <pt x="174" y="590" on="1"/>
      </contour>
      <contour>
        <pt x="-33" y="590" on="1"/>
        <pt x="68" y="731" on="1"/>
        <pt x="144" y="731" on="1"/>
        <pt x="18" y="590" on="1"/>
      </contour>
    </TTGlyph>
    <TTGlyph name="hungarumlaut.cap" xMin="-33" yMin="782" xMax="300" yMax="923">
      <contour>
        <pt x="123" y="782" on="1"/>
        <pt x="224" y="923" on="1"/>
        <pt x="300" y="923" on="1"/>
        <pt x="174" y="782" on="1"/>
      </contour>
      <contour>
        <pt x="-33" y="782" on="1"/>
        <pt x="68" y="923" on="1"/>
        <pt x="144" y="923" on="1"/>
        <pt x="18" y="782" on="1"/>
      </contour>
    </TTGlyph>
    <TTGlyph name="hyphen" xMin="60" yMin="246" xMax="310" yMax="304">
      <contour>
        <pt x="60" y="246" on="1"/>
        <pt x="60" y="304" on="1"/>
        <pt x="310" y="304" on="1"/>
        <pt x="310" y="246" on="1"/>
      </contour>
    </TTGlyph>
    <TTGlyph name="i" xMin="61" yMin="0" xMax="124" yMax="714">
      <contour>
        <pt x="61" y="714" on="1"/>
        <pt x="124" y="714" on="1"/>
        <pt x="124" y="613" on="1"/>
        <pt x="61" y="613" on="1"/>
      </contour>
      <contour>
        <pt x="61" y="516" on="1"/>
        <pt x="124" y="516" on="1"/>
        <pt x="124" y="0" on="1"/>
        <pt x="61" y="0" on="1"/>
      </contour>
    </TTGlyph>
    <TTGlyph name="iacute" xMin="59" yMin="0" xMax="242" yMax="731">
      <component glyphName="dotlessi" x="0" y="0" flags="0x204"/>
      <component glyphName="acute" x="26" y="0" flags="0x4"/>
    </TTGlyph>
    <TTGlyph name="icircumflex" xMin="-54" yMin="0" xMax="243" yMax="730">
      <component glyphName="dotlessi" x="0" y="0" flags="0x204"/>
      <component glyphName="circumflex" x="-1" y="0" flags="0x4"/>
    </TTGlyph>
    <TTGlyph name="idieresis" xMin="-29" yMin="0" xMax="216" yMax="711">
      <component glyphName="dotlessi" x="0" y="0" flags="0x204"/>
      <component glyphName="dieresis" x="1" y="0" flags="0x4"/>
    </TTGlyph>
    <TTGlyph name="igrave" xMin="-57" yMin="0" xMax="126" yMax="729">
      <component glyphName="dotlessi" x="0" y="0" flags="0x204"/>
      <component glyphName="grave" x="-26" y="0" flags="0x4"/>
    </TTGlyph>
    <TTGlyph name="ij" xMin="61" yMin="-191" xMax="312" yMax="714">
      <component glyphName="i" x="0" y="0" flags="0x4"/>
      <component glyphName="j" x="188" y="0" flags="0x4"/>
    </TTGlyph>
    <TTGlyph name="imacron" xMin="-71" yMin="0" xMax="258" yMax="683">
      <component glyphName="dotlessi" x="0" y="0" flags="0x204"/>
      <component glyphName="macron" x="1" y="0" flags="0x4"/>
    </TTGlyph>
    <TTGlyph name="infinity" xMin="42" yMin="98" xMax="717" yMax="410">
      <contour>
        <pt x="337" y="251" on="1"/>
        <pt x="323" y="264" on="0"/>
        <pt x="288" y="295" on="0"/>
        <pt x="249" y="322" on="0"/>
        <pt x="207" y="341" on="0"/>
        <pt x="187" y="341" on="1"/>
        <pt x="149" y="341" on="0"/>
        <pt x="107" y="287" on="0"/>
        <pt x="107" y="252" on="1"/>
        <pt x="107" y="214" on="0"/>
        <pt x="151" y="166" on="0"/>
        <pt x="190" y="166" on="1"/>
        <pt x="210" y="166" on="0"/>
        <pt x="251" y="182" on="0"/>
        <pt x="289" y="208" on="0"/>
        <pt x="323" y="237" on="0"/>
      </contour>
      <contour>
        <pt x="652" y="252" on="1"/>
        <pt x="652" y="290" on="0"/>
        <pt x="610" y="342" on="0"/>
        <pt x="570" y="342" on="1"/>
        <pt x="549" y="342" on="0"/>
        <pt x="509" y="324" on="0"/>
        <pt x="471" y="296" on="0"/>
        <pt x="437" y="264" on="0"/>
        <pt x="423" y="251" on="1"/>
        <pt x="439" y="236" on="0"/>
        <pt x="472" y="206" on="0"/>
        <pt x="509" y="182" on="0"/>
        <pt x="550" y="166" on="0"/>
        <pt x="573" y="166" on="1"/>
        <pt x="611" y="166" on="0"/>
        <pt x="652" y="216" on="0"/>
      </contour>
      <contour>
        <pt x="717" y="255" on="1"/>
        <pt x="717" y="222" on="0"/>
        <pt x="697" y="165" on="0"/>
        <pt x="659" y="122" on="0"/>
        <pt x="604" y="98" on="0"/>
        <pt x="570" y="98" on="1"/>
        <pt x="541" y="98" on="0"/>
        <pt x="489" y="117" on="0"/>
        <pt x="442" y="149" on="0"/>
        <pt x="399" y="187" on="0"/>
        <pt x="380" y="207" on="1"/>
        <pt x="359" y="188" on="0"/>
        <pt x="317" y="149" on="0"/>
        <pt x="271" y="118" on="0"/>
        <pt x="219" y="99" on="0"/>
        <pt x="189" y="99" on="1"/>
        <pt x="156" y="99" on="0"/>
        <pt x="101" y="122" on="0"/>
        <pt x="63" y="163" on="0"/>
        <pt x="42" y="219" on="0"/>
        <pt x="42" y="252" on="1"/>
        <pt x="42" y="284" on="0"/>
        <pt x="62" y="341" on="0"/>
        <pt x="99" y="383" on="0"/>
        <pt x="153" y="408" on="0"/>
        <pt x="187" y="408" on="1"/>
        <pt x="217" y="408" on="0"/>
        <pt x="270" y="388" on="0"/>
        <pt x="318" y="355" on="0"/>
        <pt x="360" y="314" on="0"/>
        <pt x="380" y="294" on="1"/>
        <pt x="400" y="314" on="0"/>
        <pt x="441" y="355" on="0"/>
        <pt x="487" y="389" on="0"/>
        <pt x="539" y="410" on="0"/>
        <pt x="569" y="410" on="1"/>
        <pt x="603" y="410" on="0"/>
        <pt x="657" y="386" on="0"/>
        <pt x="696" y="344" on="0"/>
        <pt x="717" y="288" on="0"/>
      </contour>
    </TTGlyph>
    <TTGlyph name="integral" xMin="98" yMin="-213" xMax="420" yMax="786">
      <contour>
        <pt x="420" y="730" on="1"/>
        <pt x="420" y="712" on="0"/>
        <pt x="395" y="692" on="0"/>
        <pt x="378" y="692" on="1"/>
        <pt x="366" y="692" on="0"/>
        <pt x="350" y="705" on="0"/>
        <pt x="338" y="722" on="0"/>
        <pt x="328" y="735" on="0"/>
        <pt x="322" y="735" on="1"/>
        <pt x="307" y="735" on="0"/>
        <pt x="293" y="695" on="0"/>
        <pt x="290" y="645" on="0"/>
        <pt x="292" y="600" on="0"/>
        <pt x="292" y="594" on="1"/>
        <pt x="293" y="555" on="1"/>
        <pt x="293" y="44" on="1"/>
        <pt x="293" y="9" on="0"/>
        <pt x="291" y="-79" on="0"/>
        <pt x="268" y="-159" on="0"/>
        <pt x="216" y="-213" on="0"/>
        <pt x="167" y="-213" on="1"/>
        <pt x="156" y="-213" on="0"/>
        <pt x="131" y="-207" on="0"/>
        <pt x="111" y="-194" on="0"/>
        <pt x="98" y="-175" on="0"/>
        <pt x="98" y="-161" on="1"/>
        <pt x="98" y="-147" on="0"/>
        <pt x="121" y="-125" on="0"/>
        <pt x="135" y="-125" on="1"/>
        <pt x="147" y="-125" on="0"/>
        <pt x="162" y="-138" on="0"/>
        <pt x="173" y="-154" on="0"/>
        <pt x="182" y="-167" on="0"/>
        <pt x="187" y="-167" on="1"/>
        <pt x="200" y="-167" on="0"/>
        <pt x="213" y="-123" on="0"/>
        <pt x="216" y="-69" on="0"/>
        <pt x="215" y="-21" on="0"/>
        <pt x="215" y="-16" on="1"/>
        <pt x="215" y="6" on="1"/>
        <pt x="215" y="501" on="1"/>
        <pt x="215" y="525" on="0"/>
        <pt x="213" y="586" on="0"/>
        <pt x="217" y="649" on="0"/>
        <pt x="229" y="710" on="0"/>
        <pt x="257" y="757" on="0"/>
        <pt x="304" y="786" on="0"/>
        <pt x="341" y="786" on="1"/>
        <pt x="354" y="786" on="0"/>
        <pt x="382" y="780" on="0"/>
        <pt x="405" y="767" on="0"/>
        <pt x="420" y="745" on="0"/>
      </contour>
    </TTGlyph>
    <TTGlyph name="iogonek" xMin="-5" yMin="-203" xMax="165" yMax="714">
      <contour>
        <pt x="124" y="0" on="1"/>
        <pt x="100" y="-22" on="0"/>
        <pt x="68" y="-57" on="0"/>
        <pt x="54" y="-85" on="0"/>
        <pt x="50" y="-104" on="0"/>
        <pt x="50" y="-117" on="1"/>
        <pt x="50" y="-141" on="0"/>
        <pt x="75" y="-164" on="0"/>
        <pt x="90" y="-164" on="1"/>
        <pt x="107" y="-164" on="0"/>
        <pt x="132" y="-139" on="0"/>
        <pt x="139" y="-123" on="1"/>
        <pt x="165" y="-136" on="1"/>
        <pt x="150" y="-174" on="0"/>
        <pt x="106" y="-203" on="0"/>
        <pt x="77" y="-203" on="1"/>
        <pt x="38" y="-203" on="0"/>
        <pt x="-5" y="-157" on="0"/>
        <pt x="-5" y="-121" on="1"/>
        <pt x="-5" y="-113" on="0"/>
        <pt x="1" y="-90" on="0"/>
        <pt x="17" y="-63" on="0"/>
        <pt x="56" y="-23" on="0"/>
        <pt x="90" y="0" on="1"/>
        <pt x="61" y="0" on="1"/>
        <pt x="61" y="516" on="1"/>
        <pt x="124" y="516" on="1"/>
      </contour>
      <contour>
        <pt x="61" y="714" on="1"/>
        <pt x="124" y="714" on="1"/>
        <pt x="124" y="613" on="1"/>
        <pt x="61" y="613" on="1"/>
      </contour>
    </TTGlyph>
    <TTGlyph name="itilde" xMin="-64" yMin="0" xMax="250" yMax="710">
      <component glyphName="dotlessi" x="0" y="0" flags="0x204"/>
      <component glyphName="tilde" x="1" y="0" flags="0x4"/>
    </TTGlyph>
    <TTGlyph name="j" xMin="-30" yMin="-191" xMax="124" yMax="714">
      <contour>
        <pt x="61" y="714" on="1"/>
        <pt x="124" y="714" on="1"/>
        <pt x="124" y="613" on="1"/>
        <pt x="61" y="613" on="1"/>
      </contour>
      <contour>
        <pt x="61" y="516" on="1"/>
        <pt x="124" y="516" on="1"/>
        <pt x="124" y="-48" on="1"/>
        <pt x="124" y="-77" on="0"/>
        <pt x="115" y="-129" on="0"/>
        <pt x="90" y="-168" on="0"/>
        <pt x="47" y="-191" on="0"/>
        <pt x="14" y="-191" on="1"/>
        <pt x="3" y="-191" on="0"/>
        <pt x="-19" y="-189" on="0"/>
        <pt x="-30" y="-189" on="1"/>
        <pt x="-30" y="-137" on="1"/>
        <pt x="-22" y="-138" on="0"/>
        <pt x="-4" y="-139" on="0"/>
        <pt x="4" y="-138" on="1"/>
        <pt x="41" y="-138" on="0"/>
        <pt x="61" y="-95" on="0"/>
        <pt x="61" y="-63" on="1"/>
      </contour>
    </TTGlyph>
    <TTGlyph name="jcircumflex" xMin="-57" yMin="-191" xMax="240" yMax="730">
      <component glyphName="dotlessj" x="0" y="0" flags="0x204"/>
      <component glyphName="circumflex" x="-4" y="0" flags="0x4"/>
    </TTGlyph>
    <TTGlyph name="k" xMin="60" yMin="0" xMax="508" yMax="714">
      <contour>
        <pt x="60" y="714" on="1"/>
        <pt x="123" y="714" on="1"/>
        <pt x="123" y="266" on="1"/>
        <pt x="409" y="516" on="1"/>
        <pt x="493" y="516" on="1"/>
        <pt x="273" y="325" on="1"/>
        <pt x="508" y="0" on="1"/>
        <pt x="429" y="0" on="1"/>
        <pt x="225" y="281" on="1"/>
        <pt x="123" y="196" on="1"/>
        <pt x="123" y="0" on="1"/>
        <pt x="60" y="0" on="1"/>
      </contour>
    </TTGlyph>
    <TTGlyph name="kcommaaccent" xMin="60" yMin="-203" xMax="508" yMax="714">
      <component glyphName="k" x="0" y="0" flags="0x204"/>
      <component glyphName="commaaccent" x="124" y="0" flags="0x4"/>
    </TTGlyph>
    <TTGlyph name="l" xMin="61" yMin="0" xMax="124" yMax="714">
      <contour>
        <pt x="61" y="714" on="1"/>
        <pt x="124" y="714" on="1"/>
        <pt x="124" y="0" on="1"/>
        <pt x="61" y="0" on="1"/>
      </contour>
    </TTGlyph>
    <TTGlyph name="lacute" xMin="61" yMin="0" xMax="244" yMax="921">
      <component glyphName="l" x="0" y="0" flags="0x204"/>
      <component glyphName="acute" x="28" y="190" flags="0x4"/>
    </TTGlyph>
    <TTGlyph name="lcaron" xMin="61" yMin="0" xMax="307" yMax="714">
      <component glyphName="l" x="0" y="0" flags="0x4"/>
      <component glyphName="carontwo" x="86" y="0" flags="0x4"/>
    </TTGlyph>
    <TTGlyph name="lcommaaccent" xMin="51" yMin="-203" xMax="137" yMax="714">
      <component glyphName="l" x="0" y="0" flags="0x204"/>
      <component glyphName="commaaccent" x="-46" y="0" flags="0x4"/>
    </TTGlyph>
    <TTGlyph name="ldot" xMin="61" yMin="0" xMax="256" yMax="714">
      <component glyphName="l" x="0" y="0" flags="0x4"/>
      <component glyphName="dotaccent" x="129" y="-194" flags="0x4"/>
    </TTGlyph>
    <TTGlyph name="less" xMin="46" yMin="-8" xMax="554" yMax="514">
      <contour>
        <pt x="554" y="-8" on="1"/>
        <pt x="46" y="226" on="1"/>
        <pt x="46" y="280" on="1"/>
        <pt x="554" y="514" on="1"/>
        <pt x="554" y="459" on="1"/>
        <pt x="108" y="253" on="1"/>
        <pt x="554" y="47" on="1"/>
      </contour>
    </TTGlyph>
    <TTGlyph name="lessequal" xMin="43" yMin="-30" xMax="550" yMax="528">
      <contour>
        <pt x="43" y="-30" on="1"/>
        <pt x="43" y="42" on="1"/>
        <pt x="550" y="42" on="1"/>
        <pt x="550" y="-30" on="1"/>
      </contour>
      <contour>
        <pt x="43" y="266" on="1"/>
        <pt x="43" y="341" on="1"/>
        <pt x="550" y="528" on="1"/>
        <pt x="550" y="450" on="1"/>
        <pt x="142" y="304" on="1"/>
        <pt x="550" y="159" on="1"/>
        <pt x="550" y="82" on="1"/>
      </contour>
    </TTGlyph>
    <TTGlyph name="logicalnot" xMin="49" yMin="111" xMax="552" yMax="378">
      <contour>
        <pt x="499" y="325" on="1"/>
        <pt x="49" y="325" on="1"/>
        <pt x="49" y="378" on="1"/>
        <pt x="552" y="378" on="1"/>
        <pt x="552" y="111" on="1"/>
        <pt x="499" y="111" on="1"/>
      </contour>
    </TTGlyph>
    <TTGlyph name="lozenge" xMin="89" yMin="-35" xMax="504" yMax="747">
      <contour>
        <pt x="296" y="671" on="1"/>
        <pt x="165" y="356" on="1"/>
        <pt x="296" y="41" on="1"/>
        <pt x="428" y="356" on="1"/>
      </contour>
      <contour>
        <pt x="332" y="-35" on="1"/>
        <pt x="260" y="-35" on="1"/>
        <pt x="89" y="356" on="1"/>
        <pt x="260" y="747" on="1"/>
        <pt x="332" y="747" on="1"/>
        <pt x="504" y="356" on="1"/>
      </contour>
    </TTGlyph>
    <TTGlyph name="lslash" xMin="-6" yMin="0" xMax="191" yMax="714">
      <contour>
        <pt x="61" y="714" on="1"/>
        <pt x="124" y="714" on="1"/>
        <pt x="124" y="447" on="1"/>
        <pt x="191" y="502" on="1"/>
        <pt x="191" y="447" on="1"/>
        <pt x="124" y="392" on="1"/>
        <pt x="124" y="0" on="1"/>
        <pt x="61" y="0" on="1"/>
        <pt x="61" y="340" on="1"/>
        <pt x="-6" y="285" on="1"/>
        <pt x="-6" y="340" on="1"/>
        <pt x="61" y="395" on="1"/>
      </contour>
    </TTGlyph>
    <TTGlyph name="m" xMin="60" yMin="0" xMax="773" yMax="531">
      <contour>
        <pt x="60" y="516" on="1"/>
        <pt x="118" y="516" on="1"/>
        <pt x="118" y="429" on="1"/>
        <pt x="121" y="429" on="1"/>
        <pt x="146" y="476" on="0"/>
        <pt x="228" y="531" on="0"/>
        <pt x="290" y="531" on="1"/>
        <pt x="341" y="531" on="0"/>
        <pt x="424" y="481" on="0"/>
        <pt x="438" y="430" on="1"/>
        <pt x="461" y="481" on="0"/>
        <pt x="551" y="531" on="0"/>
        <pt x="602" y="531" on="1"/>
        <pt x="773" y="531" on="0"/>
        <pt x="773" y="350" on="1"/>
        <pt x="773" y="0" on="1"/>
        <pt x="710" y="0" on="1"/>
        <pt x="710" y="347" on="1"/>
        <pt x="710" y="411" on="0"/>
        <pt x="656" y="478" on="0"/>
        <pt x="588" y="478" on="1"/>
        <pt x="547" y="478" on="0"/>
        <pt x="493" y="447" on="0"/>
        <pt x="461" y="395" on="0"/>
        <pt x="448" y="328" on="0"/>
        <pt x="448" y="292" on="1"/>
        <pt x="448" y="0" on="1"/>
        <pt x="385" y="0" on="1"/>
        <pt x="385" y="350" on="1"/>
        <pt x="385" y="376" on="0"/>
        <pt x="374" y="423" on="0"/>
        <pt x="349" y="458" on="0"/>
        <pt x="307" y="478" on="0"/>
        <pt x="277" y="478" on="1"/>
        <pt x="236" y="478" on="0"/>
        <pt x="178" y="449" on="0"/>
        <pt x="141" y="398" on="0"/>
        <pt x="123" y="328" on="0"/>
        <pt x="123" y="288" on="1"/>
        <pt x="123" y="0" on="1"/>
        <pt x="60" y="0" on="1"/>
      </contour>
    </TTGlyph>
    <TTGlyph name="macron" xMin="-72" yMin="638" xMax="257" yMax="683">
      <contour>
        <pt x="-72" y="638" on="1"/>
        <pt x="-72" y="683" on="1"/>
        <pt x="257" y="683" on="1"/>
        <pt x="257" y="638" on="1"/>
      </contour>
    </TTGlyph>
    <TTGlyph name="macron.cap" xMin="-72" yMin="828" xMax="257" yMax="873">
      <contour>
        <pt x="-72" y="828" on="1"/>
        <pt x="-72" y="873" on="1"/>
        <pt x="257" y="873" on="1"/>
        <pt x="257" y="828" on="1"/>
      </contour>
    </TTGlyph>
    <TTGlyph name="minus" xMin="49" yMin="225" xMax="552" yMax="278">
      <contour>
        <pt x="552" y="225" on="1"/>
        <pt x="49" y="225" on="1"/>
        <pt x="49" y="278" on="1"/>
        <pt x="552" y="278" on="1"/>
      </contour>
    </TTGlyph>
    <TTGlyph name="mu" xMin="59" yMin="-191" xMax="478" yMax="516">
      <contour>
        <pt x="478" y="0" on="1"/>
        <pt x="420" y="0" on="1"/>
        <pt x="420" y="93" on="1"/>
        <pt x="418" y="93" on="1"/>
        <pt x="393" y="41" on="0"/>
        <pt x="298" y="-15" on="0"/>
        <pt x="240" y="-15" on="1"/>
        <pt x="208" y="-15" on="0"/>
        <pt x="147" y="2" on="0"/>
        <pt x="123" y="20" on="1"/>
        <pt x="123" y="-191" on="1"/>
        <pt x="59" y="-191" on="1"/>
        <pt x="59" y="516" on="1"/>
        <pt x="122" y="516" on="1"/>
        <pt x="122" y="180" on="1"/>
        <pt x="124" y="110" on="0"/>
        <pt x="185" y="38" on="0"/>
        <pt x="260" y="38" on="1"/>
        <pt x="300" y="38" on="0"/>
        <pt x="359" y="73" on="0"/>
        <pt x="397" y="131" on="0"/>
        <pt x="415" y="206" on="0"/>
        <pt x="415" y="245" on="1"/>
        <pt x="415" y="516" on="1"/>
        <pt x="478" y="516" on="1"/>
      </contour>
    </TTGlyph>
    <TTGlyph name="multiply" xMin="74" yMin="25" xMax="526" yMax="477">
      <contour>
        <pt x="74" y="440" on="1"/>
        <pt x="111" y="477" on="1"/>
        <pt x="300" y="288" on="1"/>
        <pt x="489" y="477" on="1"/>
        <pt x="526" y="440" on="1"/>
        <pt x="337" y="251" on="1"/>
        <pt x="526" y="62" on="1"/>
        <pt x="489" y="25" on="1"/>
        <pt x="300" y="213" on="1"/>
        <pt x="111" y="25" on="1"/>
        <pt x="74" y="62" on="1"/>
        <pt x="262" y="251" on="1"/>
      </contour>
    </TTGlyph>
    <TTGlyph name="n" xMin="59" yMin="0" xMax="478" yMax="531">
      <contour>
        <pt x="59" y="516" on="1"/>
        <pt x="122" y="516" on="1"/>
        <pt x="122" y="427" on="1"/>
        <pt x="124" y="427" on="1"/>
        <pt x="133" y="450" on="0"/>
        <pt x="166" y="489" on="0"/>
        <pt x="210" y="516" on="0"/>
        <pt x="262" y="531" on="0"/>
        <pt x="289" y="531" on="1"/>
        <pt x="343" y="531" on="0"/>
        <pt x="416" y="503" on="0"/>
        <pt x="460" y="452" on="0"/>
        <pt x="478" y="378" on="0"/>
        <pt x="478" y="332" on="1"/>
        <pt x="478" y="0" on="1"/>
        <pt x="415" y="0" on="1"/>
        <pt x="415" y="322" on="1"/>
        <pt x="415" y="355" on="0"/>
        <pt x="403" y="412" on="0"/>
        <pt x="373" y="454" on="0"/>
        <pt x="322" y="478" on="0"/>
        <pt x="284" y="478" on="1"/>
        <pt x="246" y="478" on="0"/>
        <pt x="187" y="451" on="0"/>
        <pt x="145" y="404" on="0"/>
        <pt x="123" y="339" on="0"/>
        <pt x="122" y="301" on="1"/>
        <pt x="122" y="0" on="1"/>
        <pt x="59" y="0" on="1"/>
      </contour>
    </TTGlyph>
    <TTGlyph name="nacute" xMin="59" yMin="0" xMax="478" yMax="731">
      <component glyphName="n" x="0" y="0" flags="0x204"/>
      <component glyphName="acute" x="203" y="0" flags="0x4"/>
    </TTGlyph>
    <TTGlyph name="napostrophe" xMin="23" yMin="0" xMax="496" yMax="805">
      <component glyphName="n" x="18" y="0" flags="0x4"/>
      <component glyphName="commaaccent" x="-74" y="855" flags="0x4"/>
    </TTGlyph>
    <TTGlyph name="ncaron" xMin="59" yMin="0" xMax="478" yMax="731">
      <component glyphName="n" x="0" y="0" flags="0x204"/>
      <component glyphName="caron" x="179" y="0" flags="0x4"/>
    </TTGlyph>
    <TTGlyph name="ncommaaccent" xMin="59" yMin="-203" xMax="478" yMax="531">
      <component glyphName="n" x="0" y="0" flags="0x204"/>
      <component glyphName="commaaccent" x="134" y="0" flags="0x4"/>
    </TTGlyph>
    <TTGlyph name="nine" xMin="34" yMin="-15" xMax="516" yMax="706">
      <contour>
        <pt x="114" y="168" on="1"/>
        <pt x="122" y="110" on="0"/>
        <pt x="199" y="38" on="0"/>
        <pt x="260" y="38" on="1"/>
        <pt x="321" y="38" on="0"/>
        <pt x="397" y="100" on="0"/>
        <pt x="439" y="194" on="0"/>
        <pt x="453" y="303" on="0"/>
        <pt x="453" y="351" on="1"/>
        <pt x="451" y="351" on="1"/>
        <pt x="426" y="299" on="0"/>
        <pt x="325" y="235" on="0"/>
        <pt x="265" y="235" on="1"/>
        <pt x="212" y="235" on="0"/>
        <pt x="127" y="270" on="0"/>
        <pt x="67" y="332" on="0"/>
        <pt x="34" y="418" on="0"/>
        <pt x="34" y="469" on="1"/>
        <pt x="34" y="520" on="0"/>
        <pt x="69" y="607" on="0"/>
        <pt x="132" y="670" on="0"/>
        <pt x="219" y="706" on="0"/>
        <pt x="271" y="706" on="1"/>
        <pt x="335" y="706" on="0"/>
        <pt x="427" y="667" on="0"/>
        <pt x="487" y="578" on="0"/>
        <pt x="516" y="436" on="0"/>
        <pt x="516" y="334" on="1"/>
        <pt x="516" y="313" on="0"/>
        <pt x="511" y="245" on="0"/>
        <pt x="493" y="168" on="0"/>
        <pt x="460" y="89" on="0"/>
        <pt x="405" y="25" on="0"/>
        <pt x="323" y="-15" on="0"/>
        <pt x="266" y="-15" on="1"/>
        <pt x="173" y="-15" on="0"/>
        <pt x="62" y="76" on="0"/>
        <pt x="51" y="168" on="1"/>
      </contour>
      <contour>
        <pt x="266" y="288" on="1"/>
        <pt x="307" y="288" on="0"/>
        <pt x="372" y="317" on="0"/>
        <pt x="417" y="367" on="0"/>
        <pt x="440" y="434" on="0"/>
        <pt x="440" y="473" on="1"/>
        <pt x="440" y="510" on="0"/>
        <pt x="420" y="576" on="0"/>
        <pt x="377" y="625" on="0"/>
        <pt x="311" y="653" on="0"/>
        <pt x="265" y="653" on="1"/>
        <pt x="227" y="653" on="0"/>
        <pt x="166" y="624" on="0"/>
        <pt x="121" y="575" on="0"/>
        <pt x="97" y="509" on="0"/>
        <pt x="97" y="473" on="1"/>
        <pt x="97" y="435" on="0"/>
        <pt x="120" y="367" on="0"/>
        <pt x="163" y="317" on="0"/>
        <pt x="226" y="288" on="0"/>
      </contour>
    </TTGlyph>
    <TTGlyph name="notequal" xMin="43" yMin="-32" xMax="550" yMax="532">
      <contour>
        <pt x="263" y="114" on="1"/>
        <pt x="187" y="-32" on="1"/>
        <pt x="125" y="0" on="1"/>
        <pt x="184" y="114" on="1"/>
        <pt x="43" y="114" on="1"/>
        <pt x="43" y="186" on="1"/>
        <pt x="221" y="186" on="1"/>
        <pt x="288" y="313" on="1"/>
        <pt x="43" y="313" on="1"/>
        <pt x="43" y="384" on="1"/>
        <pt x="326" y="384" on="1"/>
        <pt x="403" y="532" on="1"/>
        <pt x="465" y="500" on="1"/>
        <pt x="404" y="384" on="1"/>
        <pt x="550" y="384" on="1"/>
        <pt x="550" y="313" on="1"/>
        <pt x="367" y="313" on="1"/>
        <pt x="300" y="186" on="1"/>
        <pt x="550" y="186" on="1"/>
        <pt x="550" y="114" on="1"/>
      </contour>
    </TTGlyph>
    <TTGlyph name="ntilde" xMin="59" yMin="0" xMax="478" yMax="710">
      <component glyphName="n" x="0" y="0" flags="0x204"/>
      <component glyphName="tilde" x="176" y="0" flags="0x4"/>
    </TTGlyph>
    <TTGlyph name="numbersign" xMin="35" yMin="0" xMax="525" yMax="691">
      <contour>
        <pt x="223" y="424" on="1"/>
        <pt x="201" y="268" on="1"/>
        <pt x="342" y="268" on="1"/>
        <pt x="364" y="424" on="1"/>
      </contour>
      <contour>
        <pt x="497" y="223" on="1"/>
        <pt x="386" y="223" on="1"/>
        <pt x="355" y="0" on="1"/>
        <pt x="305" y="0" on="1"/>
        <pt x="336" y="223" on="1"/>
        <pt x="195" y="223" on="1"/>
        <pt x="164" y="0" on="1"/>
        <pt x="114" y="0" on="1"/>
        <pt x="145" y="223" on="1"/>
        <pt x="35" y="223" on="1"/>
        <pt x="35" y="268" on="1"/>
        <pt x="151" y="268" on="1"/>
        <pt x="173" y="424" on="1"/>
        <pt x="63" y="424" on="1"/>
        <pt x="63" y="469" on="1"/>
        <pt x="179" y="469" on="1"/>
        <pt x="210" y="691" on="1"/>
        <pt x="260" y="691" on="1"/>
        <pt x="229" y="469" on="1"/>
        <pt x="370" y="469" on="1"/>
        <pt x="401" y="691" on="1"/>
        <pt x="451" y="691" on="1"/>
        <pt x="420" y="469" on="1"/>
        <pt x="525" y="469" on="1"/>
        <pt x="525" y="424" on="1"/>
        <pt x="414" y="424" on="1"/>
        <pt x="392" y="268" on="1"/>
        <pt x="497" y="268" on="1"/>
      </contour>
    </TTGlyph>
</ttFont>
